<?xml version="1.0" encoding="UTF-8"?>
<svg width="1200pt" height="1200pt" version="1.1" viewBox="0 0 1200 1200" xmlns="http://www.w3.org/2000/svg">
 <g>
  <path d="m1159.2 786.14c-19.098-9.1641-35.82-22.605-48.875-39.289-21.785-25.035-43.234-50.363-64.348-75.98-9.9648-12.129-23.508-22.312-24.785-39.84 10.16 7.582 20.34 15.242 30.59 22.805 6.8047 5.0234 13.609 10.055 20.602 14.805 4.7539 3.2305 9.7656 6.1055 14.773 8.9375 19.938 11.266 37.875 26.484 61.074 31.273v0.003907c2.6562 0 5.2891-0.48047 7.7695-1.4258-0.61719-2.9609-1.9453-5.7305-3.8711-8.0625-13.207-8.5-24.387-19.805-32.738-33.105-9.8281-14.227-20.023-28.203-30.117-42.242-2.7227-3.7852-5.7383-7.3594-8.4609-11.145-2.5039-3.4805-4.793-7.1094-7.8984-11.754 21.457 11.176 41.203 21.641 61.176 31.664h-0.003906c3.4023 1.0039 6.9531 1.4258 10.496 1.2578-1.0078-3.543-2.5391-6.918-4.543-10.012-9.4375-10.641-20.441-20.043-28.867-31.395-15.516-20.895-29.773-42.734-44.242-64.387-7.4062-11.082-14.141-22.609-21.18-33.934l1.3203-1.8516c19.551 9.2188 39.102 18.438 58.805 27.727 1.8164-1.5312 2.7344-3.875 2.4492-6.2344-0.28906-2.3555-1.7461-4.4102-3.8789-5.4609-7.1367-5.9961-13.719-12.625-19.668-19.805-14.395-17.305-28.414-34.926-42.273-52.664-4.5664-5.8438-8.1797-12.426-12.227-18.672v0.003906c3.2383-0.058594 6.4453 0.65625 9.3555 2.0898 18.148 7.6328 36.25 15.379 54.488 22.789v-0.003906c2.5273 0.42969 5.1133 0.375 7.6172-0.16797-0.22266-2.8438-0.96875-5.6211-2.2031-8.1953-4.9727-6.5508-11.023-12.297-15.848-18.945-15.797-21.781-31.207-43.844-46.832-65.75-3.8672-5.4219-7.9844-10.664-11.984-15.988l1.5039-1.5781c15.168 12.176 30.336 24.352 46.797 37.566 0.77734-2.4961 0.99609-5.1328 0.65234-7.7266-41.16-55.977-77.219-115.53-107.74-177.95-24.09 44.496-56.711 83.812-96 115.7-8.3633-7.7891-19.602-13.109-13.27-26.984 0.10156-1.625-0.20312-3.2461-0.88672-4.7266-4.7773-16.035-16.844-28.879-32.551-34.648-17.008-9.7344-37.734-10.406-55.34-1.7969-3.4023-4.0312-7.4062-7.5234-11.863-10.348-8.2969-3.8125-17.535-5.0742-26.551-3.6328-9.0117 1.4453-17.395 5.5312-24.086 11.742-4.0625 3.2656-7.8984 6.8086-11.477 10.602-4.0391 4.9492-11.055 6.2812-16.629 3.1562-4.8672-1.9414-10.172-2.5312-15.348-1.6992s-10.027 3.0547-14.043 6.4258c-10.453 9.3672-19.512 20.188-26.891 32.129-9.7539 13.121-14.855 29.125-14.5 45.473 1.8203 12.504 0.87891 25.254-2.7539 37.355-1.1172 4.2344-1.5195 8.625-1.1992 12.996 0.73828 6.2734-1.3047 12.555-5.5898 17.199-3.1602 3.4648-4.9805 7.9414-5.1406 12.625-1.3594 16.879 3.9688 33.613 14.836 46.594 3.5195 3.3438 5.7461 7.8242 6.2852 12.648 4.1836 9.2812 5.8516 19.5 4.8438 29.629 4.9258 16.93 17.824 30.383 34.535 36.012 2.0625 1.3594 3.3047 3.6641 3.3047 6.1367-0.96875 5.0742 0 10.332 2.7227 14.727 2.7188 4.3945 6.9922 7.6055 11.969 9 3.2109 0.47656 5.9023 2.6797 7.0039 5.7383 1.1016 3.0547 0.43359 6.4688-1.7344 8.8828-1.1875 2.1172-1.5703 4.6719-2.5664 6.9141-2.5938 5.207-3.4609 11.102-2.4766 16.832 0.98828 5.7305 3.7695 10.996 7.9492 15.039 4.4766 4.8203 9.2227 9.3789 14.223 13.652 4.0508 2.4336 5.7227 7.4609 3.9336 11.836-2.0312 4.8984-2.4219 10.32-1.1094 15.457 1.3125 5.1367 4.2578 9.7109 8.3906 13.031 8.7891 6.543 18.012 12.488 27.598 17.793 4.3242 2.418 8.9727 4.1992 13.805 5.2891 2.1484-0.46094 4.1406-1.4805 5.7695-2.957-0.87109-1.6992-2.1562-3.1484-3.7383-4.2188-3.7266-0.023437-7.2383-1.7617-9.5156-4.7148-2.2812-2.9531-3.0664-6.793-2.1406-10.402 0.21094-2.2734 0.13281-4.5742 0.22266-8.3633-3.4297 4.6875-5.5977 7.6562-7.7695 10.621l-2.4609-1.0742c0.61719-7.7422 1.2305-15.488 1.8477-23.23l-2.0312-0.41016-4.2148 6.5078-1.7031-0.38281c-0.125-5.207-0.25-10.418-0.38672-16.121-2.7227-0.11719-5.0352-0.21484-7.5-0.31641-2.3281 7.3125-4.5039 14.152-7.3789 23.184v-0.003907c-3.2383-6.4336-3.3281-14.008-0.23438-20.516 1.5977-2.668 2.1992-5.8125 1.6953-8.8828-8.0195-6.2461-2.6758-12.934-1.5703-19.52 0.40625-2.418 0.41406-4.9062 0.60156-7.3594l-1.6797-0.10547c-2.4688 2.9961-4.9375 5.9922-8.9219 10.836 1.4336-7.9141 2.4219-13.375 3.4141-18.836l-1.5977-0.55078-5.4141 8.5078-1.7852-1.3242c4.043-5.7109 8.082-11.426 13.402-18.941-5.2109 2.4062-8.7109 4.0234-13.312 6.1484 1.4453-10.207-2.5-20.727 8.7266-27.617-12.652 1.5078-14.203-0.29688-10.832-11.73 0.53516-1.8164 1.9258-3.3867 2.4297-5.2031 0.71875-2.5938 0.98828-5.3125 1.4492-7.9766l-0.007813-0.003907c-2.8477 0.75781-5.5547 1.9766-8.0195 3.6016-3.3555 3.4883-6.4688 7.1992-9.3281 11.109l-1.9297-1.125c0.34375-3.7812 0.55859-7.5859 1.0703-11.344 0.51562-3.7812 1.3281-7.5195 2.0078-11.277l-2.0195-0.58594c-1.3164 2.7773-2.6289 5.5547-4.3633 9.2148h0.003907c-0.37109-9.0195 3.9727-17.586 11.469-22.617-10.113-2.5391-11.43 5.6484-15.871 9.9023-5.8086-8.8867 2.4609-15.203 4.2031-23.02l-0.003907 0.003906c-1.3828 0.050781-2.7539 0.26172-4.0898 0.62891-5.5234 2.9375-8.4102 9.1953-7.0586 15.301-0.34766 2.4453-1.1016 4.8164-2.2344 7.0117l-1.9844-1.1758 1.4727-8.1719h0.003907c-2.8203-1.0352-5.3906-2.6562-7.5391-4.7578-0.035156-5.1484-3.7695-11.023 4.4688-15.051 2.3086-4.9844 3.2852-10.484 2.8359-15.961l-2.9023-0.80859c-3.3477 5.7891-6.6992 11.578-9.0469 15.637-2.6719-0.65234-5.0898-1.2422-8.2305-2.0078 2.2656-8.3477 4.6328-17.066 7.1875-26.48l-6.8438 2.8047-1.9258-1.5c4.3242-6.8203 8.6484-13.641 12.973-20.461h0.003906c-2.9883 1.3711-5.8281 3.043-8.4766 4.9883-1.5195 0.96484-3.3672 1.2617-5.1094 0.81641-1.4258-0.98828-2.2383-2.6484-2.1367-4.3789 1.8789-6.1602 4.1719-12.188 6.8594-18.043 2.3008-4.8398 5.9961-4.6211 10.223-1.6484 3.9883 2.8047 8.4961 4.8594 12.605 7.5039 3.0547 1.4141 5.7266 3.5469 7.7852 6.2109 3.9531 7.75 6.957 15.984 10.332 24.031 0.58594-4.4883 0.71875-9.0195 0.39453-13.531-0.19531-6.1914 0.17969-12.387 1.1289-18.508 1.2461-6.0312 4.5-11.465 9.2305-15.406 4.7344-3.9414 10.664-6.1641 16.82-6.3008-5.9531-1.4219-12.223-0.51172-17.52 2.5508s-9.2148 8.043-10.953 13.91c-1.3203 2.2344-2.9961 4.2383-4.9688 5.9297-1.9453-1.6172-3.4961-3.6562-4.5352-5.9648-0.66797-5.3672-0.73438-10.789-0.20703-16.172 0.68359-4.1719 1.6914-8.2891 3.0078-12.305l-3.2031-0.57812c-1.8281 11.184-3.6562 22.344-5.4766 33.488v-0.003906c-4.7109-1.0586-9.0156-3.457-12.395-6.9062-3.3828-3.4453-5.6953-7.7969-6.6641-12.527 1.8906 1.9805 4.1172 4.3164 6.3477 6.6523-9.3906-18.332-6.7617-15.992-4.4805-25.16-11.469-5.9023-2.9336-16.922-6.2578-25.664l-6.5859 7.3047c1.5391 0.375 2.957 1.1289 4.1289 2.1914 1.2695 8.0781-1.6406 16.246-7.7305 21.703l7.8555-1.0938c1.1289 7.0703 2.4102 13.762 3.1289 20.512v0.003906c0.058594 2.0117-0.78516 3.9453-2.3008 5.2695-7.0859 5.4453-11.008 14.055-10.465 22.973-0.55469 3.3398-1.5352 6.5938-2.9062 9.6875l-4.0039-0.28906v0.003906c-1.6094-5.6914-2.0273-11.656-1.2227-17.516 1.8477-5.1016 2.5195-10.555 1.9648-15.953 0.41406-2.832 1.1172-5.6133 2.0977-8.3047 1.3867-3.4727 1.6953-7.2812 0.88672-10.93-3.5-4.1719-5.5039-6.7695 0.046875-10.27-4.6484-6.918 3.8086-10.203 4.3516-15.68-4.957 4.3008-9.9141 8.6016-15.328 13.297-2.9297-9.2227 10.074-12.02 8.8516-20.422l-5.6562 0.67578v-0.003906c3.8086-6.6758 8.4531-12.844 13.82-18.352 5.8555-3.3594 12.191-5.8086 18.785-7.2578l-0.73047-3.3047h-0.003906c-3.4805 0.39062-6.9297 1.0195-10.324 1.8828-3.8398 1.4336-7.5977 3.0742-11.262 4.9141l-2.5352-8.8438c3.375-0.64062 6.3789-1.2109 9.3828-1.7812l0.66406-2.3281c-5.8047-2.9453-11.613-5.8906-17.418-8.8359 4.0586-6.8711 10.879-1.0195 17.066 0.007812l0.91797-2.7812c-6.0703-2.7383-12.141-5.4766-18.949-8.5469 3.2773-8.7344 11.789-1.4922 17.441-6.1602-4.9219-1.1992-9.8398-2.3945-15.766-3.8398h0.007812c0.78516-2.6484 2.0664-5.1289 3.7734-7.3047 6.7305 0.875 13.414 2.0977 20.02 3.6641-1.832-8.3086-10.449-8.8711-17.121-12.238l6.582-11.633c0.77344 3.0312 1.3164 5.1719 2.0234 7.9297 7.6953-8.3906 13.02-0.39844 19.047 2.2266l1.5938-1.7188c-3.7812-4.3438-7.5664-8.6836-11.348-13.027l1.5156-2.3555c5.332 3 10.66 5.9961 18.16 10.215-3.7773-6.5195-6.2383-10.77-9.4648-16.34 8.7539 1.1445 12.684 11.191 20.121 6.0742-0.54297-4.2109-1.0078-7.7539-1.4492-11.297-0.19531-1.5703-0.33203-3.1445-0.49609-4.7188h-0.003907c-1.5625 0.78125-3.0703 1.6758-4.5039 2.6797-2.0469 1.6406-3.8906 3.5312-5.8203 5.3164l-5.0391-5.6133c-2.4492 2.582-5.0547 5.3281-7.6602 8.0742l-1.6914-1.6016c3.2539-15.273 18.348-18.719 37.836-12.086l0.003906 0.003906c-2.5742 3.3828-4.9414 6.918-7.082 10.586-1.5781 1.7227-2.2812 4.0742-1.9023 6.3789 0.37891 2.3008 1.793 4.3047 3.8398 5.4336 6.9961-14.016 16.559-26.59 28.199-37.07 5.8555-6.2148 13.438-10.531 21.77-12.395 8.332-1.8594 17.031-1.1797 24.973 1.9492 3.957 1.918 7.7383 4.1758 11.297 6.7578-3.543 5.2031-6.2188 9.1328-7.7031 11.316l8.0859 8.2188c6.1836-18.016 21.512-25.328 36.469-17.137-10.598 10.469-13.188 18.465-7.5039 24.41 0.070312-2.1367-0.003907-3.9922 0.21094-5.8164 1.1875-10.199 10.75-21.07 17.73-18.789l-0.003906-0.003906c11.488 2.8047 21.672 9.4531 28.855 18.848-12.805 12.523-15.203 21.121-8.25 26.012v-0.003906c1.4961-5.0586 3.4492-9.9727 5.832-14.676 1.0391-2.0664 3.1797-3.3438 5.4883-3.2812 2.3125 0.0625 4.3789 1.4531 5.3008 3.5742 1.3164 6.0078 1.7383 12.215 2.6406 19.062-1.8477-0.26172-3.7266-0.17969-5.543 0.24609-2.5547 1.6094-4.9961 3.3906-7.3164 5.3281 2.3984 0.98047 4.8047 1.9375 7.1953 2.9414 5.3945 1.5039 10.543 3.7773 15.289 6.7461 9.4219 8.6836 14.297 21.238 13.195 34.004 0.027343 13.613-10.871 20.699-17.715 29.039v0.003907c-3.7422 2.6875-4.6055 7.8984-1.9258 11.645l-5.9727 3.6016c17.492 2.2812 17.492 2.2812 20.91 8.6758 2.0312-1.6758 4.0547-3.3594 5.8711-4.8633h-0.003906c8.0234 4.4609 14.094 11.758 17.02 20.457 2.9219 8.7031 2.4883 18.184-1.2148 26.586-6.375 14.57-9 15.293-20.984 4.9727v-0.003907c-1.2852-0.35156-2.6094-0.54297-3.9414-0.57031 1.6211 3.3008 2.7773 5.3516 3.6523 7.5156 0.96875 2.4023 1.6797 4.9102 2.5039 7.3711l-1.2734 0.49219-4.043-5.9883-2.4766 0.12109v0.003906c-0.5625 2.6328-0.55469 5.3555 0.03125 7.9844 1.8594 2.4297 4.1328 4.5195 6.7148 6.1641-0.55469 1.707-1.2617 3.8945-2.7188 8.3828 9.9141-4.1055 19.09-8.9766 23.898 3.5586l-0.13281-0.14063c5.1445 6.918 7 15.742 5.0742 24.145-0.60156 4.3828-1.8711 8.6445-3.7656 12.641-3.5859-1.6016-7.1992-3.1523-10.727-4.8711-0.46875-0.54688-0.78125-1.2109-0.90625-1.9219 3.5938-1.1836 6.957-2.2891 9.9336-3.2695-7.1094-4.1328-13.738-7.9844-19.738-11.473-2.6523 7.2969-5.3984 14.836-8.1406 22.375l1.3633 0.67578c2.5547-5.0625 5.1094-10.125 8.3633-16.57 2.8164 6.6602 5.1797 12.238 7.8086 18.453-4.5625 4.3008-2.9844 7.8555 2.2617 11.891h-0.003906c3.25 2.543 5.2812 6.332 5.6016 10.441 0.32031 4.1133-1.1016 8.168-3.918 11.184-3.4023-4.1719-6.6602-8.1602-9.8398-12.059-4.3828 9.3984-1.8984 12.699 12.75 16.742-1.8828 7.6953-4.7344 8.8359-9.7852 3.2578-2.957-3.8555-5.582-7.9492-7.8555-12.246-4.1562 9.25-2.4727 11.855 14.023 21.984-1.9414 2.1953-3.7969 4.293-5.6523 6.3867-4.5273-5.0664-9.0547-10.133-14.973-16.758l-0.003906 0.003906c-0.39062 2.9609-0.26172 5.9688 0.38281 8.8828 2.418 4.4219 1.5156 9.9219-2.1875 13.34-5.7656 6.7773-4.7773 10.422 3.5586 14.418 4.5859 2.1992 5.1367 4.793 2.1016 10.922-4.8164-4.6719-8.8594-8.5938-12.902-12.516-1.6016 2.0586-1.8594 4.8633-0.66016 7.1836 3.4023 3.0859 7.2031 5.7109 11.293 7.8086 5.5117 2.9688 3.2969 7.1211 1.3711 10.367-2.1797 1.2852-4.8555 1.4102-7.1484 0.33594-2.918-2.2539-5.543-4.8672-7.8164-7.7734-4.0273 7.5078-2.5977 9.3555 10.918 14.562-4.4258 5.8242-4.4258 5.8242-17.633-6.0977v0.003906c0.027344 3.2227 0.94531 6.375 2.6484 9.1094 4.1523 5.9648 4.3594 5.8242 2.7812 7.8594-4.3398-2.543-8.5117-4.9883-12.688-7.4336 0.32422 4.0664 0.64453 8.1289 0.83984 10.617l0.003906-0.003906c-3.5117 2.3945-6.3867 5.6094-8.3828 9.3633 0.48047 4.3789 1.9258 8.6016 4.2344 12.355-3.0781 0.375-6.1641-0.60547-8.4648-2.6875-1.7734-2.7656-3.168-5.7617-4.1367-8.9023-3.3242 8.2383-3.3242 8.2383 7.6094 16.918-7.5547 9.9922-14.809 6.5469-22.965-12.449-1.4062 2.543-2.1992 5.375-2.3164 8.2812 3.1719 5.3711 6.6289 10.57 10.355 15.57-0.74219 0.65234-1.6094 1.1367-2.5508 1.4297-5.8984-5.6641-11.574-11.566-18.742-18.902 0.91406 4.1367 2.2031 8.1797 3.8555 12.078 2.5 3.9102 5.293 7.6289 8.3516 11.121-5.4023-0.46875-10.535-2.5469-14.746-5.9609-4.207-3.418-7.2969-8.0156-8.8672-13.203-0.41797 3.7617 0.24219 7.5703 1.9062 10.973 1.9922 3.418 4.2109 6.6953 6.6445 9.8164-11.289-1.0391-14.074-3.6094-14.09-13.75-0.011719-9.3281 0.63672-18.66 0.66406-27.988 0.082032-27.422 0.29297-54.844-0.11328-82.262-0.32812-22.234-1.043-44.484-2.3945-66.68-1.3477-22.109-4.6328-44.125-5.3984-66.238-1.0273-29.812-0.54297-59.68-0.38281-89.523h0.003906c0.93359-2.8516 2.4531-5.4844 4.457-7.7188-8.8711-5.7188 4.5742-7.293 4.3555-11.047-4.4219-0.023438-8.832-0.42969-13.18-1.2227-1.2227-1.8906-1.6875-4.1719-1.2969-6.3906 4.7109-2.3867 9.5703-4.4648 14.551-6.2227-7.2188-0.61328-13.164-1.1172-21.078-1.7891-0.98828 3.7734-1.1016 7.7227-0.32812 11.543 5.5859 13.758 7.832 28.645 6.5664 43.438 0.085937 15.602-1.2812 31.203-1.5859 46.816-0.58984 30.191-0.90234 60.391-1.2812 90.59-0.35938 28.938-0.23828 57.891-1.1094 86.809-0.74609 24.73-2.668 49.422-3.9375 74.141-0.71875 13.953-1.1719 27.918-1.7383 41.875-0.60938 14.906-1.2148 29.812-1.8203 44.715-3.0508-0.92188-5.7383-2.7852-7.668-5.3242-6.8047-8.9297-13.57-17.891-20.207-26.945-16.203-22.113-32.488-44.168-48.426-66.469-10.852-15.184-20.512-31.25-31.887-46.012-17.227-22.355-35.734-43.719-53.164-65.93-5.875-8.4141-11.285-17.145-16.207-26.152-2.1445-0.019531-4.2891 0.16797-6.4023 0.55859-23.5 5.2148-46.777 11.805-70.508 15.523-22.723 3.5586-45.895 4.3633-68.895 6.0234-13.883 1.3906-27.844 1.9023-41.793 1.5352-4.5234-1.0391-9.0859 1.5859-10.461 6.0195-4.2344 8.8906-8.3086 17.922-13.355 26.348-11.691 19.512-23.223 39.18-36.145 57.867-11.59 17.23-24.406 33.609-38.34 49.008-18.473 19.875-38.699 38.129-58.391 56.848-10.727 10.199-21.383 20.602-33.008 29.711-18.559 14.543-38.078 27.848-56.844 42.133-15.41 11.52-32.371 20.805-50.375 27.586-4.1875 1.625-8.4102 3.1523-14.977 5.6055 4.4219-6.0938 8.4297-12.473 12.004-19.102 2.0938-3.9688 2.0508-8.7266-0.12109-12.656-2.1719-3.9258-6.1758-6.4961-10.652-6.832-7.3945-1.7188-15.137-1.0977-22.164 1.7734-2.6562 1.4102-4.3984 4.0938-4.6094 7.0938 1.0547 6.1328 3.25 12.016 6.4766 17.34 3.8516 3.6641 5.3047 9.1914 3.7539 14.277-1.5508 5.0859-5.8398 8.8594-11.086 9.75-4.1484 1.4062-8.5508 2.0898-12.668 3.5742h0.003907c-2.0859 1.0547-4.0312 2.3672-5.7891 3.9102 2.0938 1.3789 4.4766 2.25 6.9688 2.5469 5.3633-1.0039 10.492-3.2031 15.781-4.6875 4.0117-1.1289 7.1367-0.625 7.125 4.7539-0.003906 2.4531 0.94531 4.9141 0.89844 7.3594-0.09375 4.8242-0.92578 9.8906 6.4531 9.5391v0.003906c2.9219 0.51172 5.8945-0.5625 7.8203-2.8203 1.9258-2.2539 2.5117-5.3633 1.5469-8.168-0.37109-3.5547-0.99219-7.082-1.3945-10.633-1.0234-4.7578 1.8633-9.4883 6.5664-10.746 13.352-5.0469 26.41-10.848 39.105-17.371 10.742-5.8242 20.145-14.074 30.617-20.469h-0.003906c3.6875-1.9766 7.957-2.582 12.047-1.707 12.801 2.9648 25.496 6.5117 38.008 10.527h0.003906c8.4102 3.9141 17.082 7.2422 25.957 9.9492 36.559 6.1133 69.957 23.762 107.18 27.84 22.184 2.4336 43.875 9.0938 65.891 13.34 24.406 4.707 48.879 9.1484 73.414 13.121 26.281 4.2578 52.719 7.5547 79.004 11.812 18.395 2.9805 36.617 6.9961 54.957 10.328 23.145 4.2031 46.348 8.0938 69.496 12.289l-0.007812 0.003906c15.516 3.918 28.965 13.574 37.633 27.023 14.742 18.781 27.992 38.781 43.43 56.941 2.5703 2.6406 4.375 5.9336 5.2188 9.5195 0.84375 3.5898 0.69531 7.3398-0.43359 10.848-0.25781 0.78516-0.375 1.6133-0.33984 2.4414 0.41016 3.125 0.95312 6.2383 1.4453 9.3516 3.375-0.027344 6.7109-0.76172 9.7852-2.1562 1.832-2.4297 2.6914-5.4609 2.4102-8.4922-0.54297-5.668-0.79297-11.363-0.74609-17.059 0.13672-11.895 5.2891-23.176 14.191-31.062 5.5078-3.7578 7.5312-10.922 4.8086-17.008-1.8594-4.2344-5.4492-7.4727-9.8555-8.8867-4.4062-1.4141-9.207-0.87109-13.188 1.4922-9.5508 6.6328-14.605 14.41-7.0625 23.93 5.8359 7.3594 2.9141 13.934 0.22656 22.91-5.0352-6.3945-9.1875-11.395-13.039-16.617-10.266-13.918-20.367-27.953-30.602-41.891h-0.003906c-2.9844-3.7539-2.8242-9.1133 0.38672-12.676 19.785-28.352 47.246-50.469 79.156-63.762 8.9414-4.668 19.094-6.5078 29.105-5.2695 25.469 6 50.289 14.812 75.219 22.957 2.6055 1.4844 4.3516 4.1133 4.707 7.0898 0.38672 6.2461-1.082 12.629-0.48047 18.828v-0.003906c1.5508 2.625 3.7617 4.7969 6.4141 6.2969 1.9023-1.6523 3.3438-3.7656 4.1875-6.1406-2.2969-13.387 1.1875-27.117 9.5938-37.785 2.3281-2.0742 3.6484-5.0508 3.6172-8.1641-0.03125-3.1172-1.4062-6.0703-3.7773-8.0938-4.4805-4.3906-10.207-7.293-16.398-8.3125-6.4688 0.90234-12.723 2.9414-18.473 6.0273 0.96875 0.078125 3.3672 0.27734 4.4609 0.37109 2.6758 7.7422 5.0625 14.656 7.543 21.836-3.1562-0.92578-6.793-1.8711-10.344-3.0586-10.855-3.6289-21.668-7.3789-32.516-11.027l-0.003907 0.003906c-8.9727-2.082-17.699-5.1211-26.023-9.0664-8.6367-5.8633-16.539-12.738-23.547-20.473-8.2227-8.2578-15.695-17.258-23.492-25.934l0.4375-3.9766c50.098-5.7227 95.938-25.57 143.85-41.242-0.23438 10.98-0.75 20.824-0.58203 30.656 0.26953 15.609 1.2148 31.207 1.4766 46.812 0.26562 15.879 0.54297 31.789-0.15625 47.645-0.36719 8.3633 1.0508 12.449 9.2031 12.809 10.441 0.46094 20.938-0.32812 31.703-0.58984 1.8203 3.4609 3.9531 7.5156 6.0859 11.566l3.6367-0.85938 0.003907-0.003906c-4.3086-14.914-5.1289-30.617-2.4062-45.898 0.45312 2.5234 1.1016 5.0078 1.9414 7.4258 1.0977 1.9609 2.3242 3.8438 3.6797 5.6367 1.832-1.3945 3.4688-3.0391 4.8516-4.8828 1.0117-2.3398 1.7422-4.7891 2.1875-7.2969 2.7227 8.0898 4.7812 16.387 6.1562 24.812 0.83594 2.8164 1.9297 5.5508 3.2617 8.1719 1.5078-2.4805 2.8516-5.0547 4.0312-7.707 1.4883-3.957 2.5234-8.082 4.457-14.469 2.6016 8.7109 4.418 14.797 6.2344 20.883l2.9883 0.29688c1.6602-2.3828 3.3281-4.7695 5-7.1602 5.6953 6.0859 7.9492 5.4844 10.578-2.0508 2.7656-7.9336 5.7852-15.781 8.6953-23.668l-0.003907 0.003906c1.4805 6.1641 2.3203 12.461 2.5117 18.797 0.79297 2.3398 2.0352 4.5 3.6523 6.3633 2.2227-1.293 4.25-2.8945 6.0234-4.7539 1.5391-2.6172 2.8008-5.3828 3.7578-8.2617l2.8125 0.64062c-0.65625 9.3164-1.3086 18.629-2.1055 29.973 7.9766-11.004 10.402-25.082 6.5703-38.125-2.2266-1.7539-5.0742-2.5234-7.8828-2.1367-2.4531 1.1328-4.6484 2.7656-6.4375 4.793 0.88281-11.184 1.6406-20.82 2.4023-30.461l-3.3984-0.59766c-6.5703 12.09-13.141 24.18-20.082 36.949-5.9883-7.1367-8.9648-1.8555-11.539 2.1445v-0.003907c-1.5781-4.1641-4.0547-7.9297-7.2539-11.027-3.9648 0.0625-7.8398 1.1719-11.238 3.2188-4.5352-8.1914 2.1406-22.59-11.957-29.574 0.46094-24.777 0.94141-50.629 1.4453-77.551 5.668 2.1602 9.5039 3.5469 13.281 5.0781 21.316 8.6367 42.375 17.973 63.992 25.77 19.035 6.8633 38.645 12.145 58.082 17.855 7.7656 1.3047 15.406 3.2695 22.84 5.8711 3.0742 1.7148 6.6055 2.4297 10.102 2.0508 3.5-0.37891 6.793-1.832 9.4336-4.1602-3.7656-3.418-7.8945-6.4102-12.312-8.9297zm-444.35-136.93c2.1172 3.3711 4.2305 6.7422 6.3477 10.113l-3.3359 1.9297c-2.0469-3.4961-4.0977-6.9922-6.1445-10.488zm-36.438-65.262 3.3828 0.15625c-0.23438 4.9922-0.46875 9.9883-0.70313 14.984l-3.3945-0.15625zm-52.73-107.22h0.003906c-1.4883-3.7109-1.7227-7.8086-0.66797-11.664 1.0547-3.8594 3.3359-7.2656 6.5039-9.7031-0.96875 7.2031-1.8789 13.605-2.6797 20.02-0.79297 6.375-1.4766 12.766-2.207 19.148l-2.5898-0.14453c0.37891-3.6641 0.76172-7.332 1.1289-10.996h0.007812c0.62891-2.1641 0.80078-4.4297 0.50391-6.6602zm-558.82 330.52c-2.4219-1.7383-4.668-3.7148-6.6992-5.8984 1.3672-2.1055 3.2852-3.8008 5.543-4.8984 2.6406 1.3906 4.9062 3.3945 6.6016 5.8477-1.5938 1.8789-3.4219 3.543-5.4453 4.9492zm711.55 132.61c1.5938 3.9922 3.1914 7.9844 4.7852 11.977-2.8398 0.11719-5.6836 0.23437-8.5234 0.34766-0.089844-3.8359-0.18359-7.6719-0.27734-11.504 1.3398-0.27344 2.6758-0.54688 4.0156-0.82031zm138.22-103.95c1.4531 2.9414 2.7266 5.9727 3.8086 9.0703-1.5195 0.63672-3.043 1.2734-4.5625 1.9141-1.3477-3.25-2.6953-6.5-4.0391-9.75 1.5352-0.62109 3.1484-1.0352 4.793-1.2344zm28.742-604.52-6.6797 20.902-2.5039-0.79688h-0.003907c-1.4609-3.8828-1.3125-8.1875 0.41016-11.961 1.7266-3.7773 4.8828-6.707 8.7773-8.1445zm-188.71 504.97c1.7539-8.3281 2.3086-16.863 1.6484-25.348 1.4219-34.539 2.8203-69.082 4.1992-103.62 0.74219-19.172 1.2344-38.352 2.0078-57.523h-0.003906c0.34766-3.2969 0.92187-6.5703 1.7188-9.7891l3.1562 0.35938 0.003906-0.003906c0.35547 1.582 0.35938 3.2227 0.011718 4.8047-2.8242 4.2344-2.9766 9.7109-0.39453 14.098 1.4023 6.5938 1.3945 13.406-0.023437 19.996-0.054688 1.9375-0.11328 3.8828 0.019531 5.8125 0.66016 1.9648 0.86719 4.0547 0.60547 6.1094-3.0781 6.2188-3.1367 13.5-0.16016 19.766 0.46094 4.6562-0.77344 9.3242-3.4805 13.145 1.3477 5.9766 2.8164 11.934 3.9336 17.953v-0.003907c0 1.3633-0.64453 2.6406-1.7344 3.457-6.2812 4.082-2.7695 6.9414 1.6016 10.125-2.6797 2.4688-4.375 5.8242-4.7773 9.4453-0.39844 3.6211 0.52734 7.2656 2.6094 10.258 1.0703 3.5039 1.1562 7.2305 0.24609 10.781-0.73438 7.0664-1.8711 14.09-3.1094 23.074 0.085938 0.11719 1.6133 2.2109 3.5117 4.8203-2.6641 1.5625-4.8281 2.832-7.4336 4.3594 3.0508 5.1211 9.0547 10.227 0.38672 14.371 2.1289 8.8945 4.1055 17.152 6.082 25.414l-2.3438 0.66406c-4.0312-6.8867-12.316-11.113-8.2812-22.52zm-43.719-35.059c1.8828 2.5742 2.4727 5.8711 1.5938 8.9375-1.2461 1.6758-3.2266 2.6484-5.3203 2.6133-2.0898-0.039063-4.0352-1.082-5.2227-2.8047-0.63281-0.51172-1.3281-0.94531-2.0664-1.2891-0.47656 2.5391-0.95312 5.0742-1.4297 7.6094-2.5469-0.12109-5.0234-0.88672-7.1953-2.2188-4.9883-6.6836-9.2773-13.895-13.906-21.035 4.1445-4.3984 7.8281-5.4609 11.359 0.83984h0.003906c1.2422 1.3672 2.7422 2.4805 4.418 3.2656-1.1523-2.6836-2.3047-5.3672-3.6562-8.5117 2.6367-1.2031 5-2.2773 7.7852-3.543 4.6836 5.4297 9.6172 10.457 13.637 16.137zm-48.078-26.227c1.6758-0.73828 3.2734-1.5039 4.9219-2.1523 1.7422-0.68359 3.5273-1.2539 5.8828-2.082 1.6133 2.5469 3.2344 4.9375 4.6797 7.4297 1.4531 2.5078 2.7344 5.1172 4.0898 7.6797-9.5508 4.9688-11.41 3.9102-19.574-10.871zm23.523-4.9688v0.003906c2.8906 3.4102 5.4492 7.0898 7.6445 10.984l-1.1875 2.4258c-2.6836 0.11328-5.3555-0.46875-7.75-1.6914-2.3672-3.4766-4.3125-7.2227-5.7969-11.16 2.2734-0.8125 4.7188-1.0039 7.0898-0.55859zm-43.629-54.98c0.64453 2.082 0.76562 4.2891 0.35156 6.4258l-2.2539 0.49219c-2.2266-3.0703-4.4531-6.1445-6.6797-9.2148l1.9492-2.3242c2.4531 1.1602 4.6953 2.7227 6.6328 4.6211zm-19.629-33.484c5.082 5.7188 9.7891 11.762 14.086 18.09-0.082031 1.9883-1.0898 3.8242-2.7227 4.9648-1.8438 0.48438-3.8086-0.046875-5.1602-1.3906-1.2305-2.7461-2.1406-5.6289-2.707-8.5859-3.9102-3.6953-7.5508-7.1328-11.191-10.57l0.80078-2.5078v-0.003906c2.2578-0.61328 4.6367-0.60938 6.8945 0.003906zm-29.973-32.852c-10.039 5.5156-12.406 3.8281-15.941-10.789 8.293-4.0156 12.535-1.2539 15.941 10.789zm-212.19 9.8711 2.543-0.50391c2.6289 10.07 5.2578 20.141 8.4766 32.461h-0.003906c-4.3477-6.375-8.2305-13.059-11.609-20-0.60547-3.9844-0.40625-8.0508 0.59375-11.957zm4.5508 48.996 2.875 4.3516c0.67188-2.5625 1.1094-4.2344 1.5469-5.9102l1.3359-0.21484 4.2383 18.066-2.332 0.61719c-0.71484-2.9375-1.4258-5.8789-2.1406-8.8125-8.2031 1.9141-5.0312-4.4414-5.5234-8.0977zm-5.5234-28.629c2.9688 7.3516 5.1719 12.801 8.2812 20.496l-11.613-7.5c0.91797-3.5898 1.8789-7.3359 3.332-12.996zm-2.2734 28.445c2.3711 8.0312 6.375 15.488 11.762 21.902 2.8477 4.1641 4.8867 8.8281 6.0039 13.75 0.73438-4.1875 1.7539-9.9883 2.7695-15.789l1.3438 0.63281c16.648 57.863 33.297 115.73 49.582 172.34-0.20312-0.17188-1.8125-1.5352-3.4453-2.9219v-0.003906c-3.0156-10.367-7.668-20.188-13.773-29.09l-2.2539 0.88672c1.1367 5.8945 2.2695 11.793 3.4023 17.688l-1.9141 1.0234c-5.3086-10.211-10.523-20.477-16-30.598v-0.003906c-1.5938-2.4766-3.4023-4.8164-5.4062-6.9805-0.58594 10.086-1.1719 20.168-1.7578 30.254l-1.332 0.57031c-5.0117-9.1953-10.023-18.391-15.473-28.387-0.35156 8.5273-0.64062 15.617-0.93359 22.707l-1.4727 0.61719c-2.2305-4.1797-4.3828-8.4023-6.7109-12.527-6.2891-11.137-12.625-22.254-19.008-33.34-2.3711-4.1211-5.3828-6.2227-10.082-2.0781v-0.003906c-0.5-1.9766-1.4805-3.7969-2.8516-5.3086-6.9531-3.4102-5.1914-8.3867-3.3867-13.848 6.6875-20.25 13.594-40.441 19.621-60.891 2.918-9.8984 4.0742-20.32 6.0273-30.504l2.4492 0.10938c-0.26953 3.6914-0.62109 7.3789-0.77734 11.074v0.003906c-0.26172 1.8789-0.125 3.7891 0.40234 5.6133 4.3086 10.055 8.8047 20.031 13.418 29.953 0.89062 0.90625 1.9844 1.582 3.1953 1.9727l0.09375-0.078126-10.629-27.16 0.88672-0.41797c5.9492 9.6328 11.898 19.266 18.156 29.402 7.4492-9.8125 7.4102-9.7148-1.5039-13.617v0.007812c-1.957-0.76953-3.5938-2.1836-4.6406-4.0039-5.1055-11.746-9.8789-23.633-14.789-35.465-1.5312-3.6875-3.1523-7.332-4.7344-10.996l1.9219-0.90625c0.62109 1.4688 1.2852 2.918 1.8398 4.4062zm28.094 194.52-2.6172 0.80078c-3.4414-7.375-6.8828-14.75-10.324-22.125l2.0742-1.0117 4.1484 2.2266-3.875-10.484 1.8086-0.85156c2.9805 5.8477 6.0547 11.648 8.8164 17.598l0.007812-0.003906c-0.31641 1.2227-0.94141 2.3398-1.8125 3.2539 0.58984 3.5312 1.1797 7.0625 1.7734 10.598zm-42.965 4.5352c-4.8008-7.8984-9.6016-15.797-14.398-23.695l2.9453-1.6914c4.5039 8.0742 9.0078 16.152 13.512 24.227zm1.7305 13.023-3.4453 1.8867c-4.793-8.4922-9.5898-16.988-14.383-25.48l3.0391-1.6758zm-14.027-61.266c-1.7578-2.7695-3.3438-5.6758-5.3516-8.25-1.2812-1.2422-2.7344-2.293-4.3125-3.1289-0.47656 1.3398-1.1406 2.6016-1.9727 3.75-8.8867 9.125 3.7305 12.953 4.9141 19.613v0.003906c1.0273 2.9531 2.5156 5.7227 4.4023 8.2148l-2.2695 1.5352-14.223-20.297c-4.2461 11.434 10.039 15.281 5.9219 25.488-3.2266-4.5703-6.457-9.1406-9.75-13.801-2.6719 4.5625-2.6289 4.5312 1.7773 10.809 2.3281 3.3125 4.4805 6.75 6.7109 10.133l-2.6406 1.4844c-3.2031-5.1211-6.4062-10.238-10.227-16.34-3.9688 6.4336-7.2266 11.715-10.484 16.996l-1.9766 0.19141 0.007813-0.003906c-0.67578-2.1367-0.79297-4.4102-0.33594-6.6055 12.355-19.129 22.215-39.762 29.332-61.395 0.58203-1.0938 1.2422-2.1445 1.9688-3.1484 1.9219 2.5781 3.5039 4.7031 6.0586 8.1328l-7.9102-0.52344c4.7344 9.0469 9.0391 17.281 13.348 25.516zm5.0625 1.5469c2.7812 3.5977 5.5625 7.1992 8.3438 10.797l1.7461-0.94531c-5.6211-10.887-11.242-21.777-16.863-32.664l3.2617-1.3398h0.003907c14.629 22.777 27.738 46.5 39.234 71.008l-3.2695 1.8945c-2.4492-3.6055-4.8984-7.2148-7.3477-10.82l-2.0898 1.2461c5.6328 8.8594 11.262 17.715 16.891 26.574l-2.2891 1.3281c-17.172-19.422-25.82-44.109-40.289-65.203zm5.2891-21.305c7.4062 6.6211 12.461 15.469 14.402 25.211-2.0352-2.0938-3.8789-4.3633-5.5195-6.7812-3.4844-5.875-6.457-12.043-8.8828-18.43zm14.773 25.809c4.4023 2.6328 7.8203 6.6328 9.7383 11.391 1.9141 4.7578 2.2227 10.012 0.87109 14.961-3.5391-8.7812-7.0742-17.566-10.609-26.352zm17.102 47.73 2.6484-1.7695c4.2734 6.6914 8.5508 13.387 12.828 20.078l-1.5156 0.98828c-4.6562-6.4297-9.3086-12.863-13.961-19.297zm-102.23-131.35c-8.7266 16.656-8.7266 16.656-21.68 11.402 5.4375-14.137 12.75-18.184 21.676-11.402zm-47.863 34.895c-0.88281 10.945-5.043 14.492-12.664 10.59 4.4688-3.7305 8.0234-6.7031 12.664-10.586zm-32.617 27.961c3.4766 1.8164 6.6914 3.4961 9.918 5.1836-6.0312 10.086-9.5898 11.113-18.688 4.6719 3.1523-3.5391 5.8359-6.5547 8.7695-9.8555zm-9.9961 18.461c-3.0156 6.0117-10.23 8.5781-16.359 5.8164 5.5-8.1992 10.5-10.086 16.359-5.8164zm75.461 55.5c-15.703-3.7852-31.367-7.7695-46.879-12.27-6.2266-1.8047-11.863-5.5664-18.051-7.5625-12.473-4.0234-25.152-7.4141-37.723-11.145-3.332-0.98828-6.5781-2.2734-12.289-4.2695 8.3789-4.1211 12.496-11.609 23.262-8.8242l-7.5859 7.0781 0.90234 2.2344-0.003906 0.003906c2.7422-0.98438 5.4062-2.1797 7.9648-3.5703 5.3828-3.4258 9.5742-3.8242 11.445 3.0977 4.2656-1.0859 8.3516-2.125 13.516-3.4375-8.3398-2.6211-6.1602-8.6172-2.3281-10.996 8.3359-5.168 9.957-16 20.777-20.426-4.8672-3.0664-8.4023-5.293-11.988-7.5547 3.9883-8.9492 7.1719-9.6133 20.785-3.5195 6.6328-7.3555 9.6055-23.172 25.727-13.617-3.2422-2.9414-6.4844-5.8828-10.773-9.7773l-4.75 0.42969-1.0664-2.1016c5.1484-4.6797 10.297-9.3594 15.621-14.199 5.0156 1.5156 10.969 3.3164 19.559 5.9141 0.73438-1.2031 2.7266-4.3086 4.5664-7.5078 3.6484-6.3398 4.7344-15.031 15.426-15.598-2.2461-3.168-1.5195-8.5039-7.9805-6.2109v0.007812c-1.8086-0.16016-3.4492-1.1133-4.4805-2.6055 0.058593-1.5117 0.72656-2.9336 1.8516-3.9414 3.8398-3.5195 7.9219-6.7773 12.91-10.977l15.203 3.6758 0.82813-2.6133c-4.457-2.2031-8.9141-4.4062-14.555-7.1953 3.8359-5.7266 7.2344-10.801 12.305-18.371 2.1484 6.1602 3.4844 9.9961 4.5898 13.168 2.9297-2.2148 6.4688-4.8906 8.0781-6.1055 1.9141-7.2461 3.4258-12.961 4.9219-18.637h0.003907c-1.375 2.0234-2.8594 3.9688-4.4492 5.8281-2.2305 2.4102-4.75 4.5547-7.1484 6.8125l-2.7266-2.5742c8.4766-12.086 16.957-24.172 26.391-37.617 1.582 3.9102 2.4062 5.9531 3.293 8.1406 2.8164-2.4805 5.5352-4.8711 8.6953-7.6562-1.9297-2.293-3.9336-4.6719-5.9375-7.0508l-2.457 0.70703c1.6328-3.2422 3.2617-6.4805 4.8867-9.707 3.3672 0.29688 6.2266 0.55078 9.0898 0.80469l1.707-2.3008c-2.4023-1.0469-4.8086-2.0898-8.0039-3.4766 5.168-9.3398 9.668-17.473 14.168-25.605l2.082 0.62891c-1.6367 13.344-2.9883 26.734-4.9922 40.023-1.793 11.887-4.7383 23.605-6.4258 35.504v-0.003906c-6.168 36.477-16.988 72.008-32.195 105.73-5.3789 14.652-11.566 28.992-18.539 42.957-9.1133 15.309-19.039 30.117-29.738 44.367-2.0625 1.7695-4.832 2.4766-7.4883 1.9102zm26.918-8.8281-1.9102 4.9023c-5.7734-5.1016-0.85547-7.793 1.9414-12.59 2.4375 4.2969 4.2812 7.5469 6.1133 10.777-1.9961-1.0078-3.9883-2.0078-6.1445-3.0898zm6.6406 3.7227c4.9102 5.0898 9.7305 10.262 14.773 15.211 1.8281 1.793 4.5508 4.4805 5-1.1406l-16.922-16.918 2.543-2.3555c4.8477 6.3672 9.6953 12.738 14.547 19.109v-0.007813c7.8672-0.49609 15.59 2.2969 21.324 7.7109-8.332 2.0898-17.141 1.0391-24.75-2.9453s-13.488-10.629-16.516-18.668zm39.832-4.5273c5.5742 8.1719 10.422 15.996 16.031 23.23 3.0938 3.9922 5.4375 10.805 13.395 5.832l-0.003906-0.003906c5.8633 0.33984 11.309 3.1406 14.996 7.707-20.758 1.4531-49.09-21.117-44.422-36.766zm61.789 39.906-0.003906-0.003906c-3.3984-0.40234-6.6914-1.4414-9.707-3.0625-20.852-20.023-37.602-43.914-49.312-70.344-0.17969-1.7969 0.70312-3.5312 2.2617-4.4453 6.6914 11.371 13.047 22.957 20.172 34.047 7.3789 11.484 15.316 22.625 23.473 33.566v0.003907c2.3516 1.7852 5.0703 3.0273 7.9609 3.6328l1.5742-2.0234 4.3047 6.7266zm8.4883-10.918-18.176-26.023 1.5391-1.0586c6.1914 8.5781 12.383 17.156 18.574 25.734zm0.74219-9.6094c-3.8594-6.3242-7.7188-12.648-11.578-18.973l3.5078-2.0938c3.8242 6.3477 7.6484 12.699 11.473 19.047zm5.1719 14.586c4.2461 3.1562 7.7227 5.7422 11.664 8.6719-8.7773 1.8828-10.973 0.19531-11.668-8.6758zm15.906-10.223c-8.7188-17.676-27.207-29.449-31.09-50.051l2.0273-1.2461c10.281 16.762 20.566 33.527 30.852 50.289zm-28.051-67.391c10.562 19.777 27.227 36.195 32.289 58.875-12.316-18.855-31.605-33.883-32.293-58.879zm33.648 90.887c-0.14062-5.8086-0.24219-10.164-0.38281-15.961 6.2305 5.3008 6.2461 6.8438 0.37891 15.957zm21.637-5.1406-0.003906-0.007812c-6.4805-5.3945-10.668-13.059-11.703-21.43-1.7539-6.5664-4.9023-12.676-9.2305-17.918-3.7773-7.1016-7.4219-14.277-11.125-21.418l1.9844-1.1797c2.4844 3.0859 4.9727 6.1719 7.457 9.2578l-0.011719-0.007813c2.5117 4.1992 4.9102 8.4727 7.5781 12.57l0.003906-0.003906c1.8125 1.9922 3.4844 4.1133 5.0039 6.3398 5.6523 12.395 11.031 24.914 16.438 37.418v0.003906c0.57031 1.7344 1.0195 3.5078 1.3398 5.3047-3.0781-3.5312-5.6172-6.0781-7.7305-8.9375zm204.65 42.387c-23.16-4.1484-46.352-8.1133-69.504-12.285-26.965-4.8594-53.891-9.9336-80.859-14.773v-0.011719c-9.8086-0.75391-19.516-2.4766-28.984-5.1367-6.5352-3.1523-11.738-8.5234-14.688-15.148-11.492-26.016-23.258-52.082-32.109-79.051-11.586-35.316-20.723-71.453-30.523-107.34-6.418-23.512-12.242-47.184-18.137-70.836-3.5938-14.422-6.8086-28.938-10.191-43.41l1.9258-1.1172c66.266 78.008 132.53 156.01 199.56 234.93-17.535 0.98438-35.688-14.113-30.883-26.996-11.633 0.27734-22.352 0.36719-33.043 0.89062v0.003906c-3.457 0.45313-6.8672 1.2109-10.191 2.2656 3.4531 1.082 6.8555 2.4258 10.383 3.1562v-0.003907c2.1797 0.38281 4.4219 0.30078 6.5703-0.24609 6.4766-1.6992 13.355-0.89063 19.262 2.2656 5.9023 3.1523 10.398 8.4219 12.586 14.754l-2.6055 3.4961c8.0547 4.9531 15.613 9.6016 24.801 15.25-0.89844-3.7656-1.4062-5.8945-1.9414-8.1445 3.3711-5.375 14.41 2.2617 24.75 18.051-5.0859-0.99219-9.2109-2.1406-13.402-2.5156h0.003906c-4.2617-0.38281-8.5586 0.22656-12.547 1.7852 1.3633 0.73828 2.7969 1.3398 4.2812 1.8008 3.4648 0.88672 7.0039 1.4727 10.57 1.7617 6.875-0.089844 13.617 1.9062 19.336 5.7266 5.7148 3.8203 10.141 9.2852 12.691 15.672-5.4102 0.12891-11.301 0.26953-17.195 0.41406l-1.0469 2.793c6.1758 0.027344 12.164 2.1055 17.031 5.9062 4.8633 3.8047 8.3281 9.1133 9.8438 15.098-8.3164-2.1484-15.227-3.9336-22.234-5.7461 3.2734 5.0312 7.0195 10.797 11.855 18.227-6.5938-1.0625-11.496-2.2188-16.441-2.4922-2.6562 0.27344-5.2539 0.96094-7.6992 2.0391 2.0742 1.1914 4.2578 2.1797 6.5234 2.9531 10.375 0.64062 20.512 3.3633 29.812 8.0039 5.7148 1.9805 11.902 2.1484 17.719 0.48047 14.09-1.7695 20.348 6.7227 27.754 20.629-4.9258-1.1836-8.9414-2.3633-13.039-3.0977zm-25.223-40.656c-4.9648-5.1914-9.9258-10.383-14.891-15.574l2.5078-2.6445c4.7852 5.4297 9.5664 10.859 14.348 16.289zm4.3594 8.7266 3.1016-3.4336c3.6016 4.0391 6.9531 7.8008 10.469 11.746h0.003906c-7.1719 1.5703-14.641 1.043-21.52-1.5195-6.8789-2.5625-12.875-7.0547-17.266-12.938 8.8438 2.1562 16.172 3.9414 25.211 6.1445zm152.33-44.465c-3.2266 2.9219-6.2852 8.0352-11.84-0.96094l11.344-2.2266zm-12.5-13.898h-0.003906c2.1172 1.7383 4.3672 3.3008 6.7344 4.6758l-1.3047 3.082c-4.1484-0.17188-8.2969-0.33984-11.762-0.48438-3.5391 3.0586-7.4414 5.6641-11.625 7.7578-3.4648-1.2344-6.6016-3.2422-9.1797-5.8672 7.5312-2.793 13.027-4.832 18.523-6.8711l-1.1445-3.5c-8.6328 2.6094-17.27 5.2188-26.031 7.8633 6.4648 5.8125 12.121 10.895 17.816 16.016 5.6641-7.957 11.363-9.0156 17.871-3.1328-2.1797 2.0039-4.3203 3.9688-6.457 5.9336l0.57422 1.7188c7.6094-2.8281 15.219-5.6562 23.766-8.832 1.7305 1.5781 5.293 4.8242 9.3867 8.5586-44.965 16.758-85.355 39.418-109.66 81.91-106.48-126.04-212.43-251.46-319.32-378 6.4258-1.0117 12.156-2.2422 17.957-2.7773 32.273-2.9688 64.648-5.0703 96.812-8.918 16.758-2.0039 33.137-7.0977 49.742-10.523l-0.007812 0.003906c4.25-0.60547 8.5391-0.92969 12.832-0.96875l0.28906 2.2891c-5.2344 2.7266-10.473 5.4531-15.707 8.1797 3.0781-0.33984 6.1875-0.51953 9.2188-1.1016 11.109-2.1445 12.387-1.5352 18.965 11.68l-11.387-1.0156c-2.4883 2.1367-5.8828 5.0508-9.4883 8.1484-0.19922-0.42578 0.11328 0.44922 0.21094 0.42578h-0.003906c4.0898-1.0391 8.4297-0.35156 11.996 1.9023 3.5664 2.2578 6.0469 5.8789 6.8594 10.02 4.1328 8.7773 9.3555 16.996 15.547 24.465-2.5781-5.5547-5.1523-11.102-7.7266-16.645 11.039-5.2461 13.289-4.8125 20.184 3.6562 3.5938 4.418 7.2148 8.8164 11.469 14.004-5.1953 2.3008-9.5391 4.2266-12.273 5.4336l12.887 11.52-0.98828 2.5039c-5.3438 1.3789-10.691 2.7617-18.102 4.6719l7.0352 6.6758v0.003907c2.3828-5.9492 8.7969-9.2109 15.008-7.6328 1.9492 2.6562 3.3164 5.6953 4.0078 8.9141-4.625 1.1758-9.2148 2.5781-13.906 3.3477h0.003906c-1.4297-0.70703-2.6445-1.7812-3.5234-3.1055 1.8438 4.1406 3.6875 8.2812 4.5547 10.219 5.6055-2.7891 11.59-4.75 17.758-5.8203 2.7773 3.0859 4.8125 6.7656 5.9531 10.754-4.6523 2.3984-9.3008 4.8008-16.195 8.3594 2.4766 0.30078 4.9727 0.35547 7.457 0.16016 2.8789-0.59375 5.5742-2.1172 8.457-2.6719 3.4414-0.66406 7.918 3 10.137-2.5742v-0.003906c4.293 2.5703 8.3242 5.5469 12.051 8.8828 0.66797 2.6367 0.61719 5.4023-0.14844 8.0117-2.9688-0.15625-5.9336-0.3125-8.6133-0.45312l-6.1328 9.2227c4.6953-1.543 9.7188-3.3594 14.844-4.8281l-0.003906 0.003906c2.5547-1.6445 5.6719-2.1719 8.625-1.457 2.9531 0.71875 5.4805 2.6133 7 5.2422 2.0039 3.7617 4.7344 7.1406 7.7031 11.527-10.477 4.6523-19.957 8.8672-28.352 12.598h-0.003907c3.3242 1.9883 6.4375 4.3047 9.2891 6.9219 9.1602 9.5312 17.477 19.844 24.848 30.82 4.4219 7 9.9219 13.258 16.305 18.531-1.6289-2.9023-3.2539-5.8086-5.6211-10.031 6.4297-2.7812 13.133-4.8789 20.004-6.2578 3.707 1.9492 6.8438 4.8281 9.1094 8.3516-4.5195 3.2773-7.4805 5.4258-12.582 9.125 9.5117 0.015624 19.332-8.1953 21.969 6.1641-2.7031 1.3906-5.5977 2.875-8.4922 4.3555l0.48438 1.3945h0.003907c4.3398-0.82422 8.8047-0.76562 13.125 0.17188 1.8516 3.3398 2.8086 7.1016 2.7812 10.918 5.5195-2.3789 10.027 0.77344 11.91 8.5352-11.375 8.125-12.516 7.9258-21.027-2.7461-1.9297-2.418-4.2461-4.5234-6.3867-6.7695l-1.9141 1.5156c3.8906 5.3164 7.7852 10.629 11.781 16.086-1.418 1.5977-2.7461 3.0977-5.3711 6.0547v0.003906c5.8008-0.48047 11.484-1.8828 16.84-4.1641 6.6992-2.4805 13.809-3.6719 20.949-3.5039 0.15625-28.016 0.32031-57.746 0.48047-86.32 12.535-0.30078 22.887-0.54688 35.324-0.84766-5.5898 5.9961-10.555 11.184-15.34 16.531-1.457 1.8594-2.7734 3.8242-3.9492 5.8711 2.2461 1.0977 4.7188 1.6406 7.2188 1.582 16.125-6.0312 32.094-12.492 48.082-18.895v0.003906c2.2461-1.2344 4.7422-1.9414 7.3008-2.0703-9.6641 13.84-19.133 27.816-29.031 41.488h-0.003906c-17.961 23.66-40.039 43.895-65.172 59.73-1.9453 1.9453-3.5273 4.2188-4.6719 6.7188 2.7891 0.98047 5.7461 1.3828 8.6992 1.1836 5.4961-3.3906 11.598-5.6836 17.969-6.7461 5.5742 3.2617 10.328 7.7578 13.895 13.141zm149.93 44.059c1.6719 3.7344 3.3438 7.4727 5.0156 11.211l-3.6289 1.6211c-1.6367-3.7539-3.2695-7.5117-4.9023-11.266zm-2.6211-102.54v0.003906c0.039062-2.8867 0.32812-5.7617 0.86328-8.5977 0.98438-0.17188 1.9805-0.23047 2.9766-0.16406 0.089844 2.8164 0.25391 5.6289 0.23438 8.4453v-0.003907c-0.26953 1.7422-0.67188 3.4609-1.207 5.1406-1.2266-1.4297-2.1953-3.0625-2.8672-4.8203zm9.2734 14.418c9.3359-1.1484 10.664 0.75391 8.25 11.836-8.5586-0.51172-9.2188-1.457-8.25-11.832zm1.1953-19.66-0.003907 0.003906c2.6953 0.30859 5.2617 1.3008 7.4609 2.8867 0.54688 3.9922 0.52734 8.0391-0.058594 12.023-10.668-2.168-9.2812-7.8125-7.4023-14.91zm0.054687 35.691c11.473-0.56641 9.6289 7.7891 10.812 16.93-5.2188-2.0391-8.8242-3.4492-12.387-4.8438 0.59375-4.5586 1.0703-8.2383 1.5742-12.082zm18.777-0.23828v0.003906c-2.6484-1-4.7344-3.0898-5.7266-5.7383-0.99219-2.6484-0.79297-5.5977 0.54687-8.0859 1.125-1.0234 2.668-1.4414 4.1523-1.1289 1.3828 0.66797 2.3438 1.9805 2.5625 3.5039-0.29688 3.8438-0.80859 7.6641-1.5352 11.449zm7.6094 20.531c-13.027-1.1211-16.559-6.4453-9.5664-16.789 3.3633 5.9023 6.4648 11.348 9.5625 16.793zm-9.6914 37.457c0.91406-2.3008 1.8906-4.7617 2.8711-7.2227l3.9102 1.4688c0.16797 7.1055 0.69531 14.238 0.16797 21.289-1.8125 1.9805-4.4531 2.9922-7.125 2.7266-2.8867-1.8867-5.3633-4.3398-7.2773-7.207 5.9492-1.5391 8.8242-2.2852 11.695-3.0273-5.0938-3.8477-14.023-2.3789-10.828-13.09 1.9141 1.4727 3.6523 2.8047 6.5859 5.0625zm-12.289-29.43-2.8906 1.5234c-1.6562-3.3047-3.3125-6.6094-5.5508-11.07 9.4141 0.19141 10.02 4.1875 8.4414 9.5469zm17.984 67.789c-10.742-0.57422-21.008-1.0977-31.254-1.8633-0.25781-1.6445-0.39062-3.3047-0.39062-4.9648 7.9609 2.3789 15.262 9.2227 24.801-0.042968-8.3242 0.03125-15.707 0.63672-13.363-8.1875l22.215-0.53125zm11.312-45.465c-1.7188-3.6992-4.0898-7.0586-6.9961-9.9219-3.0391 0.92578-5.8359 2.5117-8.1875 4.6484-0.92188-6.043-2.1289-12.785-2.7656-19.578v0.003906c1.0859-1.4336 2.5938-2.4922 4.3125-3.0195 2.0859-0.90234 4.2109-1.6953 6.375-2.3789l0.042969 0.074218 0.11719-0.13672 0.027343-0.007813h-0.015624v-0.003906c2.375-1.9531 4.2109-4.4844 5.3281-7.3516 0.25781-12.578-0.31641-25.16-1.7148-37.664-0.66797 7.9492-1.3359 15.898-2 23.844l-2.75-0.023438c-0.57812-6.5508-1.1602-13.102-1.5703-17.77l-0.003906-0.003906c-4.0273-0.054687-7.9766-1.0938-11.512-3.0195-1.7305-2.2852-2.1719-5.2969-1.1758-7.9844 0.99219-2.6875 3.293-4.6836 6.0938-5.2891l-16.973-7.1875v-0.003906c0.9375-3.1875 3.3906-5.707 6.5547-6.7305 3.1641-1.0234 6.6289-0.41797 9.2578 1.6172 5.3984 2.6953 10.691 5.6406 15.793 8.8555 1.832 1.0742 3.1211 2.8711 3.5547 4.9453-0.41016 27.309-1.1094 54.613-1.793 84.086zm109.66-64.301-1.9844 1.9141c0.40234 2.457 0.80469 4.918 1.6445 10.062-7.2695-6.9961-13.082-12.594-18.898-18.191l-1.9492 1.6836c1.9141 3.2812 3.832 6.5586 5.7461 9.8398l-1.9727 2.0117c-7.9023-7.3086-15.809-14.617-25.656-23.723 1.8203 6.2422 2.9531 10.129 4.4961 15.422-15-5.4609-20.172-19.668-29.723-28.988l-2.75 1.8867c2.8516 4.9414 5.707 9.8789 9.4258 16.324h-0.003907c-16.879-8.6758-30.82-22.141-40.074-38.711-2.9062 5.5781-2.918 5.5859 2.7852 12.566 3.2461 3.6523 6.0547 7.6758 8.3555 11.984-15.996-8.5859-29.332-21.395-38.562-37.027l-2.3945 1.1602c1.375 3.9805 3.0703 7.8359 5.0781 11.539 3.1328 3.9727 6.0039 8.1445 8.5977 12.492-15.715-14.539-26.18-0.47266-37.762 6.5742l-1.1094-2.3164c7.1367-6.1328 14.27-12.266 21.406-18.398l-1.5391-1.7969c-13.828 10.941-27.656 21.883-41.484 32.824l-1.1367-1.3125c1.5391-2.0117 3.0742-4.0195 4.6094-6.0312l-0.82422-1.1523c-6.2695 3.5977-12.586 7.1094-18.789 10.82-4.75 3.9023-10.859 5.7539-16.98 5.1484-6.3516 1.1836-12.324 3.875-17.422 7.8477-3.625 1.7266-7.3242 3.3008-13.23 5.9453l4.8164-9.8633c-10.262 6.1328-19.145 11.441-29.25 17.477l-0.14062-5.9141c-13.941 4.9219-27.895 9.8438-41.852 14.77l-0.85156-1.918c5.7188-2.8008 7.4336-9.9492 16.707-10.074 4.9023-0.0625 10.156-9.4414 14.367-15.254l-0.003906 0.003906c3.2422-5.1445 6.1133-10.516 8.5859-16.07l2.4219 1.0938c-2.7266 7.9102-5.4531 15.816-8.1797 23.723l2.875 1.1836 26.039-60.082 2.543 1.0273c-3.668 12.918-7.3359 25.832-11.004 38.746l2.793 0.89844c4.3672-12.242 8.7383-24.48 13.105-36.723l1.6758 0.54688-0.64844 16.656 1.8086 0.375c2.5195-9.6523 5.043-19.305 7.9141-30.301l4.0195 5.1055c0.4375-0.17969 0.82031-0.47266 1.1055-0.85156 2.1289-11.676 12.914-22.242 4.2344-35.805-3.8086 2.3008-7.6641 4.625-12.402 7.4844l4.4609-10.332c-0.91797-0.60156-1.8398-1.1992-2.7578-1.7969-5.8516 7.418-11.707 14.836-18.395 23.312-0.34766-3.1289-0.56641-5.0625-0.78125-7l-1.832-1.0039c-1.9883 3.7109-3.8398 7.5078-6.0078 11.113-1.9492 3.2383-4.2461 6.2656-6.3867 9.3867l-2.0703-1.5039 4.5078-6.7266c-5.9375 4.5664-16.266 2.2305-18.488 12.605l-0.003906-0.003906c-3.043 2.3789-6.6406 3.9375-10.457 4.5312l-2.1133-2.5977c7.6992-8.8867 15.398-17.77 23.102-26.652l-0.003906 0.003906c5.4062-4.5391 10.004-9.957 13.598-16.027 3.957-10.859 13.949-15.355 20.293-23.453v-0.003907c3.8594-4.5234 7.4531-9.2695 10.766-14.211 2.2461-5.7734 7.1953-10.07 13.227-11.488 4.8555-5.4922 9.3672-11.281 13.5-17.332 3.5859-6.7734 6.7969-13.738 9.625-20.863-12.523-4.7578-10.062 7.4609-15.137 9.3633-0.74609-3.3555-1.5195-6.8242-2.3594-10.605 1.5117-6.6758 3.4102-13.992 4.7695-21.41 0.99609-5.4336 0.46094-11.57 8.8359-11.129 0.97656-0.875 1.707-1.9883 2.1211-3.2344 5.1055-8.9375 10.266-17.852 15.234-26.867 1.3359-1.7773 1.9922-3.9766 1.8438-6.1953-1.7148-1.9531-4.0547-3.2461-6.6172-3.6641-4.3633 4.5898-8.2539-0.53125-11.703-0.10156-1.1797-7.5977-2.6211-15.121-3.3789-22.711 0.058594-2.832 0.69531-5.6211 1.875-8.1992 1.875-3.5547 3.293-7.3359 4.2266-11.246 0.26953-4.5-0.69531-8.9883-2.7891-12.98-3.9062-0.10547-7.8008 0.46484-11.516 1.6797 1.6719-4.082 3.1992-8.2109 5.0195-12.203h0.003906c3.3242-8.3008 3.8711-17.457 1.5586-26.094-2.3125-8.6367-7.3594-16.293-14.391-21.824-14.707-10.371-14.48-10.215-4.6328-24.539 4.7656-6.9297 8.2695-14.715 12.812-21.812v0.003907c1.9414-2.5117 4.7031-4.2617 7.8047-4.9414 4.4922-9.2852 8.9844-18.566 13.473-27.852l-2.8203-1.8086c-2.8086 3.5508-5.6211 7.1016-8.8594 11.188-5.9727-5.3125-9.8125-2.6602-13.863 3.3711-2.9453 2.043-6.3555 3.3125-9.918 3.6914-4.1836-11.742-4.1836-11.742 5.625-18.688-0.089844 2.4141-0.18359 4.8555-0.27344 7.293l3.0586 0.74219c2.3711-6.0508 4.7461-12.102 7.1836-18.328 10.438 8.8906 8.3359-4.0078 12.512-7.2188 5.418 5.9961 7.2383 0.85937 8.9375-3.4492 1.6875-4.2773 2.8477-8.7617 4.3086-13.367 6.668 4.7031 6.668 4.7031 10.961-10.176 1.7734 1.5859 3.375 3.0117 6.4453 5.7539 2.6836-5.707 4.9727-10.578 7.3789-15.695 1.5078 1.3008 3.1836 2.7422 6.2969 5.4258 0.20312-3.832 0.32031-6.0742 0.44141-8.3164h-0.003906c-0.94922-0.125-1.8828-0.36328-2.7773-0.69922 0.26562-7.7031 0.69922-15.398 1.1094-23.098l2.7969-0.042969 1.9609 5.6094c1.3164-1.3594 2.3359-2.9805 2.9883-4.7578 0.19922-3.6836 0.16016-7.3789-0.11719-11.062l2.9336-0.44531c1.4727 7.25 2.9453 14.5 4.418 21.754l2.0078-0.31641c-1.3516-9.582-2.707-19.168-4.0703-28.809 6.2812 0.94531 6.2812 0.94531 8.332 19.016l4.2383-5.1172c3.7773 10.809 7.1172 20.367 10.902 31.199l1.1992-3.75c12.957 21.941 25.531 43.234 37.551 63.586l-8.5352 0.28125c-2.6445-3.875-5.293-7.7539-7.9375-11.629l-2.9805 1.793c4.7188 8.4453 9.4336 16.891 14.625 26.18h-0.003906c-6.8359-4.0312-12.277-10.051-15.598-17.258-4.4805-6.1094-8.3398-12.672-13.656-20.859-0.63672 2.0039-0.875 4.1172-0.69922 6.2109 9.7969 13.973 11.758 31.977 23.395 45.031 8.0508 8.6523 15.637 17.727 22.73 27.18 14.168 19.766 27.617 40.043 40.066 61.207-4.125-4.6523-8.25-9.3047-13.891-15.672 0.34766 4.9375 0.52734 7.4844 0.70703 10.031l-1.6172 1.2031c-6.4883-9.1562-12.98-18.316-19.293-27.219-2.9062 5.8984-2.3516 7.4648 7.8906 21.031l-1.6836 1.4648c-7.8828-9.6914-15.77-19.383-24.289-29.855-0.60156 10.824 8.5469 16.27 10.527 25.633-4.2305-4.582-8.6836-8.9844-12.629-13.797-3.9102-4.7734-7.3047-9.9648-10.926-14.973l-3.3555 2.3594 0.003907-0.003906c2.4258 4.0859 5.0938 8.0234 7.9922 11.789 2.2344 1.5859 3.7422 4.0039 4.1797 6.7109 0.4375 2.7031-0.22656 5.4727-1.8438 7.6836-0.67188 2.3359-0.21094 4.8516 1.2461 6.7969 16.285 21.395 32.844 42.586 49.199 63.93 1.957 2.6484 2.8594 5.9297 2.5312 9.207-4.8438-6.1953-9.6836-12.395-14.527-18.59l-2.5625 1.625c2.5977 5.2148 5.1992 10.426 7.7969 15.641l-2.043 1.4648-17.07-19.691-2.0391 0.77734c1.2578 3.9336 2.5156 7.8672 3.7734 11.805l-1.5391 1.2617c-8-10.941-16-21.879-24-32.82l-1.4844 0.25-0.003906-0.003906c0.3125 2.8203 0.98437 5.5898 2.0039 8.2422 10.648 19.809 20.68 40.016 32.535 59.09 16.648 26.789 34.629 52.754 52.215 78.953h-0.003906c2.9375 3.8828 6.1133 7.582 9.5039 11.074l-1.9219 1.9844c-7.3711-7.2305-14.738-14.457-22.109-21.688l-2.0156 1.2148c1.7891 4.1992 3.582 8.3945 5.7812 13.559h0.003906c-7.8242-3.582-14.07-9.9023-17.559-17.766-1.8984-2.6445-2.1992-7.3242-7.5938-4.832-1.6289-0.67188-2.9883-1.8633-3.8711-3.3906-5.793-8.5039-11.434-17.117-17.125-25.691l-2.3125 0.51562c1.2227 4.7422 2.4453 9.4844 3.668 14.223l-1.7617 1.0977c-7.707-14.535-15.414-29.07-24.234-45.711-0.26953 2.9219-0.15625 5.8633 0.33203 8.75 1.543 4.0977 4.2109 7.7969 5.5508 11.938h0.003906c0.31641 2.8477 0.37109 5.7188 0.15234 8.5781-0.03125 2.8594 0.64453 5.6836 1.9688 8.2188 20.805 27.621 41.895 55.027 62.82 82.555 13.074 17.199 26.004 34.508 38.973 51.789v0.003907c0.74219 1.1992 1.4023 2.4414 1.9883 3.7227-22.684-5.7383-32.168-23.707-41.609-41.723l-1.8906 1.1875c0.070313 2.9688 0.14062 5.9375 0.26953 11.23-6.457-8.2305-11.723-14.949-16.992-21.664l-2.0547 1.3984 6.3086 13.137-1.457 1.4023h-0.003906c-2.7227-1.8359-5.2695-3.9258-7.5938-6.2461-5.4531-6.5078-10.387-13.449-15.848-19.949-1.6133-0.94531-3.4375-1.4883-5.3086-1.5742l-1.2266 2.5039c-7.1562-9.6328-14.316-19.27-21.477-28.902l-2.4531 1.6328c2.3984 11.031 13.234 17.477 15.699 29.066-5.8125-5.9023-11.996-11.488-17.324-17.793v-0.003906c-4.8906-6.6289-10.172-12.961-15.812-18.965 2.5703 6.1133 5.1406 12.227 7.8711 18.723-8.0703 2.0664-6.707 7.207-3.2188 12.086 11.957 16.723 23.73 33.609 36.449 49.742 15.797 20.039 32.203 39.613 48.852 58.953 10.742 12.477 22.324 24.238 33.723 36.141 2.0898 1.2422 3.9297 2.8633 5.4258 4.7812-19.086 3.5156-29.605-8.832-40.074-21.285zm-220.71-407.73c2.1055-5.2617 4.207-10.527 6.3125-15.789l3.0898 1.4102c-2.4453 5.0664-4.8867 10.137-7.3281 15.203z"/>
  <path d="m851.81 355.27-14.379-36.75-6.3008-2.2539c1.3125-2.9688 2.4375-6.0352 3.9805-8.8789 1.9102-3.5195 4.1641-6.8516 6.6406-10.863v0.003907c4.8438-0.058594 9.5352 1.6758 13.18 4.8672 3.6406 3.1914 5.9766 7.6133 6.5547 12.422l-8.4336-6.4727c-0.78906 1.8633-1.2227 3.8594-1.2734 5.8828 3.4375 2.3125 7.0078 4.418 10.695 6.3008l-1.4102 9.9258-6.8945-2.5898c-0.82422 5.1797-0.82422 5.1797 13.297 6.3633z"/>
  <path d="m706.41 344.7 5.7031-23.488c5.1875 11.508 9.6797 5.5977 13.676 3.6133-2.7148-11.227-5.3047-22.297-8.1914-33.289l0.003907-0.003906c-0.68359-1.3945-2.0273-2.3398-3.5664-2.5156-4.4648 0.65625-8.6523 2.5781-12.059 5.5352-2.4609 2.9961-3.9844 6.6484-4.3828 10.5-0.39844 3.8555 0.34375 7.7422 2.1367 11.176 2.4023 3.4453 3.9609 7.4102 4.5469 11.574l-11.867-13.73-3.7539 4.9688-2.3672-1.2812c5.6953-10.262 11.305-20.574 17.215-30.715l-0.003906-0.003907c1.3164-1 2.9258-1.543 4.5781-1.5469 6.7344-1.2305 13.492-2.3477 19.594-3.3945-4.1094 4.625-6.332 10.629-6.2305 16.816 0.10547 6.1875 2.5312 12.113 6.793 16.598 7.2344 8.6211 8.6289 13.418 1.7109 22.211-0.875 4.832-0.70703 9.7969 0.48828 14.562-0.89844 3.0273-1.625 6.1055-2.168 9.2188 1.1406 6.5 1.9258 13.059 2.3555 19.645-2.0391-6.6523-4.4062-13.223-6.0156-19.977-3.293-8.0078-10.02-14.102-18.312-16.598zm21.309-12.336-2.7773-1.7812h0.003907c-3.4141 2.5039-6.1719 5.7969-8.0391 9.5938 0.69531 4.1523 2.3945 8.0703 4.9453 11.418l2.9531-0.63672z"/>
  <path d="m797.5 613.21c-4.4805-2.1992-7.8906-6.1094-9.457-10.852-1.5625-4.7422-1.1562-9.9141 1.1367-14.352 1.4609-4.1406 2.2031-8.5312 3.3086-12.953 3.7891 0.89453 7.7617-0.44141 10.242-3.4414 2.4844-3.0039 3.0469-7.1562 1.457-10.711l6.9492 9.8555 2.9609-1.6211-3.7852-16.895c4.793 8.2539 6.1523 19.09 18.906 19.371l0.19141 7.9062v-0.003906c-4.6523 4.875-10.188 8.8203-16.316 11.625-6.5977-0.1875-13.09-1.6953-19.098-4.4336-2.2031 4.2461-3.0469 9.0625-2.4219 13.805 0.62891 4.7422 2.6953 9.1758 5.9258 12.699zm19-39.113c-6.2109 0.125-13.852-3.0078-14.531 6.1797 1.1914 3.5547 4.0664 6.2891 7.6758 7.3008 2.8359-0.67188 5.2305-2.5586 6.5469-5.1523 1.3203-2.5977 1.4336-5.6406 0.30859-8.3281z"/>
  <path d="m795.78 345.25c-0.24219 12.277 3.5117 24.297 10.703 34.25 2.3047 3.5781 5.6562 6.3516 9.6016 7.9414 7.3516 1.8203 2.8828 5.5352 3.2695 10.602-5.1914-5.1562-9.4141-8.2734-14.535-2.6445-1.7695 0.90234-3.8789 0.80859-5.5547-0.25-1.2031-1.7109-1.4648-3.9102-0.69922-5.8555 6.6562-5.9844 2.6523-10.984 0.14844-17.277-5.3438-7.8984-7.6875-17.449-6.6133-26.922 0.22266-3.5391-1.2578-6.9727-3.9844-9.2422-4.8203-3.4375-6.1836-10.012-3.125-15.082l9.168 8.0391c2.4375 4.3438-2.1484 12.828 9.0195 13.41z"/>
  <path d="m706.3 344.57-10.035 9.875c-11.27-6.4805-25.621-8.5977-25.16-24.367h0.003907c0.45312-7.7148 1.9883-15.328 4.5586-22.621-0.60156 33.133-0.30078 34.391 10.211 37.121l-0.42969-17.938 1.3633-0.13281c0.44141 5.4062 1.8633 10.688 4.1953 15.582 4.0469 4.0781 10.246 5.125 15.41 2.6016z"/>
  <path d="m800.26 485.89c-0.66797 1.1758-1.2891 2.3867-2.0195 3.5273-7.1562 11.176-7.0508 13.578 0.58984 24.859l-8.125-3.4219c1.3477 10.152 2.5703 19.367 3.75 28.246-12.375-19.66-9.8086-43.531 5.9336-53.074z"/>
  <path d="m796.56 418.04c-3.418 8.0156-6.5234 14.152-8.5859 20.617v0.003906c-1.2109 3.5469-1.2852 7.3906-0.21094 10.984 2.6094 6.9688 8.3672 6.0469 14.242 2.9531l0.23828 2.7578c-3.5742 1.4961-7.4688 2.0742-11.324 1.6836-3.8789-2.1094-6.7305-5.707-7.8984-9.9648-0.79297-5.6289 0.066407-11.367 2.4688-16.523 2.4023-5.1523 6.25-9.4961 11.07-12.512z"/>
  <path d="m711.07 383.8c-0.21875 5.6367-0.035157 11.285 0.55469 16.895 1.668 10.035 8.2773 12.148 16.227 5.7617 0.74219-0.59375 1.5391-1.1211 2.3086-1.6758l1.6914 2.332c-3.5977 3.332-7.7852 5.9609-12.348 7.7539-2.5703 0.23438-5.1289-0.58203-7.0898-2.2617-1.9609-1.6797-3.1562-4.082-3.3164-6.6602-3.1602-11.926-2.9219-17.5 1.9727-22.145z"/>
  <path d="m702.44 435.11c-12.383 12.98-3.9258 24.402 0.13281 37.215l-12.102-12.398c0.066406-4.6719 0.625-9.3242 1.6641-13.879 1.875-4.2461 4.2031-8.2734 6.9414-12.02z"/>
  <path d="m665.73 351.98c-13.852-4.7109-22.77-23.504-13.262-32.715 0.10156 6.3828 0.98828 12.727 2.6406 18.891 2.8672 5.0898 6.4414 9.7422 10.621 13.824z"/>
  <path d="m823.95 600.66 4.1953 19.438-2.6758 0.52344-1.1719-13.07-2.6406-1.1641-11.75 19.156c-3.6641-6.1055-0.32812-12.805 14.043-24.883z"/>
  <path d="m719.18 586.82c-2.5234 9.293-0.14844 11.469 11.289 10.336-3.6758 7.1562-15.5-2.9883-17.086 9.0312l-3.8398-15.469c3.2422-1.6094 6.1992-3.082 9.1758-4.5195z"/>
  <path d="m689.31 484.49c4.2578 2.6445 6.6992 7.4336 6.3359 12.434 1.7188 8.5312 4.3594 16.848 7.8789 24.805l-6.8789-0.15234c-0.93359-5.2266-2.0352-11.926-3.3477-18.586-1.2344-6.2891-2.6914-12.531-3.9883-18.5z"/>
  <path d="m800.39 486.02c5.0977-2.0859 10.145-4.3086 15.309-6.2148 3.6641-1.3516 7.4883-2.2773 12.266-3.6992l4.4609 5.2266c-10.102 1.4297-21.129 2.9922-32.156 4.5508z"/>
  <path d="m870.81 406.54 17.973 10.336c-4.8789 3.2227-11.348 2.6094-15.535-1.4727-2.1172-2.6328-3.7617-5.6133-4.8516-8.8125z"/>
  <path d="m659.94 338.31c-2.7148-5.3164-3.8242-11.305-3.1953-17.238 0.63281-5.9336 2.9766-11.555 6.75-16.18z"/>
  <path d="m806.59 264.72c-1.1914-4.1836-1.7812-8.5195-1.7578-12.871 0.83594-6.1836 6.4062-10.605 12.617-10.02-3.8125 2.0898-6.6758 5.5664-7.9961 9.707-1.3203 4.1406-1 8.6328 0.89453 12.547z"/>
  <path d="m876.13 470.99 13.195 7.0508c-2.3125 2.043-5.3516 3.0664-8.4258 2.8359-3.0781-0.23047-5.9297-1.6953-7.9102-4.0625-3.1523-4.1484 0.10937-4.9805 3.293-5.6719z"/>
  <path d="m872.06 421.26 13.848 4.2422c-1.043 2.0898-2.9258 3.6445-5.1758 4.2773-2.2539 0.63281-4.668 0.28125-6.6484-0.96094-1.9688-1.8633-3.5195-4.1211-4.5547-6.6289z"/>
  <path d="m732.01 640.67c-4.5352-0.50781-8.7305-2.6523-11.797-6.0312-3.0664-3.3789-4.7969-7.7617-4.8633-12.324z"/>
  <path d="m821.64 268.21c-3.0977-3.8242-3.2773-9.2422-0.43359-13.262 2.4297-2.2344 5.2852-3.957 8.3945-5.0625z"/>
  <path d="m811.08 524.04 6.9492-3.8789 1.4648 0.94531c-2.3438 3.2656-4.6133 6.5898-7.125 9.7227v0.003907c-0.95703 0.22266-1.9609 0.050781-2.7852-0.47656-0.49609-2.6406-0.64844-5.3477-0.90625-8.0352z"/>
  <path d="m891.04 469.01c-1.8867 1.5703-4.0586 2.7656-6.3984 3.5117-2.8945-0.097656-5.7578-0.60938-8.5078-1.5273l0.15625 0.15625c0.34375-2.2188 0.6875-4.4375 0.92969-6l13.949 4z"/>
  <path d="m943.23 547.37c0.73828-15.953 1.4141-30.566 2.0898-45.18l-1.2969-0.48438-4.293 7.5469-1.7266-0.77734 7.2109-17.535c6.7422 7.5117 5.0312 50.875-1.9844 56.43z"/>
  <path d="m938.88 393.23c3.832 14.457 7.5352 28.438 11.242 42.418l3.1328-0.058594 5.3828-22.105 2.1406 0.53906-6.4336 28.488c-10.195-8.0156-20.34-42.246-15.465-49.281z"/>
  <path d="m963.1 328.38-1.6641 25.887-5.8555-4.9492c1.9727-3.332 3.5508-6.8828 4.6992-10.578 1.2383-10.938-0.68359-22-5.5352-31.879-1.0469-3.1992-1.8203-6.4844-2.3125-9.8164l2.1953-0.62891c5.7578 14.855 11.52 29.711 17.277 44.562l-1.0078 0.69531z"/>
  <path d="m980.38 452.88c-10.039-18.582-17.844-38.285-23.25-58.699l3.5195-1.1992c6.5781 19.965 13.156 39.93 19.73 59.898z"/>
  <path d="m914.63 668.61c-4.5195 12.004-9.0391 24.008-13.555 36.008l-3.1211-1.2109-0.003906 0.003906c2.7773-12.641 7.7656-24.691 14.742-35.594z"/>
  <path d="m934.84 380.13-14.18 47.672c0.57422-16.84 5.457-33.254 14.18-47.672z"/>
  <path d="m950.93 331.98c-2.2461-17.309-4.4922-34.617-6.7383-51.926l3.1641-0.30859 5.6875 52.023z"/>
  <path d="m981.4 530.11-5.1602-32.559 4.4414-0.59375 3.4336 32.652z"/>
  <path d="m917.48 321 12.551-22.391c1.6641 9.5273-5.9961 22.668-12.551 22.391z"/>
  <path d="m959.93 517.2 11.402 22.98 4.5039-9.6992 1.2422 0.29297-3.1641 13.848v-0.003906c-8.2969-6.8047-13.332-16.805-13.863-27.523z"/>
  <path d="m918.61 432.45 4.0781 8.5117 2.6484-0.23828-5.2188 14.195-3.2461-0.72266z"/>
  <path d="m927.25 583.07-13.836 21.191-2.4492-1.4336 13.5-21.438z"/>
  <path d="m940.42 663.2c-1.207 6.0859 5.4883 12.527-3.1758 18.297l0.65625-18.219z"/>
  <path d="m920.9 553.01c2.0234-5.5039 4.043-11.008 6.0664-16.512l2.4727 0.82812-4.8164 16.777z"/>
  <path d="m960.05 517.09c-1.7695-8.5742-3.5391-17.148-5.3086-25.723l3.3281-0.55469v-0.003906c2.0039 8.6445 2.6328 17.547 1.8594 26.383z"/>
  <path d="m553.48 520.27-4.2148 4.0547 14.867 26.656-1.7812 1.1133c-6.4766-9.6211-12.949-19.238-19.957-29.648 3.5352-0.64453 7.3672-1.3477 11.207-2.043z"/>
  <path d="m764.58 780.59c-7.0078 5.7969-15.59 9.3672-24.641 10.262l-0.89062-1.9336 23.965-11.516z"/>
  <path d="m641.7 701.85 23.672-9.1992 0.83203 2-23.52 9.9727z"/>
  <path d="m450.17 648.4 14.035-1.7227c-10.129-8.4805-13.316-22.859-29.121-21.551h-0.003906c-1.7734-0.84766-3.293-2.1523-4.3984-3.7812 1.7891-0.57422 3.5781-1.1484 5.3711-1.7148 1.9414-0.61328 3.8828-1.2227 6.5312-2.0547l11.547 5.8477c-0.92969 2.0312-1.3242 4.2656-1.1523 6.4961 5.4883 6.0469 11.293 11.805 17.383 17.242 2.5078 1.5742 5.2266 2.7734 8.0742 3.5664l-1.3672 6.1719-27.082-5.582z"/>
  <path d="m433.17 596.53c-3.582 1.6953-7.5586 2.3711-11.5 1.9492-3.9414-0.42187-7.6875-1.9258-10.824-4.3477l7.3945-2.543-23.223-30.715 1.8008-1.207z"/>
  <path d="m506.6 694.24 16.996 8.4922-3.8359 4.3164c6.0039 5.4258 12.012 10.859 18.027 16.297l-1.3945 2.3398-19.727-2.8516-0.16797-2.1289 6.6523-3.2891 0.003906-0.003907c-1.5312-4.418-4.3828-8.2617-8.168-11.012-3.7812-2.75-8.3164-4.2734-12.996-4.3672z"/>
  <path d="m501.53 678.59-1.5664 6.6094c-4.8125-4.3086-9.9062-8.3906-17.027-0.54688l-12.508-18.5 1.3477-1.9805c6.9297 9.4258 18.062 14.824 29.754 14.418z"/>
  <path d="m521.22 734.53c8.207-1.8164 16.762-1.1719 24.602 1.8555-0.45312 1.5508-1.1719 3.0117-2.1211 4.3203-7.5742-0.70312-15.117-1.7539-22.668-2.7227z"/>
  <path d="m337.62 619.7 3.8203-11.352 8.7109 12-12.703-0.77734z"/>
  <path d="m380.63 693.07c-5.3086-3.2227-9.293-8.2344-11.246-14.133-1.9492-5.8945-1.7383-12.293 0.59766-18.051 1.0586-5.4062 1.6523-10.895 1.7773-16.402 1.8789 1.5547 3.5742 3.3203 5.0547 5.2578 12.184 22.625 24.148 45.371 36.434 67.941 2.5195 3.7734 5.3594 7.3242 8.4883 10.609l-7.4102 3.6016 19.555 27.922c-3.6641-0.55078-7.1133-2.0859-9.9727-4.4375-2.8633-2.3555-5.0352-5.4414-6.2852-8.9297-3.3086-8.375-7.4727-16.414-10.699-24.816-1.4727-3.8281-1.5898-8.1758-3.4609-12.34-1.2148 5.4844-1.6836 11.105-1.3945 16.711 1.7461 6.0352 4.1289 11.863 7.1016 17.395 0.92969 2.2227 1.668 4.5273 2.4922 6.7969l0.11719-0.10547c-3.0039-4.793-6.2969-9.4336-8.957-14.41-7.5781-14.176-14.895-28.488-22.316-42.746 5.6836 7.9258 11.363 15.848 17.043 23.773l2.0273-1.2305c-3.3828-18.168-17.148-30.48-28.02-44.555zm-4.6602-33.176-2.5156 1.6875 24.988 39.934 2.8984-1.8516z"/>
  <path d="m380.37 736.7 2.5312 9.9375-1 0.53516-27.535-38.094 2.4102-2.0625c3.5273 4.0469 7.2227 7.9648 10.543 12.176 4.2383 5.3789 8.1758 10.996 12.242 16.512 0.27344 0.32812 0.54297 0.66016 0.80859 0.99609z"/>
  <path d="m379.56 735.7-18.23-31.715c14.941 11.836 20.246 29.68 29.715 44.938l-2.0234 1.2852-8.6562-13.508c-0.26172-0.33594-0.53125-0.66797-0.80469-1z"/>
  <path d="m393.19 666.23c7.293 10.582 14.574 21.168 21.844 31.766h0.003906c0.44922 1.3203 0.73438 2.6914 0.85547 4.082-11.898-8.5664-20.055-21.371-22.793-35.773z"/>
  <path d="m360.24 686.27c9.5508-1.3672 16.605 7.6758 19.652 22.934z"/>
 </g>
</svg>
