<?xml version="1.0" encoding="UTF-8"?>
<svg width="1200pt" height="1200pt" version="1.1" viewBox="0 0 1200 1200" xmlns="http://www.w3.org/2000/svg">
 <g>
  <path d="m1086.6 315.92c-8.2969-0.99609-16.562-2.2773-30.004-4.1484 8.5469-17.965 15.828-31.465 21.262-45.676h0.003907c2.0781-5.7031 1.4297-12.047-1.7617-17.215-2.7539-2.9531-11.422-2.1133-16.711-0.48047-5.0312 2.5391-9.6719 5.7852-13.781 9.6406-27.883 19.297-55.496 39.027-84.062 57.258-6.6016 2.1523-13.844 0.85156-19.281-3.4648-17.281-17.398-31.375-38.27-49.863-54.098-23.852-20.414-46.871-43.695-81.32-47.059-23.523-2.2969-46.883-6.332-76.938-10.512 27.711-29.605 50.824-54.301 73.938-79l-6.7266-6.9297c-28.688 13.406-44.277 44.234-71.434 61.125-2.9531-9.9414-6.6289-19.652-11-29.059-2.2773-4.1641-8.75-6.0352-13.324-8.9453v0.003906c-2.0625 4.2891-3.8633 8.6992-5.3867 13.211-1.6016 5.7461-2.375 11.727-4.1406 20.891-11.934-15.191-21.684-27.598-31.434-40.008l-9.4727 7.2305c14.902 21.711 29.805 43.422 43.715 63.684-14.504 3.4023-28.602 7.1055-42.867 9.9844-25.484 4.7031-49.781 14.434-71.465 28.625-21.684 14.195-40.324 32.562-54.832 54.035-27.613 40.656-46.629 87.051-72.508 129.02h-0.003907c-28.164 47.332-59.266 92.852-93.125 136.29-17.422 21.621-44.035 44.078-69.785 49.031-53.809 10.352-184.9-16.352-186.19-7.9336h-0.003906c1.2148 10.496 4.625 20.621 10.016 29.711 99.68 85.039 209.26 146.71 327.62 200.85 8.9688 1.0195 43.191 7.4883 44.438 19.051 0.42188 3.9023 8.082 61.391 10.051 68.906 11.676 44.57-1.3477 81.242-28.305 116.38v0.003906c-6.5625 11.367-9.5586 24.441-8.6055 37.531-0.039063 12.129 7.3516 16.57 17.758 5.8633 9.207-9.4727 18.84-18.535 29.199-28.672h0.003906c1.0781 3.4258 2.6289 6.6836 4.6133 9.6758 5.6172 5.4727 11.727 10.441 17.648 15.609 4.7188-4.6875 8.8711-9.9102 12.375-15.562 4.9844-10.48 8.3984-21.711 13.539-35.492 14.242 10.395 25.727 18.77 37.875 27.637h0.003907c6.082-6.2344 8.957-14.918 7.793-23.551-1.1602-8.6289-6.2305-16.246-13.742-20.648-11.539-9.2383-25.316-15.633-37.277-24.41-8.1797-6.0039-19.938-12.996-21.477-21.168-6.7578-35.945-10.465-72.473-15.09-108.81-1.7578-13.809 5.3047-18.102 18.504-19 48-3.2617 95.926-7.582 147.8-11.82 5.7422 29.574 13.766 63.988 18.367 98.855h0.003906c-0.54688 11.77-4.3672 23.152-11.035 32.867-6.8789 13.059-17.746 24.188-23.48 37.605-3.1445 7.3555-1.5156 24.289 1.8711 25.445 9.9531 2.832 20.562 2.3516 30.223-1.3672 7.7578-2.9336 13.32-11.684 18.41-16.496 12.32 5.7031 22.93 10.617 33.539 15.531 4.5391-10.25 9.082-20.504 13.879-31.336 10.836 2.7695 21.684 5.625 32.574 8.3125 14.953 3.6914 19.188-3.5859 17.805-17.172-0.085937-6.8438-2.6094-13.438-7.125-18.582-4.5156-5.1484-10.719-8.5156-17.496-9.4883-9.7305-1.8906-19.754-2.2188-29.555-3.8203-8.2109-0.81641-15.973-4.1523-22.211-9.5508-6.2383-5.4023-10.652-12.602-12.633-20.613-6.8086-25.945-11.18-52.551-18.469-78.344-5.2305-18.508 0.75781-26.344 18.34-32.461l-0.003906 0.003906c53.062-18.535 102.34-46.492 145.46-82.527 14.625-14.449 30.008-28.105 46.086-40.918 31.047-20.531 43.793-53.391 59.605-83.625 23.586-45.098 16.438-93.668 8.582-141.37-4.4258-26.879 7.8789-84.969 19.008-84.938 41.551 0.12891 106.63-50.641 82.012-53.59zm-134.8 222.47c-11.551 75.988-47.539 134.83-114.02 174.81-29.098 17.5-55.668 39.547-85.695 55.074v-0.003906c-62.301 32.27-131.56 48.773-201.72 48.062-49.531 1.625-98.945-5.8398-145.79-22.023-69.836-26.887-261.1-163.53-271.57-184.21 56.262 7.8242 106.91 18.543 157.93 20.781 39.875 1.75 67.32-29.848 90.355-57.602l-0.003906 0.003906c30.5-38.164 58.355-78.367 83.363-120.34 29.734-47.902 53.527-99.684 85.266-146.11 16.625-25.426 39.664-46.023 66.789-59.707 27.125-13.688 57.379-19.977 87.711-18.238 13.914 0.35547 27.891-2.9688 41.855-3.1289 25.082-1.0078 50.07 3.625 73.125 13.559 23.055 9.9336 43.586 24.91 60.078 43.832 36.488 39.695 43.875 89.324 60.191 135.97v0.003906c13.84 38.141 18.012 79.117 12.137 119.27zm11.98-193.83c21.047-14.25 38.48-26.055 58.758-39.785-7.9453 40.906-16.305 46.707-58.758 39.785z"/>
  <path d="m574.32 532.64c-38.098 18.125-77.578 36.301-122.48 23.473h-0.003906c-7.4922-0.60938-15.035-0.046876-22.359 1.6641 2.1562 8.2617 4.8125 16.387 7.957 24.328 14.945 30.16 41.605 52.875 73.754 62.844 41.289 15.145 82.777 24.383 125.95 10.973 24.797-7.7031 47.465-19.598 55.445-47.629 8.5586-30.062-5.3711-52.605-25.57-72.148-22.645-21.914-57.953-20.027-92.691-3.5039zm70.324 96.504c-36.668 20.82-73.891 14.012-110.55 0.86328v-0.003907c-24.062-7.0547-45.535-21.004-61.766-40.121 47.023-14.809 92.191-29.23 137.49-43.23 28.766-8.8867 43.223 0.34375 58.051 36.094 6.3438 15.305-3.6211 35.27-23.219 46.398z"/>
  <path d="m841.09 366.64c-6.2969 1.0781-12.082 4.1484-16.504 8.7617-34.699 39.16-70.59 74.48-130.19 54.773-3.2695-1.082-8.2852 3.1289-12.488 4.875 1.9375 4.2109 2.75 10.438 6.0195 12.266 10.906 6.0898 22.695 10.602 35.375 16.27-0.65234 10.32-1.3906 22.066-2.25 35.711 32.074 0.16016 11.465-37.266 33.293-41.629 30.094 30.949 30.094 30.949 43.379 19.57-5.8047-6.9492-11.645-13.938-18.309-21.914 9.5234-13.469 17.707-11.125 27.957-3.4219v-0.003906c7.5547 3.168 15.594 5.0273 23.773 5.5-6.6484-13.719-10.016-20.668-12.133-25.043 8.8477-14.469 16.566-26.82 23.977-39.352 2.4688-4.1719 6.1445-9.0234 5.6875-13.164-0.54688-4.8867-5.6641-13.516-7.5898-13.199z"/>
  <path d="m907.89 546.27c-7.2422 35.305-24.02 67.953-48.516 94.395-1.6641 2.793-2.875 5.832-3.5859 9.0039 1.0977 1.4688 2.1992 2.9336 3.2969 4.3984 22.988-22.445 42.918-47.824 59.273-75.48 3.5391-9.6953 5.2383-19.965 5.0156-30.285 0.19531-2.8828-4.0703-6.0742-6.2891-9.125-3.1836 2.3438-8.707 4.2812-9.1953 7.0938z"/>
  <path d="m740.46 734.6c36.602 3.2227 80.18-37.426 80.445-39.762-5.8281-1.3906-64.59 13.742-80.445 39.762z"/>
 </g>
</svg>
