<?xml version="1.0" encoding="UTF-8"?>
<svg width="700pt" height="700pt" version="1.1" viewBox="0 0 700 700" xmlns="http://www.w3.org/2000/svg" xmlns:xlink="http://www.w3.org/1999/xlink">
 <defs>
  <symbol id="s" overflow="visible">
   <path d="m18.766-1.125c-0.96875 0.5-1.9805 0.875-3.0312 1.125-1.043 0.25781-2.1367 0.39062-3.2812 0.39062-3.3984 0-6.0898-0.94531-8.0781-2.8438-1.9922-1.9062-2.9844-4.4844-2.9844-7.7344 0-3.2578 0.99219-5.8359 2.9844-7.7344 1.9883-1.9062 4.6797-2.8594 8.0781-2.8594 1.1445 0 2.2383 0.13281 3.2812 0.39062 1.0508 0.25 2.0625 0.625 3.0312 1.125v4.2188c-0.98047-0.65625-1.9453-1.1406-2.8906-1.4531-0.94922-0.3125-1.9492-0.46875-3-0.46875-1.875 0-3.3516 0.60547-4.4219 1.8125-1.0742 1.1992-1.6094 2.8555-1.6094 4.9688 0 2.1055 0.53516 3.7617 1.6094 4.9688 1.0703 1.1992 2.5469 1.7969 4.4219 1.7969 1.0508 0 2.0508-0.14844 3-0.45312 0.94531-0.3125 1.9102-0.80078 2.8906-1.4688z"/>
  </symbol>
  <symbol id="d" overflow="visible">
   <path d="m13.734-11.141c-0.4375-0.19531-0.87109-0.34375-1.2969-0.4375-0.41797-0.10156-0.83984-0.15625-1.2656-0.15625-1.2617 0-2.2305 0.40625-2.9062 1.2188-0.67969 0.80469-1.0156 1.9531-1.0156 3.4531v7.0625h-4.8906v-15.312h4.8906v2.5156c0.625-1 1.3438-1.7266 2.1562-2.1875 0.82031-0.46875 1.8008-0.70312 2.9375-0.70312 0.16406 0 0.34375 0.011719 0.53125 0.03125 0.19531 0.011719 0.47656 0.039062 0.84375 0.078125z"/>
  </symbol>
  <symbol id="c" overflow="visible">
   <path d="m17.641-7.7031v1.4062h-11.453c0.125 1.1484 0.53906 2.0078 1.25 2.5781 0.70703 0.57422 1.7031 0.85938 2.9844 0.85938 1.0312 0 2.082-0.14844 3.1562-0.45312 1.082-0.3125 2.1914-0.77344 3.3281-1.3906v3.7656c-1.1562 0.4375-2.3125 0.76562-3.4688 0.98438-1.1562 0.22656-2.3125 0.34375-3.4688 0.34375-2.7734 0-4.9297-0.70312-6.4688-2.1094-1.5312-1.4062-2.2969-3.3789-2.2969-5.9219 0-2.5 0.75391-4.4609 2.2656-5.8906 1.5078-1.4375 3.582-2.1562 6.2188-2.1562 2.4062 0 4.332 0.73047 5.7812 2.1875 1.4453 1.4492 2.1719 3.3828 2.1719 5.7969zm-5.0312-1.625c0-0.92578-0.27344-1.6719-0.8125-2.2344-0.54297-0.57031-1.25-0.85938-2.125-0.85938-0.94922 0-1.7188 0.26562-2.3125 0.79688s-0.96484 1.2969-1.1094 2.2969z"/>
  </symbol>
  <symbol id="b" overflow="visible">
   <path d="m9.2188-6.8906c-1.0234 0-1.793 0.17188-2.3125 0.51562-0.51172 0.34375-0.76562 0.85547-0.76562 1.5312 0 0.625 0.20703 1.1172 0.625 1.4688 0.41406 0.34375 0.98828 0.51562 1.7188 0.51562 0.92578 0 1.7031-0.32812 2.3281-0.98438 0.63281-0.66406 0.95312-1.4922 0.95312-2.4844v-0.5625zm7.4688-1.8438v8.7344h-4.9219v-2.2656c-0.65625 0.92969-1.3984 1.6055-2.2188 2.0312-0.82422 0.41406-1.8242 0.625-3 0.625-1.5859 0-2.8711-0.45703-3.8594-1.375-0.99219-0.92578-1.4844-2.1289-1.4844-3.6094 0-1.7891 0.61328-3.1016 1.8438-3.9375 1.2383-0.84375 3.1797-1.2656 5.8281-1.2656h2.8906v-0.39062c0-0.76953-0.30859-1.332-0.92188-1.6875-0.61719-0.36328-1.5703-0.54688-2.8594-0.54688-1.0547 0-2.0312 0.10547-2.9375 0.3125-0.89844 0.21094-1.7305 0.52344-2.5 0.9375v-3.7344c1.0391-0.25 2.0859-0.44141 3.1406-0.57812 1.0625-0.13281 2.125-0.20312 3.1875-0.20312 2.7578 0 4.75 0.54688 5.9688 1.6406 1.2266 1.0859 1.8438 2.8555 1.8438 5.3125z"/>
  </symbol>
  <symbol id="a" overflow="visible">
   <path d="m7.7031-19.656v4.3438h5.0469v3.5h-5.0469v6.5c0 0.71094 0.14062 1.1875 0.42188 1.4375s0.83594 0.375 1.6719 0.375h2.5156v3.5h-4.1875c-1.9375 0-3.3125-0.39844-4.125-1.2031-0.80469-0.8125-1.2031-2.1797-1.2031-4.1094v-6.5h-2.4219v-3.5h2.4219v-4.3438z"/>
  </symbol>
  <symbol id="j" overflow="visible">
   <path d="m12.766-13.078v-8.2031h4.9219v21.281h-4.9219v-2.2188c-0.66797 0.90625-1.4062 1.5703-2.2188 1.9844s-1.7578 0.625-2.8281 0.625c-1.8867 0-3.4336-0.75-4.6406-2.25-1.2109-1.5-1.8125-3.4258-1.8125-5.7812 0-2.3633 0.60156-4.2969 1.8125-5.7969 1.207-1.5 2.7539-2.25 4.6406-2.25 1.0625 0 2 0.21484 2.8125 0.64062 0.82031 0.42969 1.5664 1.0859 2.2344 1.9688zm-3.2188 9.9219c1.0391 0 1.8359-0.37891 2.3906-1.1406 0.55078-0.76953 0.82812-1.8828 0.82812-3.3438 0-1.457-0.27734-2.5664-0.82812-3.3281-0.55469-0.76953-1.3516-1.1562-2.3906-1.1562-1.043 0-1.8398 0.38672-2.3906 1.1562-0.55469 0.76172-0.82812 1.8711-0.82812 3.3281 0 1.4609 0.27344 2.5742 0.82812 3.3438 0.55078 0.76172 1.3477 1.1406 2.3906 1.1406z"/>
  </symbol>
  <symbol id="i" overflow="visible">
   <path d="m10.5-3.1562c1.0508 0 1.8516-0.37891 2.4062-1.1406 0.55078-0.76953 0.82812-1.8828 0.82812-3.3438 0-1.457-0.27734-2.5664-0.82812-3.3281-0.55469-0.76953-1.3555-1.1562-2.4062-1.1562-1.0547 0-1.8594 0.38672-2.4219 1.1562-0.55469 0.77344-0.82812 1.8828-0.82812 3.3281 0 1.4492 0.27344 2.5586 0.82812 3.3281 0.5625 0.77344 1.3672 1.1562 2.4219 1.1562zm-3.25-9.9219c0.67578-0.88281 1.4219-1.5391 2.2344-1.9688 0.82031-0.42578 1.7656-0.64062 2.8281-0.64062 1.8945 0 3.4453 0.75 4.6562 2.25 1.207 1.5 1.8125 3.4336 1.8125 5.7969 0 2.3555-0.60547 4.2812-1.8125 5.7812-1.2109 1.5-2.7617 2.25-4.6562 2.25-1.0625 0-2.0078-0.21094-2.8281-0.625-0.8125-0.42578-1.5586-1.0859-2.2344-1.9844v2.2188h-4.8906v-21.281h4.8906z"/>
  </symbol>
  <symbol id="f" overflow="visible">
   <path d="m0.34375-15.312h4.8906l4.125 10.391 3.5-10.391h4.8906l-6.4375 16.766c-0.64844 1.6953-1.4023 2.8828-2.2656 3.5625-0.86719 0.6875-2 1.0312-3.4062 1.0312h-2.8438v-3.2188h1.5312c0.83203 0 1.4375-0.13672 1.8125-0.40625 0.38281-0.26172 0.67969-0.73047 0.89062-1.4062l0.14062-0.42188z"/>
  </symbol>
  <symbol id="h" overflow="visible">
   <path d="m0.14062-20.406h18.812v3.9688h-6.7656v16.438h-5.2656v-16.438h-6.7812z"/>
  </symbol>
  <symbol id="g" overflow="visible">
   <path d="m17.75-9.3281v9.3281h-4.9219v-7.1406c0-1.3203-0.03125-2.2344-0.09375-2.7344s-0.16797-0.86719-0.3125-1.1094c-0.1875-0.3125-0.44922-0.55469-0.78125-0.73438-0.32422-0.17578-0.69531-0.26562-1.1094-0.26562-1.0234 0-1.8242 0.39844-2.4062 1.1875-0.58594 0.78125-0.875 1.8711-0.875 3.2656v7.5312h-4.8906v-15.312h4.8906v2.2344c0.73828-0.88281 1.5195-1.5391 2.3438-1.9688 0.83203-0.42578 1.75-0.64062 2.75-0.64062 1.7695 0 3.1133 0.54688 4.0312 1.6406 0.91406 1.0859 1.375 2.6562 1.375 4.7188z"/>
  </symbol>
  <symbol id="r" overflow="visible">
   <path d="m12.422-21.281v3.2188h-2.7031c-0.6875 0-1.1719 0.125-1.4531 0.375-0.27344 0.25-0.40625 0.6875-0.40625 1.3125v1.0625h4.1875v3.5h-4.1875v11.812h-4.8906v-11.812h-2.4375v-3.5h2.4375v-1.0625c0-1.6641 0.46094-2.8984 1.3906-3.7031 0.92578-0.80078 2.3672-1.2031 4.3281-1.2031z"/>
  </symbol>
  <symbol id="e" overflow="visible">
   <path d="m9.6406-12.188c-1.0859 0-1.9141 0.39062-2.4844 1.1719-0.57422 0.78125-0.85938 1.9062-0.85938 3.375s0.28516 2.5938 0.85938 3.375c0.57031 0.77344 1.3984 1.1562 2.4844 1.1562 1.0625 0 1.875-0.38281 2.4375-1.1562 0.57031-0.78125 0.85938-1.9062 0.85938-3.375s-0.28906-2.5938-0.85938-3.375c-0.5625-0.78125-1.375-1.1719-2.4375-1.1719zm0-3.5c2.6328 0 4.6914 0.71484 6.1719 2.1406 1.4766 1.418 2.2188 3.3867 2.2188 5.9062 0 2.5117-0.74219 4.4805-2.2188 5.9062-1.4805 1.418-3.5391 2.125-6.1719 2.125-2.6484 0-4.7148-0.70703-6.2031-2.125-1.4922-1.4258-2.2344-3.3945-2.2344-5.9062 0-2.5195 0.74219-4.4883 2.2344-5.9062 1.4883-1.4258 3.5547-2.1406 6.2031-2.1406z"/>
  </symbol>
  <symbol id="q" overflow="visible">
   <path d="m16.547-12.766c0.61328-0.94531 1.3477-1.6719 2.2031-2.1719 0.85156-0.5 1.7891-0.75 2.8125-0.75 1.7578 0 3.0977 0.54688 4.0156 1.6406 0.92578 1.0859 1.3906 2.6562 1.3906 4.7188v9.3281h-4.9219v-7.9844-0.35938c0.007813-0.13281 0.015625-0.32031 0.015625-0.5625 0-1.082-0.16406-1.8633-0.48438-2.3438-0.3125-0.48828-0.82422-0.73438-1.5312-0.73438-0.92969 0-1.6484 0.38672-2.1562 1.1562-0.51172 0.76172-0.77344 1.8672-0.78125 3.3125v7.5156h-4.9219v-7.9844c0-1.6953-0.14844-2.7852-0.4375-3.2656-0.29297-0.48828-0.8125-0.73438-1.5625-0.73438-0.9375 0-1.6641 0.38672-2.1719 1.1562-0.51172 0.76172-0.76562 1.8594-0.76562 3.2969v7.5312h-4.9219v-15.312h4.9219v2.2344c0.60156-0.86328 1.2891-1.5156 2.0625-1.9531 0.78125-0.4375 1.6406-0.65625 2.5781-0.65625 1.0625 0 2 0.25781 2.8125 0.76562 0.8125 0.51172 1.4258 1.2305 1.8438 2.1562z"/>
  </symbol>
  <symbol id="p" overflow="visible">
   <path d="m17.75-9.3281v9.3281h-4.9219v-7.1094c0-1.3438-0.03125-2.2656-0.09375-2.7656s-0.16797-0.86719-0.3125-1.1094c-0.1875-0.3125-0.44922-0.55469-0.78125-0.73438-0.32422-0.17578-0.69531-0.26562-1.1094-0.26562-1.0234 0-1.8242 0.39844-2.4062 1.1875-0.58594 0.78125-0.875 1.8711-0.875 3.2656v7.5312h-4.8906v-21.281h4.8906v8.2031c0.73828-0.88281 1.5195-1.5391 2.3438-1.9688 0.83203-0.42578 1.75-0.64062 2.75-0.64062 1.7695 0 3.1133 0.54688 4.0312 1.6406 0.91406 1.0859 1.375 2.6562 1.375 4.7188z"/>
  </symbol>
  <symbol id="o" overflow="visible">
   <path d="m2.5781-20.406h5.875l7.4219 14v-14h4.9844v20.406h-5.875l-7.4219-14v14h-4.9844z"/>
  </symbol>
  <symbol id="n" overflow="visible">
   <path d="m2.1875-5.9688v-9.3438h4.9219v1.5312c0 0.83594-0.007813 1.875-0.015625 3.125-0.011719 1.25-0.015625 2.0859-0.015625 2.5 0 1.2422 0.03125 2.1328 0.09375 2.6719 0.070313 0.54297 0.17969 0.93359 0.32812 1.1719 0.20703 0.32422 0.47266 0.57422 0.79688 0.75 0.32031 0.16797 0.69141 0.25 1.1094 0.25 1.0195 0 1.8203-0.39062 2.4062-1.1719 0.58203-0.78125 0.875-1.8672 0.875-3.2656v-7.5625h4.8906v15.312h-4.8906v-2.2188c-0.74219 0.89844-1.5234 1.5586-2.3438 1.9844-0.82422 0.41406-1.7344 0.625-2.7344 0.625-1.7617 0-3.1055-0.53906-4.0312-1.625-0.92969-1.082-1.3906-2.6602-1.3906-4.7344z"/>
  </symbol>
  <symbol id="m" overflow="visible">
   <path d="m2.5781-20.406h8.7344c2.5938 0 4.582 0.57812 5.9688 1.7344 1.3945 1.1484 2.0938 2.7891 2.0938 4.9219 0 2.1367-0.69922 3.7812-2.0938 4.9375-1.3867 1.1562-3.375 1.7344-5.9688 1.7344h-3.4844v7.0781h-5.25zm5.25 3.8125v5.7031h2.9219c1.0195 0 1.8047-0.25 2.3594-0.75 0.5625-0.5 0.84375-1.2031 0.84375-2.1094 0-0.91406-0.28125-1.6172-0.84375-2.1094-0.55469-0.48828-1.3398-0.73438-2.3594-0.73438z"/>
  </symbol>
  <symbol id="l" overflow="visible">
   <path d="m2.3594-15.312h4.8906v15.031c0 2.0508-0.49609 3.6172-1.4844 4.7031-0.98047 1.082-2.4062 1.625-4.2812 1.625h-2.4219v-3.2188h0.85938c0.92578 0 1.5625-0.21094 1.9062-0.625 0.35156-0.41797 0.53125-1.2461 0.53125-2.4844zm0-5.9688h4.8906v4h-4.8906z"/>
  </symbol>
  <symbol id="k" overflow="visible">
   <path d="m14.719-14.828v3.9844c-0.65625-0.45703-1.3242-0.79688-2-1.0156-0.66797-0.21875-1.3594-0.32812-2.0781-0.32812-1.3672 0-2.4336 0.40234-3.2031 1.2031-0.76172 0.79297-1.1406 1.9062-1.1406 3.3438 0 1.4297 0.37891 2.543 1.1406 3.3438 0.76953 0.79297 1.8359 1.1875 3.2031 1.1875 0.75781 0 1.4844-0.10938 2.1719-0.32812 0.6875-0.22656 1.3203-0.56641 1.9062-1.0156v4c-0.76172 0.28125-1.5391 0.48828-2.3281 0.625-0.78125 0.14453-1.5742 0.21875-2.375 0.21875-2.7617 0-4.9219-0.70703-6.4844-2.125-1.5547-1.4141-2.3281-3.3828-2.3281-5.9062 0-2.5312 0.77344-4.5039 2.3281-5.9219 1.5625-1.4141 3.7227-2.125 6.4844-2.125 0.80078 0 1.5938 0.074219 2.375 0.21875 0.78125 0.13672 1.5547 0.35156 2.3281 0.64062z"/>
  </symbol>
 </defs>
 <g>
  <path d="m185.31 308.02c-2.5039-2.4453-4.8125-5.0859-6.8984-7.8945-8.4336-13.32-19.602-19.145-35.332-13.941-1.8828-0.66406-3.6094-1.7031-5.0781-3.0508 5.1211-3.8867 9.6523-7.3242 15.637-11.863-6.9141-12.367-12.227-26.52-21.539-37.172-8.5312-9.7617-21.383-15.742-30.719-27.027 5.5547 0.77344 11.113 1.5508 17.605 2.457-1.9805-12.105-1.3711-24.57-19.117-29.07 16.406-10.262 11.477-24.332 12.543-36.953 1.4336-16.945 9.8984-24.484 24.41-19.691v-0.003906c8.168 3.4258 15.762 8.0859 22.52 13.812 3.6953 3.2383 6.9648 6.9258 9.7383 10.98 2.5195 3.1133 4.75 6.457 7.4766 10.207 3.4297-7.1758 6.2383-13.047 9.043-18.918l3.375 0.79297c0.20703 3.4805 0.17969 6.9727-0.085937 10.449-1.3164 5.3945-2.3125 10.859-2.9805 16.371-0.16016 11.496 2.5156 13.508 16.953 14.109-5.3086 25.426 13.059 42.824 21.523 67.137v-0.003906c6.2539-10.887 8.5742-23.59 6.5742-35.984-1.3438-10.098-15.379-15.551-14.957-32.797 7.9531 7.6133 13.09 12.531 18.594 17.801 20.273-17.719 10.168-41.828 10.633-63.617l5.2734-0.24219c1.5742 5.9102 3.1484 11.82 5.2227 19.613 15.656-9.7305 30.82-19.156 45.816-28.477 3.0586 2.5898 6.8008 8.2617 11.633 9.4336 25.492 6.1758 41.074 22.863 51.719 45.539 1.1758 2.5078 2.7227 4.8398 3.8867 6.8867l19.367 0.003906 1.0078 3.0859-15.434 10.586c-2.3281 25.59 19.977 31.598 31.426 47.422 9.043-11.117 12.648-25.688 9.8359-39.734-0.80859-5.2578-6.1797-10.066-10.086-14.543-5.6211-6.4375-15.188-10.156-14.656-24.277 8.5586 6.3359 15.188 11.246 22.34 16.543 4.2422-12.504 10.375-23.434 11.082-34.703 0.68359-10.891-4.2188-22.133-6.6719-33.223 1.5039-0.64062 3.0117-1.2812 4.5156-1.9219 4.0508 7.1992 8.1016 14.398 12.562 22.332 15.934-5.7617 16.656-19.805 17.793-34.91 6.7188 13.812 19.293 17.914 29.258 25.418 18.758 14.125 27.336 35.012 33.152 57.082 1.0273 3.8984 1.6523 7.8984 2.7539 13.254 24.816-6.1602 36.34-23.199 45.152-45.402-8.1172-3.8281-15.453-7.2852-24.246-11.43-4.2969 13.223-8.2695 25.434-12.996 39.969-4.1836-18.312-1.8086-35.09 7.8086-61.301-2.2266-2.0977-4.7812-4.3672-7.1797-6.793-11.488-11.625-11.363-16.242-0.96484-28.18l0.015626-0.003907c3.875-4.6055 6.9883-9.8008 9.2266-15.391 4.9062-11.859 12.898-15.488 24.891-10.906 6.9062 2.6367 14.277 4.0859 21.09 6.918l-0.003907-0.003906c5.2031 1.7852 9.9492 4.6992 13.895 8.5312 10.5 12.055 7.7578 42.762-5.6016 51.316v-0.003906c-9.4258 6.1875-15.805 16.059-17.566 27.195-4.1914 21.746-18.395 40.242-38.324 49.902-4.9883 2.3711-9.2266 6.0742-12.242 10.703s-4.6953 10-4.8516 15.52c-1.0898 9.7422-2.7539 19.414-4.9805 28.961-3.8867 18.363-13.484 35.023-27.414 47.598s-31.484 20.422-50.145 22.418c-17.785 1.0508-35.613 1.1523-53.406 0.3125 5.4453-4.0742 8.1367-7.7188 11.199-8.0586h-0.003906c7.6875-0.55469 15.406-0.58984 23.098-0.10156 49.551 1.2852 82.477-28.637 89.863-76.602 3.7773-24.527 8.9219-29.18-0.73047-43.988-5.8125 4.5078-11.527 8.9414-19.32 14.988 0.45313-16.141 11.121-22.906 19.801-31.773-6.7188-21.34-14.609-41.996-37.418-51.703-33.727 17.594-43.402 36.766-40.914 74.918h0.003907c1.7812 28.617-9.6211 56.477-30.949 75.637-21.219 19.941-17.988 43.957-18.609 67.918-0.082031 3.1133 5.7031 6.3789 9.7422 10.586-16.16 9.7656-14.945 26.242-18.297 44.422l25.773-11.855 2.6211 3.8945v-0.003906c-3.7109 4.4375-8.0195 8.3359-12.805 11.59-18.5 9.1289-21.48 25.98-23.426 43.68-1.375 12.516-2.9375 25.016-4.3047 37.531 0.082032 3.2305-1.207 6.3477-3.5469 8.5781-2.3438 2.2305-5.5156 3.3672-8.7422 3.1328-25.902-0.53906-51.801-1.4375-77.688-2.4648-1.8359-0.78906-3.4453-2.0234-4.6758-3.5938 1.8438-8.5117 8.125-6.3633 13.426-6.1992 18.238 0.57422 36.473 1.7891 54.707 1.6953 18.016-0.09375 23.039-7.3125 19.598-25.059l-0.003907 0.003907c-0.64453-3.9258-0.64844-7.9297-0.007812-11.855 5.7227-40.84 12.469-81.559 17.145-122.52 3.3711-28.512 5.0391-57.199 4.9883-85.914-0.21094-25.328-7.0859-50.152-19.938-71.98-4.4805-8.625-11.234-15.859-19.531-20.926-8.293-5.0664-17.812-7.7695-27.535-7.8164l-4.6641 17.656c-1.1758-0.054687-2.3281-0.36719-3.3711-0.91797-1.207-5.1953-2.1133-10.457-3.1406-15.898-24.293 8.6328-30.758 17.656-29.242 40.312-3.3438-0.99219-6.9609-0.41016-9.8203 1.5898s-4.6484 5.1914-4.8633 8.6758c-3.6914 17.051-8.4258 33.965-10.766 51.199-5.6094 41.324 1.3711 82.109 5.8555 123.14 4.0781 37.293 14.875 72.449 26.32 107.69l0.003906 0.003906c-0.23828 2.7734-1 5.4805-2.2383 7.9727-3.2344-2.4688-6.0547-5.4414-8.3477-8.8008-3.418-8.4297-5.5078-17.391-8.8164-25.871-5.7852-17.617-19.391-31.566-36.855-37.789-6.2695-2.6641-12.375-5.6875-18.289-9.0625 16.727-3.2773 19.234-2.5352 44.242 11.996-1.8477-14.547 0-29.191-6.0078-39.047-5.8828-9.6484-19.766-14.418-29.195-24.859 7.8242 0.70703 15.645 1.4102 26.426 2.3867-0.875-12.395-1.7188-24.309-2.5742-36.445-19.629 2.9297-19.629 2.9297-39.066-8.8477v-0.003906c-0.94922-0.875-1.9453-1.6992-2.9805-2.4727zm-37.754-151.02c-0.86719-4.0898-1.3555-6.0938-1.7109-8.1211-2.0039-11.48-6.6055-16.32-14.934-15.254-9.6172 1.2305-10.16 8.7461-9.6172 15.801 1.9453 25.211 4.5 50.074 14.754 73.977 11.594 27.031 31.109 47.785 49.441 69.672 10.32 12.324 22.566 18.07 40.848 10.188-4.9805-58.289-38.5-104.06-66.215-152.59-4.9258 2.4805-7.8789 3.9727-12.566 6.332zm234.23 83.234v41.348c8.2656-9.3906 13.629-15.48 20.207-22.957-7.1172-6.4805-13.027-11.855-20.207-18.391zm183.61-148.05c2.9922 6.7031 6.3711 13.227 10.125 19.535 2.4844 2.0117 5.4023 3.4219 8.5234 4.1133 1.25-3.5859 4.5312-8.2266 3.332-10.543v0.003907c-3.1875-4.8906-6.9648-9.3633-11.246-13.328 1.8359-4.9805 3.2305-8.7539 4.625-12.531l-3.8398-2.1914c-3.9258 5.0898-7.8477 10.176-11.52 14.941zm-17.344 7.9219c-4.875-3.0117-8.0703-6.5664-10.84-6.2656h-0.003906c-3.3203 1.4727-6.2383 3.7227-8.5 6.5664 2.8438 2.5703 5.4961 6.8516 8.5859 7.1953 2.6758 0.30078 5.8516-3.8633 10.758-7.4961zm12.957-14.133c-3.7812-7.4805-5.9844-12.18-8.7148-16.547h-0.003906c-2.3047 0.25781-4.4688 1.2305-6.1953 2.7773-0.69141 6.4688 1.0469 12.023 14.914 13.77zm-7.2695 52.473 3.0117-3.8203c-3.1133-1.7852-6.2227-3.5703-9.3359-5.3555l-1.9688 3.1133z"/>
  <path d="m459.26 204.86c-2.707-11.371-2.5156-21.969 8.7148-30.785 0.92578 15.781 0.92578 15.781-8.7148 30.785z"/>
  <path d="m272.2 252.26c-4.207-8.6406-8.4102-17.281-13.906-28.574 14.977 6.2656 15.414 7.0625 13.906 28.574z"/>
  <path d="m319.89 214.29c-2.9141 8.4531-5.832 16.902-9.2266 26.75-5.4453-14.586-5.4453-14.586 4.8359-27.98z"/>
  <path d="m430.77 273.79c4.7773-12.359 14.098-14.758 27.727-12.008-7.8555 9.6406-17.566 11.031-27.727 12.008z"/>
  <path d="m185.31 308.02c1.0352 0.77344 2.0312 1.5977 2.9805 2.4727-7.5469 6.4844-7.5469 6.4844-19.234 5.7617 2.8438-8.6367 10.277-7.0938 16.254-8.2344z"/>
  <path d="m284.67 382.3c-6.8516-6.3477-13.512-10.914-7.7578-22.258 7.9922 5.9414 11.305 11.82 7.7578 22.258z"/>
  <path d="m274.57 302.02c7.8984 6.7383 7.8984 6.7383 8.4648 18.578-8.9922-8.1055-8.9922-8.1055-8.4648-18.578z"/>
  <path d="m334.61 381.3c-3.4727-9.5039 1.1445-16.305 6.2383-22.941 3.6875 9.5781-2.5898 15.82-6.2383 22.941z"/>
  <path d="m291.1 419.73v-20.43c6.6406 12.043 6.6406 12.043 0 20.43z"/>
  <path d="m333.5 288.73-5.2461 18.539c-7.043-8.3125-5.5703-14.578 5.2461-18.539z"/>
  <path d="m412.27 303.96c8.1719-0.62891 13.426-1.0352 20.578-1.5859-8.6523 10.184-8.6523 10.184-20.578 1.5859z"/>
  <path d="m285.05 443.97 18.027 15.02c-14.27 2.7656-17.32-4.7891-21.879-10.031z"/>
  <path d="m158.61 206.12 12.254 20.902c-9.4062-4.1289-17.328-9-17.641-18.754 1.7969-0.71484 3.5938-1.4336 5.3867-2.1484z"/>
  <path d="m191.43 276.57c-6.0156-3.7227-11.82-7.582-10.367-21.43 6.4648 8.4102 10.406 13.539 14.348 18.668z"/>
  <use x="70" y="644" xlink:href="#s"/>
  <use x="90.550781" y="644" xlink:href="#d"/>
  <use x="104.359375" y="644" xlink:href="#c"/>
  <use x="123.347656" y="644" xlink:href="#b"/>
  <use x="142.242188" y="644" xlink:href="#a"/>
  <use x="155.628906" y="644" xlink:href="#c"/>
  <use x="174.617188" y="644" xlink:href="#j"/>
  <use x="204.410156" y="644" xlink:href="#i"/>
  <use x="224.453125" y="644" xlink:href="#f"/>
  <use x="252.453125" y="644" xlink:href="#h"/>
  <use x="271.550781" y="644" xlink:href="#b"/>
  <use x="290.445312" y="644" xlink:href="#a"/>
  <use x="303.828125" y="644" xlink:href="#f"/>
  <use x="322.082031" y="644" xlink:href="#b"/>
  <use x="340.976562" y="644" xlink:href="#g"/>
  <use x="360.910156" y="644" xlink:href="#b"/>
  <use x="70" y="672" xlink:href="#r"/>
  <use x="82.183594" y="672" xlink:href="#d"/>
  <use x="95.992188" y="672" xlink:href="#e"/>
  <use x="115.226562" y="672" xlink:href="#q"/>
  <use x="154.152344" y="672" xlink:href="#a"/>
  <use x="167.535156" y="672" xlink:href="#p"/>
  <use x="187.46875" y="672" xlink:href="#c"/>
  <use x="216.207031" y="672" xlink:href="#o"/>
  <use x="239.640625" y="672" xlink:href="#e"/>
  <use x="258.878906" y="672" xlink:href="#n"/>
  <use x="278.8125" y="672" xlink:href="#g"/>
  <use x="308.492188" y="672" xlink:href="#m"/>
  <use x="329.015625" y="672" xlink:href="#d"/>
  <use x="342.820312" y="672" xlink:href="#e"/>
  <use x="362.058594" y="672" xlink:href="#l"/>
  <use x="371.65625" y="672" xlink:href="#c"/>
  <use x="390.648438" y="672" xlink:href="#k"/>
  <use x="407.242188" y="672" xlink:href="#a"/>
 </g>
</svg>
