<?xml version="1.0" encoding="UTF-8"?>
<svg width="1200pt" height="1200pt" version="1.1" viewBox="0 0 1200 1200" xmlns="http://www.w3.org/2000/svg">
 <g>
  <path d="m1165.2 306.67c-1.8008-12.406-7.6211-23.879-16.574-32.652s-20.543-14.359-32.98-15.906c-21.723-1.2891-19.988-11.227-17.629-25.902h-0.003906c2.0469-10.012 2.6523-20.262 1.8008-30.441-0.64062-8.7422-4.7422-16.871-11.395-22.578-6.6523-5.7109-15.309-8.5273-24.047-7.832-23.699 0.58594-46.359 9.8594-63.668 26.055-17.312 16.199-28.07 38.191-30.227 61.801-1.0156 4.875-4.0234 9.1016-8.2969 11.652-39.348 23.293-80.238 44.223-118.14 69.629-27.16 18.211-49.383 26.848-70.758-5.3867-90.633-51.191-182.96-87.449-289.23-46.676v0.003906c-52.254 17.734-95.555 55.109-120.73 104.21-0.58203-0.98047-1.1523-1.9688-1.7695-2.9258v-0.003906c-2.3438-4.043-5.7969-7.3242-9.957-9.457l-0.19531-0.070313c-1.5156-3-3.7539-5.5781-6.5117-7.5-22.676-21.926-44.406-44.969-68.398-65.344l-0.003906-0.003906c-22.535-20.262-37.273-47.77-41.66-77.758-5.6953-35.188-27.07-65.883-58.102-83.422-30.066-16.781-58.75-3.4922-65.148 30.191-2.1602 11.359-3.168 22.941-4.5781 33.465-21.406 8.0195-41.141 14.074-59.469 23.008h-0.003907c-7.3242 4.2617-12.152 11.789-12.957 20.227 4.125 36.457 15.727 80.914 68.242 82.867 12.961 0.48047 25.961 1.2383 38.816 2.8672 7.332 0.31641 14.473 2.4453 20.781 6.1953 50.715 38.773 99.93 79.598 151.84 116.67 16.891 12.066 17.586 24.176 16.988 40.934-3.5312 40.473 5.0703 81.086 24.711 116.65 9.4688 15.641 8.9062 28.117-5.957 39.75-52.305 40.945-104.35 82.23-156.79 123h0.003906c-4.0703 2.2305-8.7969 2.9492-13.344 2.0273-53.238-7.3203-111.88 28.754-127.16 78.562-3.207 11.711-1.0469 24.246 5.9023 34.207 6.9453 9.9609 17.957 16.32 30.059 17.359 7.2773 0.35156 14.602-0.35156 23.113-0.60938 0.30859 26.344 7.1602 47.23 30.145 58.715 37.184 18.586 101.01-9.1094 110.21-49.496l0.003907 0.003907c3.7539-23.332 6.3008-46.84 7.6211-70.434-0.29297-7.6484 1.9883-15.172 6.4883-21.367 47.32-32.543 95.363-64.047 143.61-95.223h-0.003907c6.0391-2.293 12.457-3.4414 18.918-3.3789-0.16016 6.0742-0.95703 12.113-2.3672 18.023-14.07 40.379-18.312 80.34 4.2148 119.25 13.117 22.656 30.012 31.711 54.762 24.398 18-6.957 35.355-15.484 51.859-25.484 28.203 36.324 61.234 37.43 104.44-0.12109 4.6406 3.2344 9.8086 6.4219 14.516 10.184 53.242 42.602 113.43 20.684 126.36-46.309 2.7422-14.195 4.0469-28.668 6.0117-43.012l6.8281-3.8164c38.41 40.715 76.82 81.426 115.77 122.71-29.926 38.516-7.2539 102.43 23.289 132.23 22.539 21.988 58.547 27.953 74.746 10.48l0.003907-0.003906c13.727-18.043 23.348-38.871 28.184-61.023 3.4492-11.488 4.7891-18.656 18.16-22.062 10.617-2.3438 19.93-8.668 26.016-17.676 6.0898-9.0078 8.4883-20.008 6.707-30.73-1.4102-12.93-3.9453-25.711-7.5703-38.199-9.9648-37.895-40.398-55.582-72.676-70.023-10.621-2.543-21.551-3.5312-32.457-2.9336-6.2305 0.30078-12.43-1.082-17.941-4-38.098-33.492-75.445-67.832-113.26-101.65-11.832-10.578-11.988-19.555-3.1055-33.484v-0.003906c20.113-29.359 33.027-63.047 37.691-98.332 4.3281-39.469-6.2422-74.809-18.867-110.31-2.5352-4.0898-3.1211-9.0938-1.6055-13.66 1.5195-4.5664 4.9844-8.2227 9.4609-9.9805 6.0508-3.1836 11.887-6.9102 18.195-9.457 34.77-14.043 69.402-28.504 104.66-41.223l0.003906-0.003906c10.898-4.25 22.801-5.2422 34.25-2.8477 39.598 11 73.246-3.5195 105.15-22.914 19.223-11.688 38.332-26.965 35.02-53.707zm-841.03 132.02c-51.09-41.512-102.29-82.902-152.83-125.07-10.578-8.8281-18.41-13.922-32.305-5.2773-16.949 10.547-49.793 2.582-62.555-12.555-11.18-13.262-16.133-38.176-8.8828-44.691h-0.003906c9.1484-7.207 20.449-11.129 32.094-11.141 11.645-0.007812 22.953 3.8945 32.113 11.086 7.1445 6.3594 15.391 11.359 24.332 14.758 7.1484 0.67969 14.363-0.0625 21.227-2.1719 0.003907-7.625-1.5703-15.168-4.6211-22.156-7.5469-7.9141-15.781-15.141-24.605-21.594-10.785-9.8242-14.34-41.953-3.9219-49.383 15.379-10.965 28.684 0.28125 36.289 11.5 12.18 16.891 21.523 35.652 27.672 55.547 8.8633 32.668 14.441 65.453 47.809 84.203 9.5859 6.6992 18.324 14.535 26.023 23.336 17.383 16.555 34.234 33.699 52.199 49.59l0.0625 0.039063v-0.003907c5.7852 7.4766 12.125 14.508 18.961 21.035l0.12109 0.09375c-1.1758 3.2031-2.3398 6.418-3.3984 9.7383h-0.003906c-3.0742 7.4141-6.7695 14.551-11.047 21.344-5.1133-2.3594-10.039-5.1055-14.73-8.2227zm69.051 279.05c-1.6133 1.7109-3.5117 3.1289-5.6094 4.1953 0.1875 0.17578 0.38281 0.34766 0.56641 0.52734-25.539 17.109-52.137 35.332-79.152 52.902-23.414 15.227-47.629 29.234-70.859 44.727-5.7812 3.2305-9.8984 8.7812-11.309 15.25-1.4062 6.4688 0.027344 13.234 3.9414 18.574 7.3867 13.5 9.7578 29.184 6.6875 44.27-3.0703 15.082-11.383 28.594-23.461 38.133-12.082 9.5391-27.148 14.496-42.535 13.984-10.062-0.31641-28.211-8.9062-28.152-13.492h0.003906c2.0977-12.113 6.918-23.598 14.094-33.582 3.9141-7.1562 14.688-14.359 13.578-19.711-2.6836-12.953-12.426-17.801-26.785-11.586v0.003906c-14.758 6.7539-30.258 11.754-46.18 14.887-14.305 2.4766-19.668-7.4688-16.508-20.895 5.9844-25.418 44.008-56.102 69.805-56.414h-0.003907c5.3555-0.74219 10.812 0.20703 15.602 2.7109 16.414 13.941 28.75 5.6914 41.438-5.5625 43.449-38.535 86.727-77.281 130.84-115.05v0.003906c10.699-8.5156 22.66-15.301 35.453-20.121 3.8516-0.78906 7.8555-0.23047 11.34 1.5898 6.5234 1.2227 12.25 5.0938 15.824 10.684 3.5703 5.5938 4.6719 12.418 3.043 18.852-1.6328 6.4336-5.8516 11.906-11.656 15.121zm557.92 117.16c18.441 16.375 22.043 16.473 35.898-5.4375 52.453 21.918 71.441 37.418 74.652 82.793-0.19141 10.312-5.1367 19.957-13.395 26.137-5.0273 3.0195-17.77-4.1406-25.578-9.0938-9.3828-5.9453-15.109-24.922-29.238-11.727-13.371 12.488-0.33203 23.133 8.4453 32.734 15.266 16.699 12.16 61.5-4.2656 76.906-9.7734 9.168-34.082 5.2422-48.496-7.9258-27.184-24.824-32.262-55.133-21.863-90.031l-0.003906 0.007812c3.3633-14.77 4.8594-29.906 4.4531-45.047-0.81641-4.6602-3.293-8.8672-6.9727-11.84-32.055-30.68-64.293-61.172-96.711-91.473v0.003906c-9.293-9.0703-19.512-17.145-30.484-24.086-11.066-6.6016-16.281-16.344-8.1406-24.641 7.7461-7.8984 16.73-24.418 33.566-9.4531 42.426 37.711 85.684 74.484 128.13 112.17zm-142.66-161.28c-12.035 15.957-30.945 27.648-39.758 44.852-8.0664 15.75-7.293 36.238-9.4375 54.758-1.1367 23.07-3.4766 46.062-7.0117 68.891-2.5391 11.301-9.7422 21-19.824 26.699-10.086 5.6992-22.113 6.8672-33.105 3.2109-22.832-6.2383-51.352-31.125-45.289-55.648 2.6914-10.887-3.918-24.188-7.1094-36.176-3.3906-1.0039-7.0117-0.90625-10.348 0.26953-4.1875 10.871-7.6992 21.988-10.512 33.293-1.8047 12.703-4.5586 25.258-8.2383 37.551-2.6797 7.9531-8.6875 14.348-16.461 17.52-7.7734 3.1719-16.539 2.8086-24.02-1-17.477-5.9688-19.969-19.191-18.984-34.41h-0.003907c2.1797-9.9922 3.2656-20.195 3.2422-30.422-3.3125-7.4102-8.1953-14.016-14.309-19.359-5.2305 4.3594-9.4297 9.8164-12.297 15.992-3.0156 21.957-13.672 42.148-30.094 57.027-9.4141 8.3477-21.68 12.758-34.254 12.316-10.23-4.4023-18.078-12.984-21.551-23.566-10.023-27.414-8.1094-57.77 5.2695-83.711 9.9766-21.77 3.1016-35.059-14.871-51.012-14.312-12.707-22.699-32.023-33.988-48.219-28.055-40.25-54.262-81.848-53.781-132.92 0.9375-99.375 49.969-178.7 141.13-220.17 22.301-10.148 49.5-9.5391 67.387-12.648 141.03 12.395 237.39 53.852 283.96 192.46 23.367 69.551 6.043 129.03-35.742 184.43zm323.07-348.03c-18.539 22.773-45.797 36.699-75.113 38.379-9.2383-3.9414-18.809-7.0508-28.598-9.2969-10.848-2.6992-22.199-2.5898-32.992 0.3125-45.629 17.949-90.68 37.422-135.58 57.152-15.918 6.9961-21.598-2.4453-28.938-13.258-8.1211-11.961 0.14844-16.863 7.2383-23.574 41.32-39.113 92.504-61.145 144.32-81.059l-0.007812-0.003906c5.2539-1.0117 9.7969-4.2734 12.434-8.9297 2.6328-4.6523 3.0977-10.227 1.2617-15.25-1.9375-18.047 3.8711-36.066 15.988-49.574 12.117-13.512 29.402-21.242 47.551-21.27 11.758 0.18359 17.594 5.4727 15.285 16.141-3.8516 17.793-10.098 35.055-14.434 52.766v-0.003907c-1.9492 9.918-3.3906 19.926-4.3125 29.988 9.3984-0.78906 18.652-2.7812 27.543-5.9258 7.332-3.8516 15.641-5.4609 23.883-4.6211 8.2383 0.83984 16.051 4.0859 22.461 9.3359 4.6953 3.1133 7.6758 8.2305 8.0664 13.852 0.39453 5.6211-1.8438 11.102-6.0586 14.84z"/>
  <path d="m785.11 531.14c-3.8594 35.742-11.238 72.691-45.859 94.426-28.738 18.043-64.969 22.484-93.234-6.4883-43.695-44.789-35.012-120.48 5.9844-158.71v-0.003907c1.5508-2.2617 3.7188-4.0312 6.2461-5.1016 27.828 1.0703 56.078-9.7656 83.445 6.1875 25.797 13.898 42.312 40.414 43.418 69.695z"/>
  <path d="m570.93 556.3c2.1914 16.398-1.1836 33.059-9.5859 47.312-8.4023 14.25-21.344 25.27-36.75 31.293-27.027 12.371-49.441 2.6953-70.629-12.57-22.305-16.07-32.957-66.625-22.629-101.38 7.4531-25.07 39.824-53.023 65.156-52.801h-0.003907c9.9609 1.8477 19.168 6.5625 26.488 13.566 25.223 19.363 50.855 38.934 47.953 74.582z"/>
 </g>
</svg>
