<?xml version="1.0" encoding="UTF-8"?>
<svg width="1200pt" height="1200pt" version="1.1" viewBox="0 0 1200 1200" xmlns="http://www.w3.org/2000/svg">
 <g>
  <path d="m1032.5 894.14c19.055 17.809 37.742 34.02 54.961 51.672h-0.003906c23.398 22.656 40.125 51.297 48.371 82.805 5.7227 24.008 9.2227 48.551 13.473 72.898 1.0039 3.2578 0.13281 6.8047-2.2695 9.2227-2.3984 2.4219-5.9375 3.3242-9.2031 2.3477-11.727-1.3516-23.324-3.6797-34.664-6.9531-34.918-9.3359-67.699-25.328-96.551-47.102-30.176-22.473-54.633-51.742-71.387-85.434-3.0859-8.0039-5.4961-16.25-7.2031-24.652-1.4844-5.418-2.7461-10.895-4.4961-17.895-14.57 15.914-26.953 31.367-41.348 44.641l-0.003906-0.003906c-15.531 14.418-32.16 27.609-49.73 39.453-17.562 11.781-36.098 22.043-55.402 30.672-13.723 5.3477-28.051 8.9961-42.656 10.867-7.5508 1.2969-9.9297 2.6406-5.9492 9.8594h-0.003906c10.125 18.793 15.773 39.668 16.516 61.004 0.37109 12.906-0.25781 25.828-1.8789 38.641-0.074219 3.168-1.6094 6.1211-4.1602 8-2.5508 1.8828-5.8281 2.4766-8.875 1.6094-22.652-3.4844-45.301-7.0078-68.004-10.125-37.516-5.1523-73.836-13.57-103.61-38.926-12.852-10.945-26.48-22.066-27.125-41.023v-0.003906c0.21484-8.6836 0.92188-17.348 2.125-25.953-18.34-4.6328-39.773-10.133-61.246-15.457-31.348-8.3438-61.371-21.031-89.203-37.688-22.324-12.793-46.285-22.699-69.215-34.473-10.141-5.207-19.305-12.301-29.398-17.609h-0.003906c-3.9141-1.3906-8.1602-1.5508-12.168-0.45703-18.309 3.4375-36.5 7.4922-54.816 10.875h-0.003906c-3.9297 0.41797-7.9023 0.074219-11.699-1.0078-4.5234-0.23437-8.668-2.5898-11.188-6.3516s-3.1133-8.4922-1.6094-12.762c2.6875-14.277 10.234-27.188 21.355-36.535 5.0312-4.5508 9.8086-9.375 14.305-14.457 1.3555-2.2812 1.7578-5.0039 1.1289-7.582-0.9375-5.6836-2.5312-11.242-4.7461-16.559-9.6836-20.895-3.7617-42.789-3.8359-64.117-0.046875-13.293 21.832-18.461 33.781-8.4336 7.0117 6.1836 13.57 12.867 19.621 19.996 1.2266 1.9727 3.2383 3.332 5.5312 3.7305 2.2891 0.39844 4.6445-0.19531 6.4688-1.6367 19.422-10.816 39.285-20.844 58.641-31.773 3.668-2.7695 6.6172-6.3789 8.5977-10.523 5.2773-11.297 11.684-22.027 19.113-32.035 12.184-13.031 29.949-10.633 45.441-8.0508 13.082 3.5156 25.883 8 38.297 13.418 3.6719 1.1172 7.6211 0.91797 11.16-0.57031 21.703-11.453 45.676-17.949 70.188-19.02 2.0664-0.050782 3.9883-1.0703 5.1875-2.7539 5.9375-22.59 23.25-35.949 40.707-48.332 19.539-13.863 38.863-29.059 64.031-31.965 11.273-2.2266 22.746-3.3008 34.238-3.2031 23.336 1.6914 46.785-1.0703 69.09-8.1367 3.9023-1.9844 8.3906-2.5039 12.645-1.457 4.2539 1.0469 7.9883 3.5859 10.527 7.1562 1.957 3.4375 2.8008 7.3984 2.4141 11.336-0.39062 3.9375-1.9883 7.6562-4.582 10.645-5.8047 8.2773-8.2227 18.461-6.7617 28.465 0.48828 7.082-1.5859 14.105-5.8359 19.793-7.3828 10.844-16.516 20.496-26.289 32.285 70.484 21.035 130.24 61.543 189.13 108.12 2.9219-14.242 6.082-25.598 7.4727-37.168 4.1367-34.379 24.543-57.234 51.312-76.484v-0.003906c27.137-17.051 55.855-31.441 85.758-42.969 22.074-8.8555 45.293-14.516 68.965-16.816 5.0273-0.13672 10.051 0.28125 14.984 1.2422 2.9766-0.054688 5.8047 1.3086 7.6133 3.6758 1.8086 2.3633 2.3828 5.4492 1.5508 8.3086-1.2188 20.488-3.8984 40.867-8.0156 60.977-12.383 47.094-32.852 90.168-74.004 119.57v-0.003906c-10.691 6.6211-21.93 12.305-33.598 16.992-3.9062 1.6211-7.8984 3.0156-11.961 4.1797zm-451.29-13.488c4.0703 2.5547 8.6875 4.1172 13.473 4.5625 4.2383-2.9062 7.7266-6.7812 10.172-11.305l-15.168 2.7734-2.2031-3.8398c2.0586-0.50781 3.9531-1.5273 5.5156-2.957 0.66406-4.9492 0.47656-9.9727-0.55859-14.859-2.4375-1.8125-5.5664-2.4297-8.5117-1.6758-4.1484 4.5039-11.766 8.1641-6.9102 16.75v-0.003906c1.6953 3.4883 3.1523 7.0898 4.3555 10.773-1.8555-1.9609-4.0469-3.5703-6.4727-4.7578-5.707-1.7031-11.625-2.5938-17.582-2.6484-1.8047 3.3945-2.7891 7.168-2.875 11.016-0.59375 6.4492-0.070312 13-0.69141 19.445-1.4023 14.496-1.5703 14.477 13.527 15.586l-6.7734-18.488 8.8828-1.9492-4.3945-13.102 3.6523-1.9219 12.562 23.707c-0.003906-9.3477-0.003906-18.23 0-27.105zm-289.07 62.133c4.2695 2.75 7.3984 4.5391 10.281 6.6641v-0.003907c23.016 16.785 48.684 29.59 75.941 37.875 12.312 3.832 24.336 6.7227 35.281-3.9844h-0.003906c3.1562-1.6875 6.6602-2.6055 10.234-2.6875 22.457-5 46.809-8.2656 62.586-25.918 11.02-14.344 19.809-30.277 26.062-47.25 16.09-36.062-4.4688-77.633-36.738-95.992-2.7852-1.9531-6.2656-2.6328-9.582-1.8789-3.3164 0.75781-6.1562 2.8828-7.8203 5.8477-6.7773 8.6953-15.641 15.535-25.77 19.883-23.926 9.1055-60.812-7.2773-72.742-31.004-0.75391-3.2227-3.0117-5.8828-6.0664-7.1484-3.0586-1.2656-6.5352-0.98438-9.3477 0.75391-17.453 9.2539-34.758 18.848-51.523 29.266-3.2891 3.2383-4.6562 7.9453-3.6172 12.441 9.6602 19.422 14.77 40.789 14.938 62.48-0.41016 9.5-2.2656 18.883-5.4961 27.828-1.75 4.4961-3.9648 8.7969-6.6172 12.828zm317.84 124.02v-0.003906c2.0703 4.0391 4.625 7.8125 7.6094 11.234 18.148 15.332 39.836 25.887 63.098 30.703 9.5 1.6602 18.898 3.8438 28.152 6.5508 2.6328 1.875 4.7812 4.3516 6.2617 7.2266-3.3438 0.96484-6.8047 1.4922-10.285 1.5664-3.0039-0.29688-5.7617-3.332-8.7461-3.5586h-0.003907c-24.309-3.0859-47.699-11.234-68.672-23.914-11.887-5.9492-20.418-16.992-23.172-29.996-15.27-0.95703-30.684-1.1992-45.895-3.0977h0.003906c-5.1562-1.8125-10.895-0.49219-14.738 3.3906-3.8438 3.8867-5.1055 9.6367-3.2383 14.773 2.7188 15.496 11.77 29.156 24.977 37.699 30.41 20.789 65.867 32.98 102.63 35.289 17.875 1.9375 35.863 3.1602 53.582 6.043 8.9062 1.4492 11.148-1.8945 11.199-9.3047 0.082031-11.398 0.45703-22.82-0.078125-34.195-0.77734-16.52-1.4492-15.934-18.059-19.238v-0.007812c-13.992-3.1445-27.785-7.1289-41.301-11.926-2.1797-1.9414-3.8164-4.4102-4.7617-7.1719 3.0938-0.57812 6.2266-0.93359 9.3711-1.0547 1.7188 0.50781 3.3633 1.2539 4.8789 2.2109 14.23 6.2539 29.457 9.9219 44.973 10.84-2.3984-6.2461-5.2891-12.293-8.6484-18.082-2.3281-4.168-6.1758-7.2734-10.738-8.6719-13.23-0.30859-26.492 1.4492-39.762 1.9648-13.621 0.52734-27.266 0.52734-40.902 0.71875-4.8477 0.066407-9.6992 0.007813-17.738 0.007813zm-39.199-346.12 1.4062 3.0781c1.6016 0.53516 3.25 0.91016 4.9219 1.1211 16.898 0.53906 33.891 0.0625 50.676 1.6914 17.156 3.0352 34.832-0.22266 49.777-9.1797 12.977-8.2266 30.625-9.1523 46.273-13.02v-0.003907c2.4258-0.082031 4.8516 0.28516 7.1445 1.0898l0.37891 3.9727c-9.3555 2.3555-18.848 4.2812-28.027 7.1875-9.4336 2.9844-18.562 6.9258-29.711 11.164 9.1914 2.8906 15.926 5.4883 22.891 7.0664 6.9609 2.5469 14.395 3.5391 21.781 2.9062 19.355-4.9062 36.199-31.051 36.508-50.977v0.003906c1.1719-8.293 3.3203-16.418 6.4023-24.207 1.2305-4.6016 2.1914-9.2773 3.2695-13.922v-0.003907c-5.0742-2.1094-10.555-3.0547-16.043-2.7695-21.879 7.1406-44.93 9.9922-67.887 8.3906-50.34-2.0312-88.184 24.406-120.88 59.602-2.7383 3.9492-4.9141 8.2656-6.457 12.816l2.6484 1.3555c3.0352-3.7344 5.8125-7.7148 9.1406-11.164 18.949-17.961 42.512-30.297 68.062-35.637 33.938-8.9609 68.508-15.566 102.91-22.695 3.7383 0.33203 7.3516 1.5039 10.574 3.4297-2.8047 2.9609-6.1992 5.3008-9.957 6.8789-10.383 0.39844-20.734 1.3359-31.02 2.8125-34.371 9.1484-68.68 18.723-102.45 29.836h-0.003906c-11.453 5.1719-22.297 11.605-32.332 19.176zm569.61-16.336-3.0469-1.8945h0.003906c-68.488 55.059-130.97 117.2-186.4 185.39 5.2188 0.46875 10.48 0.011719 15.543-1.3516 11.016-6.6289 21.48-14.191 31.984-21.637v0.003906c10.965-6.9336 21.402-14.664 31.23-23.133 34.207-32.051 64.777-67.773 91.164-106.52 6.7266-10.141 13.027-20.566 19.52-30.859zm-197.33 178.95c51.152-68.203 114-124.93 177.73-180.77-83.27 22.797-160.8 96.742-177.73 180.77zm-1.4453 9.4023-1.8906 3.2773-0.003906-0.003906c25.543 35.633 54.797 68.449 87.27 97.898 32.363 29.102 64.488 58.367 98.867 85.191-12.477-17.273-25.836-33.594-39.652-49.516-18.055-20.801-35.469-42.309-55.02-61.629-20.898-20.652-43.809-39.293-66.168-58.426-7.2695-6.2188-15.574-11.23-23.406-16.797zm167.51-199.48h-0.003906c-1.0625-0.13672-2.1406-0.125-3.2031 0.035156-45.688 12.043-88.898 32.035-127.66 59.062-8.9922 5.9297-16.996 13.234-23.727 21.645-11.312 17.625-18.578 37.539-21.27 58.309-3.1914 18.766-3.1367 21.473 2.5781 29.781h-0.003906c15.465-38.465 38.555-73.402 67.883-102.7 30.258-30.371 67.73-47.844 105.4-66.129zm-637.78 94.801c-0.46094 10.598 8.207 13.094 13.648 16.883 20.387 14.617 34.695 36.219 40.203 60.699 2.75 8.9492 3.1172 18.461 1.0625 27.598-5.1797 18.238-12.238 35.895-21.059 52.68-7.875 17.336-23.547 29.875-42.188 33.75-12.555 3.3633-24.789 7.8359-36.551 13.367 3.9062 1.7695 8.2695 2.2852 12.484 1.4727 17.234-4.6836 34.477-9.4453 51.379-15.18 7.0195-2.7227 13.602-6.4531 19.543-11.078 34.402-24.742 40.477-66.352 31.066-101.93-9.418-35.676-35.258-64.738-69.59-78.258zm-54.277 38.207c24.082 0.39062 39.898-12.039 41.309-32.598v-0.003906c0.76953-11.004-1.5586-22.004-6.7305-31.75-8.5195-14.828-52.41-21.961-70.555-8.5781l0.003907-0.003906c-7.0898 6.1484-11.793 14.598-13.277 23.863-1.4883 9.2695 0.33594 18.762 5.1484 26.82 11.07 17.957 30.172 18.684 44.102 22.246zm516.71 91.512c-0.71094 6.5-0.625 13.059 0.25391 19.535 3.7578 12.973 8.2227 25.73 13.383 38.211 12.188 29.637 35.98 50.582 58.977 70.641 33.438 29.164 76.027 41.266 118.1 52.98 1.8711 0.19922 3.7578 0.21094 5.6328 0.042969-92.543-31.641-155.45-92.613-196.34-181.41zm160.7 152.66c-48.156-49.586-102.84-92.734-145.68-147.77 4.6445 22.164 15.305 42.617 30.816 59.113 16.238 16.672 33.172 32.695 50.219 48.551 17.949 18.445 40.145 32.215 64.648 40.102zm-126.67-170.32c50.152 45.465 103.4 87.23 143.72 142.4v0.003906c0.20312-2.9141-0.57031-5.8125-2.1953-8.2383-5.8281-9.0273-12.129-17.766-17.66-26.969v0.003906c-11.707-22.793-27.59-43.184-46.824-60.109-5.9531-4.6758-11.371-9.9922-16.16-15.855-15.777-19.168-33.816-33.629-60.879-31.234zm11.168-13.91 3.2031 4.9688c7.5234-3.3047 15.277-6.168 22.496-10.035 6.957-3.7266 12.984-9.2656 20.066-12.664 52.723-25.336 82.676-70.953 108.42-120.5l0.003906-0.003906c2.5703-4.0586 5.5-7.875 8.75-11.41l2.457 1.4219v-14.348c-46.051 63.719-93.426 125.38-165.4 162.57zm-391.54-103.21c4.5508 6.1953 8.3164 11.414 12.176 16.562 3.5 5.3203 7.457 10.328 11.816 14.969 2.8555 2.207 6.5664 2.9727 10.062 2.0742 1.9023-2.9023 3.0391-6.2383 3.3008-9.6992 5.8516-0.5 11.102-3.7773 14.129-8.8047 3.0273-5.0273 3.4609-11.203 1.168-16.605l-18.508-3.3906 0.30469-3.2539c1.9922-0.39844 3.9141-1.0938 5.6992-2.0625 3.9922-1.8984 7.3125-4.9648 9.5156-8.793 0.56641-7.1797-5.8906-6.0977-11.043-6.1289h-0.003906c-4.2422-0.28906-8.4609-0.86719-12.621-1.7383l0.17188-2.3867 14.395-3.8398 0.070313-2.6758c-11.703-2.8633-18.738-19.812-35.477-9.9258 13.68 17.141 2.3711 31.281-5.1562 45.699zm-105.32-6.7617-1.3594-3.7188c3.3945-2.3711 7.3008-3.8984 11.398-4.4648 14.641 2.75 29.043 6.7617 43.559 10.195 2.6562 1.2031 5.6289 1.5156 8.4805 0.89453 2.5781-2.2656 3.9219-5.6289 3.6133-9.0508-2.6211-5.4102-6.125-10.344-10.371-14.602-3.3008-3.2695-7.1797-5.9023-11.441-7.7578-4.3984-2.9219-9.582-4.4414-14.863-4.3633-12.648 3.9844-25.023 8.7891-37.051 14.379-3.7852 1.2578-6.4609 4.6367-6.8203 8.6094-0.35547 3.9688 1.6758 7.7734 5.1758 9.6836 16.973 11.949 34.125 23.633 51.465 35.055 2.707 0.52344 5.5039 0.35156 8.1289-0.49609-0.17969-3.0508-0.97266-6.0352-2.3398-8.7656-2.9062-2.6328-6.0664-4.9727-9.4336-6.9883-2.2773-1.9922-4.457-4.0977-6.5234-6.3125l10.008-7.4922zm643.84 269.23 3.5352-1.7891c-0.74219-4.7148-1.7617-9.3789-3.0547-13.973-7.8164-21.117-18.59-41.02-32-59.113-17.625-25.266-41.852-42.859-63.73-63.195-2.8281-3.6953-6.8008-6.3516-11.297-7.5508s-9.2656-0.87891-13.559 0.91797c49.344 39.684 90.191 88.895 120.11 144.7zm-376.79-260.28-0.14062-4.0273h23.625c-4.4219-19.516-19.246-19.941-34.895-23.051h-0.003906c5.9648 17.73 2.0469 37.297-10.285 51.367 4.6289 7.332 9.7148 14.363 15.223 21.059 2.9766 2.2539 6.8867 2.8633 10.41 1.6289 12.59-11.762 20.047-28.004 20.77-45.219zm-9.832 103.08c5.1055 8.3945 9.6211 17.129 13.516 26.148 3.3164 9.1289 6.7266 8.5664 13.051 2.8438l-5.5156-5.7852v-0.003906c5.0039-0.90625 9.6953-3.0664 13.641-6.2773 5.3906-12.422 12.113-26.316 2.5469-38.844-6.418-5.6953-13.812-10.188-21.828-13.262-2.7266 6.0977-5.4844 12.176-8.168 18.289-2.3789 5.4297-4.6758 10.895-7.2422 16.891zm-208.14 124.05c7.1914-16.402-7.2031-22.531-14.227-31.25h0.003906c-5.5312-0.48828-11.082 0.63281-15.992 3.2266-8.7734 3.0508-17.293 6.8242-25.887 10.383-5.832 2.4141-11.605 4.9766-20.273 8.7031 5.2344 4.7812 11.086 8.8359 17.398 12.059 11.645 3.6758 25.258-1 35.891 8.293v-0.003906c2.7812 0.875 5.7109 1.1562 8.6055 0.82031l-10.727-11.73c8.5938-12.613 16.59-2.2227 25.207-0.5zm201.74-33.766c7.1016 11.566 13.645 22.582 20.637 33.305 1.4609 2.2656 3.8945 3.7188 6.582 3.9336 3.1875-1.6875 6.0703-3.9023 8.5195-6.5508l-11.633-8.1719 18.895-1.9531 2.4336-12.105-16.344-4.5078c20.035-9.2109 20.262-10.793 3.4375-25.648l4.1406-3.207-9.7422-18.262-3.5547 0.44141c-0.35938 17.199-9.0781 33.145-23.371 42.727zm139.82-141.8-0.82031 2.8828v-0.003907c-2.9688-0.15234-5.9102-0.61719-8.7812-1.3906-9.0547-3.4375-12.453 1.2852-18.566 7.8438-11.52 12.355-7.7031 22.93-3.5273 35.941 3.1641 9.8633 8.4453 8.8594 12.887 3.9766 7.7109-8.4219 14.406-17.723 19.957-27.703 10.105-18.391 7.6172-25.695-10.453-36.582l-0.003906-0.003907c-2.6289-1.6328-5.625-2.5781-8.7109-2.75-1.75 1.5352-2.7227 3.7695-2.6562 6.0938 1.9141 2.8281 4.5156 5.1172 7.5625 6.6562 4.2617 1.9453 8.6406 3.6289 13.113 5.0391zm-654.58 115.86 0.40234 3.4844c13.773-3.5117 27.785-6.2891 41.266-10.691 27.434-8.957 32.84-16.281 32.805-44.148h-0.003906c0.42188-36.777-16.008-71.723-44.594-94.859-3.6992-1.9453-7.707-3.2305-11.844-3.793 11.805 14.566 22.559 29.953 32.184 46.047 9.9102 19.441 23.867 37.902 13.949 63.684-4.4219 13.656-15.004 24.445-28.57 29.133-11.621 4.3633-23.711 7.4766-35.594 11.145zm590.68-13.77-10.773-4.6133c6.8281-10.969 5.9375-13.922-4.6953-22.195-9.3906-7.3086-10.301 2.3789-14.148 6.4648-1.6484 1.9102-3.5312 3.6133-5.6016 5.0586-6.5898 4.168-6.3164 8.5938-1.5469 14.148l-0.003906 0.003906c9.043 10.242 14.512 23.141 15.59 36.758 0.74609 4.9258 1.8359 9.793 3.2617 14.566 17.742-13.523 22.473-25.77 16.781-39.109l-13.289-1.0781-0.12109-3.0625zm206.61-54.434c41.695 4.0508 100.76-44.215 119-118.04-23.477 55.66-67.082 91.035-119 118.04zm-361.84 80.43-16.867-0.75781-0.28125-2.7734v0.003906c3.3594-0.44141 6.625-1.4102 9.6797-2.8711 3.9961-3.1641 7.7461-6.625 11.215-10.359-3.2812-2.543-6.6953-4.9141-10.227-7.1055-3.1758-1.5273-6.457-2.8359-9.8164-3.9062l0.53125-1.2422 15.016 1.3633 1.5039-2.4062v-0.003907c-3.5938-5.1758-7.5664-10.082-11.887-14.676-4.0703-3.8086-8.125-3.3008-10.934 2.8008-3.9609 8.6133-8.7812 16.832-12.555 23.938 2.6133 10.172 4.2148 20.574 4.7773 31.059-0.69141 2.1914-0.23438 4.582 1.2188 6.3633s3.707 2.707 5.9922 2.4688c10.867 1.3711 19.215-6.5742 22.633-21.891zm30.234-183.59 8.5391 20.422-2.7148 1.1484-10.125-12.449-11.316 13.113 22.352 51.176 13.098-13.855-14.797-1.0586c13.371-7.7227 22.961-14.977 19.418-30.535l-0.003906 0.003906c-0.46484-6.6914-3.1094-13.043-7.5234-18.094-4.4141-5.0469-10.355-8.5117-16.926-9.8672zm-41.488 239.25c-1.168-3.332-2.543-6.5859-4.1133-9.7461-7.9023-12.68-13.805-12.324-22.773-0.80078-4.7812 5.8477-10.879 10.473-17.797 13.504-14.891 6.625-15.164 6.0547-8.4062 20.805l-0.003906 0.003906c1.0195 1.4844 1.8867 3.0664 2.5938 4.7227 0.59766 3.4648 2.7812 6.4492 5.9023 8.0703 3.1211 1.6172 6.8203 1.6875 10 0.18359 8.0977-2.4336 16.043-5.3633 23.785-8.7695l-20.484-10.762 0.62109-2.8242 20.055-1.2812-12.477-10.207 0.88281-2.8984zm170.05-167.45-18.023-3.5117c19.031-6.4297 19.387-7.1836 11.457-25.598h0.003906c-0.69531-1.2422-1.3047-2.5312-1.8203-3.8555-0.91016-3.5312-3.207-6.5469-6.3672-8.3633-3.1641-1.8164-6.9219-2.2812-10.434-1.293-4.6406 1.6289-8.6406 4.6953-11.414 8.7578-3.8828 5.0195-7.4648 10.266-10.723 15.711 19.922 30.57 36.262 31.191 47.324 18.152zm-77.793 80.535c4.5977-2.3828 8.668-5.6719 11.961-9.668-2.7578-9.082-6.8047-17.727-12.016-25.66-3.4414-1.5117-7.2227-2.0781-10.957-1.6484-0.28906 2.957-0.76953 5.9102-0.82812 8.875-0.24219 12.418 2.2539 25.625-8.6875 35.223-3.168 2.1484-5.0859 5.707-5.1367 9.5352-0.054688 3.8281 1.7656 7.4375 4.875 9.6719 2.0625 2.3438 2.7266 5.9766 4.9102 8.125h0.003906c2.5195 1.4492 5.2891 2.418 8.1602 2.8555l-1.3984-8.6523 19.727-8.4688-11.949-5.0742 12.953-7.7461zm9.1836 74.168-18.602-24.398c-1.9727 2.25-3.0742 5.125-3.1172 8.1133 0.1875 6.5078-0.48047 13.012-1.9844 19.348-3.375 6.2148-7.1211 12.219-11.215 17.98-1.9883 3.3867-2.6016 7.4062-1.7109 11.227 1.4961 4.9023 4.9453 8.9727 9.5352 11.254 7.9727-0.55469 15.848-2.1016 23.438-4.5977l-0.015625-2.9375-14.109-3.4961-0.39844-2.6602c2.3125-1.1562 4.8047-1.9141 7.3711-2.2344 12.516 0.73047 16-2.9062 15.496-17.527l-10.242 2.9727c-0.38672-1.0117-0.57813-2.0898-0.55859-3.1719 1.7695-3.0547 3.6992-6.0195 6.1133-9.8711zm-93.973-138.95c-11.672 4.3945-11.672 4.3945-18.812-15.863l11.633-4.2695c-2.6484-4.875-5.793-9.4609-9.3906-13.684-2.9375-2.3359-6.6406-3.4844-10.383-3.2227-2.0078 2.1211-3.3516 4.7812-3.8711 7.6562-2.3984 6.6211-4.875 13.25-6.6641 20.047h0.003906c-1.2812 3.4102-1.3516 7.1602-0.19922 10.617 6.5664 11.141 14.039 21.742 21.242 32.637l10.477-14.285c9.1562-4.9805 6.0352-14.219 5.7969-21.836-0.71094-3.1406-1.9766-6.1289-3.7344-8.8242l-2.8125 2.0234zm191.34-44.234c-3.3828 0.003906-6.7656-0.28516-10.102-0.86719-2.3008-0.96094-4.4492-2.2617-6.3672-3.8555 2.0547-1.6133 4.2578-3.0352 6.5781-4.2422 1.5352-0.64844 3.7812 0.375 5.3125-0.28125v0.003906c2.4883-1.2773 4.8672-2.7578 7.1133-4.4258-2.4961-1.4766-5.1016-2.7617-7.793-3.8398-5.4336-0.40234-10.715-1.9844-15.473-4.6367-3.6445-8.0117-9.9375-14.52-17.816-18.434-6.1797-4.0469-12.859-7.2734-19.867-9.5938l-3.2539 4.4922c5.6641 6.0156 11.449 11.922 16.969 18.066h-0.003906c12.273 12.766 20.488 28.883 23.602 46.316 1.5781 9.9336 4.0039 10.305 10.82 3.9648-6.3906-12.352 9.332-13.461 10.281-22.668zm-110.88 46.246 0.64844 3.4336c-3.6992 0.75-7.3242 1.8281-10.832 3.2148-1.5977 1.4844-2.832 3.3125-3.6016 5.3516 1.9688 1.0703 4.1914 1.5938 6.4336 1.5195 8.0039-4.1055 14.156-11.098 17.211-19.562 6.2266-17.656-4.6992-28.484-13.656-40.344h-0.003907c-1.9531-1.8711-4.1836-3.4297-6.6133-4.6172-1.7266 2.0508-3.082 4.3906-4.0117 6.9102-0.71484 11.562-5.3242 22.543-13.078 31.152-1.4648 3.0117-1.2695 6.5664 0.52344 9.3984 2.832 2.875 6.5859 4.6641 10.602 5.0586 5.4961 0.003906 10.98-0.50391 16.379-1.5156zm-104.19-133.47c23.164 15.504 22.102 38.641 24.105 64.223l20.676-15.934-15.766-23.062c4.8945 0.19922 9.793-0.37109 14.516-1.6836 3.3789-2.5469 6.3086-5.6367 8.6641-9.1523-2.9609-0.96094-5.8867-2.0547-8.8945-2.8477-2.5039-0.66016-5.0977-0.97266-9.0859-1.7031l9.3906-9.8438zm51.859 286.85 0.72656-3.0469-20.547-13.438 1.3828-3.0312h-0.003906c5.1797-0.011719 10.328-0.72266 15.316-2.1172 2.9805-1.9727 4.8281-5.2539 4.9727-8.8242-3.9883-5.8125-8.7539-11.059-14.156-15.586-2.8008-0.64062-5.7383 0.082031-7.918 1.957-6.3945 6.0234-12.184 12.688-16.156 16.922 4.6172 13.996 8.707 27.395 13.648 40.469l0.003906-0.003906c1.7188 2.7617 4.75 4.4297 8 4.4102 4.3281-1.9219 8.3281-4.5078 11.859-7.6641l-15.219-5.0312 0.12109-1.8828zm15.879-84.879 2.7383 1.2891h-0.003907c0.42188-2.8125 1.5273-5.4805 3.2188-7.7695 4.8594-2.6094 9.9531-4.7578 15.215-6.4141l-15.625-4.2227c20.668-13.352 20.949-15.469 3.9648-24.414l9.4414-8.0586c-5.3867-7.6602-12.297-14.125-20.297-18.996-4.1914-1.4336-12.402 8.8867-18.887 13.973 13.801 14.75 21.09 34.43 20.234 54.613zm20.266-140.36 0.66016 2.2656v0.003907c1.8867 0.12109 3.7773-0.16797 5.543-0.84375 4.7695-3.4414 8.3125-8.3281 10.094-13.938 1.7852-5.6094 1.7188-11.641-0.1875-17.211-1.7188-2.9922-4.6719-5.0664-8.0703-5.6641-8.6328-1.3633-17.438-1.6406-26.176-2.3438l0.25781-4.5625h27.578l0.64062-4.3789-41.434-12.035c6.5195 24.727 13.246 45.195 38.828 52.703zm-118.43 194.54 21.238-14.852-2.6445-21.898c-13.117 5.5469-24.285 10.395-35.555 14.992-7.2461 2.957-8.0273 7.1055-3.2344 12.848l0.003906 0.003906c3.3438 4.3359 6.0938 9.1016 8.1719 14.168 2.1602 4.7852 3.4492 9.9648 5.2383 15.324l10.402-14.254zm-20.738-210.56-9.5078-8.2383 6.6094-4.6914-12.77-10.645 1.4102-2.5156 20.129 1.5391-3.9961-11.273 7.9727-3.9023h0.003906c-1.6602-3.2656-4.4609-5.8047-7.875-7.1367-3.4102-1.3281-7.1914-1.3594-10.621-0.085937-7.0234 1.3281-14.262 1.4844-21.375 2.3867-4.3125 0.54688-8.5664 1.5391-16.207 2.9492 19.68 10.324 32.242 21.781 28.684 44.184zm242.95 217.64c2.082-3.6719 5.2578-6.6055 9.082-8.3945 3.8281-1.7852 8.1133-2.3359 12.27-1.5703 2.4648 0.12109 4.9258-0.36328 7.1602-1.418 0.97656-1.668 1.1328-3.6914 0.42578-5.4922-2.3555-1.2109-4.9961-1.75-7.6367-1.5547-6.2188 0.60938-12.379 1.8242-20.586 3.1133 4.1406-13.93 20.305-4.9453 23.734-15.594-10.848-6.7383-22.883-5.3711-26.418 2.7344-4.043 9.2695-8.5156 18.352-13.703 29.434h-0.003906c2.6875 3.8672 5.6875 7.5039 8.9688 10.875 2.2891 1.9141 5.3672 2.5898 8.2461 1.8086 7.3945-4.6602 14.176-10.285 21.062-15.465zm-248.28-45.848c0.82031-3.0391 0.92188-6.2305 0.30078-9.3164-3.3984-5.168-7.5938-9.7656-12.43-13.621-3.3203-0.73047-6.7852 0.29297-9.1758 2.7109-8.293 12.758-15.793 26.023-24.699 41.031l20.672 5.9336 0.92969-2.5664-4.7188-5.9375 17.668-11.949-6.5039-11.781zm111.18-51.766c-7.6523-5.0273-14.281-12.434-17.949-11.18-8.0234 3.8711-15.445 8.8789-22.039 14.867 7.8867 10.453 13.938 19.695 21.352 27.672 3.9531 2.582 8.5586 3.9805 13.277 4.0352 1.1836-2.5312 2.1289-5.1641 2.8242-7.8711l8.5039 1.3711-5.9102-21.949-3.6836 1.0742-0.003907-0.003906c0.98047 1.7422 1.5898 3.6641 1.7891 5.6484-0.10547 2.9258-1.1641 5.7383-3.0156 8.0078-5.2539 4.4141-14.129 2.1797-13.688-3.2891l7.3828-4.7344-3.7539-9.582zm-77.562 16.32c6.1133-7.3711 19.086-4.8594 17.016-16.285-1.75-7.4062-3.9062-14.711-6.4531-21.883-7.0273 6.0391-11.312 10.34-16.195 13.793-3.4219 1.6914-6.1055 4.5781-7.5391 8.1172-1.4336 3.5352-1.5156 7.4766-0.23828 11.07 1.2812 3.5977 3.8359 6.5977 7.1836 8.4336 3.1055 2.9062 6.0039 6.0312 8.6641 9.3516 1.5938 2.0312 3.6602 3.6445 6.0195 4.6953 3.2148-2.0352 5.9219-4.7812 7.918-8.0273-1.2773-2.457-3.2305-4.5-5.6289-5.8828-3.457-1.4922-7.0586-2.625-10.746-3.3828zm-98.598 123.86c13.344 3.1367 25.246 5.9961 37.199 8.6445v0.003907c1.3555 0.17187 2.707-0.33594 3.6133-1.3594 2.8047-8.5195 7.6602-3.0898 12.02-2.0625 7.2148 1.6992 14.5 3.0938 21.754 4.6172l0.67578-2.8984-25.543-10.625 1.5625-4.0859 19.957 4.3711 1.625-2.1562v-0.003907c-1.6133-2.4453-3.8008-4.457-6.375-5.8555-10.711-1.5547-21.543-2.3008-32.348-3.1367-1.793 0-3.5586 0.42969-5.1523 1.25-8.9922 4.0352-17.926 8.2031-28.988 13.297zm71.461-37.039c-3.9414-20.57-10.977-22.945-38.082-14.281l4.7695 27.496 19.984 2.7461-8.625-11.703 17.355 5.3789 3.3008-4.2812-12.207-5.293 2.1797-2.4141zm307.11-115.66c-4.5703-0.29297-9.1562 0.042968-13.633 1.0039-4.1328 1.5938-7.793 4.2031-10.645 7.5898 1.3438 6.1367 4.8984 11.562 9.9805 15.246 7.7305 0.94141 15.57 0.36328 23.082-1.6953 0.79688-1.1133 1.25-2.4375 1.3086-3.8047 0.71484-6.4023-0.32031-12.879-3-18.738-2.6836-5.8555-6.9023-10.875-12.215-14.52l-6.2969 8.6445zm-483.15 112.2c20.234 15.008 43.723 25.023 68.555 29.242l-26.438-21.988 4.5703-3.3789zm186.08-181.05c1.7227-1.9922 3.2578-4.1445 4.5742-6.4297-1.9141-1.168-2.9492-3.3672-2.625-5.5859 0.32031-2.2227 1.9375-4.0352 4.1094-4.6094-2.332-3.832-5.1836-7.3164-8.4805-10.352-3.0352 0.1875-5.9688 1.1562-8.5156 2.8164 2.3711 4.6641 3.4062 9.8906 2.9961 15.109-0.41406 5.2148-2.2578 10.219-5.332 14.453 0.003906 0.71484 0.17969 1.4219 0.51172 2.0547 2.5078 11.109 5.6484 12.82 22.285 11.625 2.2344-0.41797 4.4062-1.0977 6.4805-2.0234-0.83203-2.5156-2.0625-4.875-3.6445-7-3.8008-3.6719-8.1914-6.7344-12.359-10.059zm247.41 71.082h-21.527l6.5547-9.7266c-6.3125-0.09375-21.469 14.367-19.434 19.086h-0.003906c3.1953 7.3242 8.0078 13.828 14.078 19.023 5.168-0.23047 10.203-1.7188 14.668-4.3359l-6.6172-7.7188c5.5625-4.5469 17.059-3.832 12.281-16.328zm36.051 49.051h-21.039l-0.61719-2.5273 18.676-8.6016v-0.003906c-4.8555-3.5938-10.941-5.1133-16.922-4.2305-5.9766 0.88672-11.359 4.1055-14.969 8.9531-2.1133 2.5234-2.9531 5.8789-2.2773 9.0977 2.8242 5.4844 7.7734 9.5703 13.691 11.309 5.9219 1.7344 12.293 0.97266 17.633-2.1133 2.8398-3.4531 4.832-7.5234 5.8242-11.883zm-237.08-118.91c3.6055 5.0586 7.0391 9.5938 10.172 14.332 7.168 10.844 9.1953 11.223 20.867 2.7227l-14.543-17.105v0.003906c2.0938-0.36719 4.1602-0.85938 6.1914-1.4766 3.4609-1.4414 6.8555-3.0508 10.277-4.5938-3.2773-2.8555-6.9609-5.1992-10.93-6.957-4.6523-1.1172-9.5586-0.375-13.672 2.0664-4.1133 2.4414-7.1133 6.3906-8.3633 11.008zm-99.473-0.42188c5.9844 11.707 10.207 21.113 15.539 29.84l0.003906 0.003906c2.1875 3.9492 5.9102 6.8203 10.289 7.9297 5.9414-0.98047 11.676-2.9531 16.961-5.8398-10.582-6.7734-23.809-2.875-25.055-18.512l18.578 2.8555 0.75391-2.9961c-10.508-8.4766-23.57-13.152-37.066-13.277zm264.75 188.82c-7.6953-8.8516-10.824-8.6211-17.977 1.8828-1.8125 4.2305-4.8672 7.8086-8.7578 10.262-3.8945 2.457-8.4414 3.6719-13.039 3.4844l-2.9922 15.734c27.52-5.5469 47.691-16.555 47.164-25.723-7.0117 1.2305-12.383 18.301-22.059 2.8906 3.3125-1.7227 5.75-3.0664 8.2578-4.2734 2.8242-1.3555 5.707-2.5938 9.4023-4.2578zm-121.52-38.746c8.8633 18.441 14.723 17.043 26.059 8.8711v-0.003906c3.3477-3.5664 5-8.4062 4.5234-13.277-0.5625-4.6016-3.0781-8.7422-6.9023-11.363-4.1055-1-8.4453-0.089843-11.797 2.4844-4.418 4-8.3984 8.4531-11.883 13.285zm-76.984-17.906c2.7148-18.195-1.0625-26.605-12.477-28.824v-0.007812c-4.0742-0.26953-8.0898 1.1055-11.145 3.8164-1.2734 2.9297-1.4688 6.2109-0.55859 9.2695 0.65625 4.4023 1.5938 8.7578 2.8086 13.039 0.74609 2.8711 1.8984 5.6328 2.8711 8.4453 2.5742-1.2969 4.9492-2.9648 7.0391-4.9492 1.875-2.9375 3.4766-6.0391 4.7852-9.2695 0.48047-0.38672 1.0469-0.65234 1.6523-0.76953zm-366.25-106.94-3.582 1.7461 9.8477 32.672 7.8164-8.7461 21.148 35.895 3.707-1.5938v-17.195c-4.5664-0.60156-8.9492-2.1953-12.84-4.6641-6.3398-9.0156-11.281-18.996-17.219-28.32h0.003906c-2.668-3.5156-5.6406-6.793-8.8828-9.793zm442.04 24.242-9.7617-13.508c12.801 1.8867 14.105 1.0586 13-9.7227-0.50391-5.3164-1.6055-10.559-3.2812-15.629-2.6055-7.6562-7.3203-7.2656-13.184-2.3906l9.2383 11.25c-15.832 14.348-16.711 18.387-8.0977 36.953zm-25.84 183 1.0703 4.2578c11.238-1.418 22.477-2.8047 33.707-4.2656 5.2461 0.41406 10.508-0.49609 15.309-2.6406 6.4805-5.9609-3.1328-8.0938-5.0234-12.27-1.0391-2.2969-2.043-4.6094-3.0664-6.9141-2.8555 1.8086-5.6953 3.6406-8.5742 5.4141-6.6914 4.1289-13.215 8.582-20.172 12.199v0.003906c-4.2812 1.7969-8.7148 3.207-13.25 4.2148zm272.89-151.59c2.9414-2.9023 4.9297-6.6367 5.7031-10.695 0.76953-4.0625 0.28906-8.2656-1.3828-12.047-2.082-1.9414-4.8086-3.0586-7.6562-3.1328-6.1953 9.543-22.844 14-14.941 30.652l10.234 4.5273 1.8945-15.176zm-34.074-47.703 19.242 6.3086-0.015625 3.4492-12.863 6v0.003906c-1.1758-3.7383-2.5586-7.4102-4.1406-10.996-1.5078-0.078125-3.0195 0.10547-4.4609 0.54688 1.1523 3.1523 2.3086 6.3008 3.4609 9.4531 0.44922 2.1016 1.2539 4.1133 2.3789 5.9453 1.5195 2.1172 3.7109 3.6523 6.2188 4.3555 4.5195-1.8438 8.3867-4.9961 11.105-9.0508 2.4336-4.957 2.5898-10.727 0.42969-15.809-6.4531-6.2109-13.621-11.633-21.355-16.148v15.945zm-345.57-48.75c0.625 2.9336 2.1797 5.5859 4.4336 7.5625 6.3047 1.5312 12.883 1.5625 19.203 0.089844 2.7773-3.2617 3.8867-7.625 3.0117-11.82-2.3281-3.1641-5.6562-5.4492-9.4414-6.4922-1.707-0.80078-4.9023 0.97656-6.2031-0.015625-12.902-9.8516-9.8359 1.4648-11.004 10.676zm359.52 111.43c-2.8047 19.059-24.645 25.98-24.91 42.012 7.9727-6.3281 17.551-13.656 26.805-21.371 6.6055-5.5039 9.0586-11.727-1.8984-20.637zm-213.55 76.652c3.3398 2.918 6.8789 5.5977 10.594 8.0273 1.8672-1.293 3.5312-2.8594 4.9414-4.6445l11.934 2.1172-1.9062-17.004zm117.76-124.51c-20.473-4.6992-21.875-2.6758-16.016 24.039zm-564.19 30.758-1.6367 0.78516c0.41016 5.168 0.85547 10.332 1.2188 15.504-0.16406 4.043 2.0664 7.8047 5.6914 9.6055 3.625 1.7969 7.9688 1.2969 11.09-1.2773zm441.2 43.938c-17.801 1.3477-19.586 3.2227-17.645 18.43 4.5195-0.79297 8.6719-3.0078 11.844-6.3203 3.1758-3.3164 5.207-7.5586 5.8008-12.109zm174.19-26.328 2.0312-3.1992-11.891-12.773-2.5078 1.4609v14.512zm19.16 17.895 3.2891 0.76563 10.156-14.637-1.8945-2.3125-15.219 2.832zm-42.48 23.688 1.832-4.3828-14.711-7.2383-2.2969 6.5078zm-621.87-26.25 11.875 4.0859 1.0977-3.0352-13.281-7.9102-4 11.555 1.7891 0.70703z"/>
  <path d="m164.13 498.1c-2.6172 0.34375-5.2812 0.089844-7.7891-0.73437 0.53516-2.5195 1.4688-4.9375 2.7656-7.1602 4.3906-5.2891 9.9258-9.7109 13.828-15.297 7.3438-10.516 13.59-21.785 20.777-32.414v-0.003906c8.7656-13.836 15.266-28.98 19.262-44.863 2.1211-6.3047 5.0039-12.324 8.5898-17.926 1.7383-1.4609 3.9805-2.1797 6.2422-1.9961 1.3359 0.76172 2.2422 2.1055 2.4492 3.6289 1.1172 13.598 2.5859 27.199 2.8047 40.82 0.22266 13.855-0.59766 27.742-1.3984 41.594-1.6328 28.199-2.4258 56.512-5.6914 84.527-3.1758 27.262-7.4648 54.496-25.727 77.293h0.003906c-8.9414 12.453-21.055 22.285-35.082 28.473-11.668 3.4648-23.832 4.9727-35.992 4.4609-9.4609 0.20703-18.902-0.94922-28.035-3.4258-9.332-3.1523-18.449-6.9258-27.277-11.297l1.7305-1.0195c-2.7227-4.1641-5.4727-8.3086-8.1484-12.504-1.457-1.8867-2.6406-3.9648-3.5234-6.1758-3.6133-11.117-6.6484-22.41-9.0898-33.84-4.8516-27.258-10.457-54.543-12.699-82.066-2.5391-31.113-1.8555-62.496-2.3086-93.766-0.050781-8.1133 0.36719-16.223 1.25-24.289 1.3242-13.031 3.3789-25.988 4.668-39.02 2.0195-20.426 3.6875-40.887 5.4492-61.336 1.6016-10.395 2.3164-20.91 2.1328-31.426-1.5938-10.152-4.1406-20.133-7.6055-29.809-2.4609-7.0117-2.4727-14.652-0.027344-21.672 2.4453-7.0156 7.1992-12.996 13.484-16.961 2.0703-1.9141 3.3086-4.5664 3.4492-7.3828 0.78906-16.586 1.6875-33.199 1.4844-49.789-0.14062-11.68-2.2305-23.32-2.9258-35.008-0.40625-6.8828 0.35547-13.832 0.34766-20.75-0.015625-15.734-0.32812-31.469-0.10156-47.195 0.85547-2.2266 2.2383-4.207 4.0352-5.7734l2.3359 1.2539v7.7461c-0.027343 19.184-0.29688 38.367-0.023437 57.547 0.375 26.02 1.1367 52.035 1.8086 78.051h0.003906c-0.18359 7.5703 0.24219 15.145 1.2656 22.648 1.0078 5.332 5.3672 9.9883 6.6445 15.324 2.5742 14.449 1.0625 29.332-4.3594 42.973-2.8906 6.8047-5.0234 13.906-6.3711 21.18-2.2031 25.727-3.5273 51.531-4.9609 77.32-1.0469 18.844-2.5078 37.711-2.3945 56.559 0.14453 24.074 1.3516 48.156 2.7266 72.199 1.9727 24.746 7.0117 49.152 15 72.66 2.9258 9.3008 6.3438 18.457 9.8047 27.582 4.3984 11.602 8.5742 23.324 13.773 34.57v-0.003906c3.9102 8.793 12.125 14.906 21.668 16.125 34.152 4.4141 53.273-10.918 68.914-41.363 5.4609-13.301 8.7031-27.41 9.6016-41.758 1.7344-14.895 2.707-29.871 2.9219-44.863-0.0625-6.6367-0.48047-13.266-1.2578-19.855-13.766 6.5938-25.98 12.664-38.434 18.207zm-115.57-4.207c7.7383 4.4805 5.7188 9.9453 1.8008 15.359 2.5469 2.4258 4.1797 5.6523 4.6211 9.1406 0.44531 3.4883-0.32422 7.0234-2.1797 10.012-2.2656 3.2148-2.4219 5.4805 1.3203 7.5898v-0.003906c1.082 0.77734 1.793 1.9727 1.957 3.293-6.4492 8.2969 3.8555 14.883 2.2266 22.637h0.003906c0.27344 1.0977 0.46875 2.2109 0.58203 3.3359-3.3359 5.1289 0.027344 7.2891 3.2734 8.6992-0.52344 4.707-1.125 8.8008-1.3555 12.918-0.13672 1.4297 0.33203 2.8516 1.293 3.918 6.4961 1.5938 4.8555 6.5391 5.707 11.043 2.0664 2.5312 4.9531 4.2578 8.1602 4.8789 2.0898 2.9375-6.5977 12.301 4.7539 9.4805 1.8672 4.4258 3.5352 8.3555 5.1797 12.297l-0.003906-0.003907c0.39844 0.58594 0.60937 1.2812 0.60547 1.9883-4.1797 9.0117 2.7148 6.6875 7.0742 6.4961-0.125 9.1992-0.125 9.1992 12.578 6.0508v6.6562l16.113-4.4648v7.6328l12.562-9.7617 1.1055 8.9102c3.5703-1.5703 7.0312-3.3867 10.348-5.4375 2.8594-2.0469 4.8203-4.4961 8.5234-0.91406 2.1914 1.0859 4.7539 1.1367 6.9883 0.13281 19.043-8.3359 34.445-23.262 43.375-42.035 4.2578-9.3555 7.1602-19.27 8.6133-29.445 3.1367-16.344 5.9961-32.82 7.5352-49.371 1.8672-20.078 2.3047-40.293 3.2422-60.457 0.62891-13.52 1.4766-27.047 1.3984-40.566l-0.003907-0.003906c-0.52734-8.1211-1.5234-16.203-2.9883-24.207-5.3047 7.4961-6.7422 12.973 2.5781 18.816l-12.367 1.582 1.8164 11.664-7.293 1.5195c-1.5195 7-1.3438 15.199-11.375 17.328l1.6641 4.8086-12.488 17.121 1.1094 0.73438-11.816 12.316 0.003906 0.003907c9.6055-3.1641 17.812-9.5625 23.223-18.105 2.2617-1.8477 4.7852-3.3398 7.4922-4.4375 1.3008 2.625 2.3047 5.3828 2.9922 8.2305 3.3945 24.352 3.3906 49.059-0.015624 73.406-1.3711 14.016-4.3867 27.816-8.9805 41.125-15.566 38.09-42.773 56.094-83.191 48.785-8.3984-1.8555-15.453-7.5195-19.078-15.316-5.9141-11.039-11.141-22.43-15.648-34.113-5.0195-13.16-9.2773-26.594-12.754-40.238-4.4062-17.488-7.6328-35.273-11.363-52.934-0.37891-1.7891-0.73437-3.582-1.4375-7.0078zm-1.8633-84.113c-0.53516 6.5898 0.085938 13.281-0.55859 19.852-0.50781 5.1914 1.6914 6.1992 5.7617 5.7969l-0.003907-43.941-2.4609-0.16016c-0.94531 6.1523-2.2383 12.27-2.7383 18.453zm0.48438 44.293c1.0703 4.4609 1.6797 9.0312 2.8945 15.777 3.1016 2.6172 3.1016 2.6172-1.5078 11.559 6.2773-2.1211 6.8789-2.1562 6.5312-8.5039-0.58594-10.66-2.0273-21.27-3.1445-32.266-2.4727 1.0859-4.3867 3.1406-5.293 5.6875-0.90625 2.543-0.71875 5.3477 0.51562 7.75zm10.09-139.18-1.8828-0.21484-2.1484 19.309 1.8164 0.20703zm5.7773-101.35-3.0156 0.085937 0.63672 12.605 2.3828-0.070313-0.007812-12.625z"/>
  <path d="m267.92 651.74c-1.7656-31.598 21.625-41.973 45.387-42.219 12.102 0.41016 23.5 5.7617 31.551 14.805s12.043 20.988 11.051 33.055c-1.7383 21.727-15.914 40.469-55.09 37.602h0.003906c-10.109-1.3516-19.262-6.6719-25.438-14.789-6.1719-8.1133-8.8594-18.355-7.4648-28.453zm30.293-28.273c1.9219 2.4648 3.1875 5.3711 3.6836 8.4531-4.875 17.656-0.72266 36.582 11.102 50.578 5.5156 0.58203 11.074-0.57812 15.895-3.3242 4.8203-2.7461 8.6562-6.9336 10.965-11.977 3.1289-14.461-1.6797-29.492-12.625-39.449-3.5938-3.9609-8.4492-6.5508-13.742-7.332s-10.691 0.29688-15.277 3.0508z"/>
  <path d="m428.03 364.18c8.0859 1.5586 15.473 5.6328 21.102 11.645 5.6289 6.0117 9.2148 13.648 10.238 21.82-1.1641 8.7383-5.1328 16.863-11.316 23.148-6.1797 6.2852-14.238 10.391-22.957 11.695-15.039-0.050781-34.262-15.008-33.418-26.809 0.15234-10.105 3.8945-19.824 10.551-27.43 6.6602-7.6016 15.805-12.59 25.801-14.07zm-2.5547 55.668v-0.003906c2.7969 0.58203 5.707 0.015625 8.0781-1.5703 2.375-1.5859 4.0117-4.0547 4.5469-6.8594 1.2891-7.0586 1.2188-14.301-0.19922-21.336-2.9531-1.7461-6.4883-2.2109-9.7891-1.2891-3.4375 3.1602-5.625 7.4492-6.1641 12.082 0.44141 6.4414 1.625 12.805 3.5273 18.973z"/>
  <path d="m366.16 493.97c8.3672-0.019531 16.379 3.3828 22.176 9.4141 5.7969 6.0352 8.875 14.18 8.5156 22.539-0.97266 8.2148-4.5508 15.902-10.211 21.934-5.6602 6.0273-13.105 10.086-21.242 11.574-8.1172-0.66797-15.711-4.2891-21.336-10.184-5.6211-5.8906-8.8867-13.645-9.1719-21.785-0.85938-8.7305 2.0781-17.402 8.0625-23.816 5.9844-6.4102 14.438-9.9336 23.207-9.6758zm1.3555 13.34c0.76562 9.2266 1.2891 18.488 2.4961 27.656 0.66797 2.2812 2.4453 4.0703 4.7266 4.7461 2.332-0.34766 4.3945-1.7031 5.6406-3.7031 7.2773-10.875 4.1406-20.5-12.863-28.699z"/>
  <path d="m709.68 1138.9c-3.7812 1.418-7.7773 2.1875-11.816 2.2773-24.086-3.8555-48.02-8.6758-72.121-12.434-30.914-4.8203-60.148-22.324-69.246-49.785-0.27344-3.8398 0.25-7.6992 1.5391-11.332 2.8477 2.1289 5.2773 4.7617 7.168 7.7734 10.512 28.492 34.465 37.781 61.07 43.109 12 2.4023 24.246 3.5508 36.293 5.7383 15.461 2.8086 30.832 6.0977 46.242 9.1797z"/>
  <path d="m624.3 718.89c2.5898-2.707 5.5391-5.0469 8.7656-6.957 19.176-8.043 38.406-15.984 57.871-23.285 9.7812-3.5469 19.809-6.3633 30.004-8.4297 3.3711 0.33594 6.6172 1.457 9.4766 3.2734-2.0039 2.4414-4.4492 4.4844-7.2031 6.0273-22.574 7.0234-45.387 13.285-67.875 20.566h0.003906c-6.875 3.0859-13.566 6.5625-20.039 10.414-3.1992 0.99219-6.5156 1.5508-9.8594 1.6641z"/>
  <path d="m387.61 799.02c-0.17969-16.133 12.023-33.137 23.516-33.141 12.312 0 27.145 19.293 26.957 28.594h-0.003907c-0.8125 6.8477-4.1016 13.156-9.2461 17.746-5.1445 4.5898-11.793 7.1367-18.684 7.1641-5.6133 0.003907-11.027-2.0781-15.195-5.8398-4.1641-3.7617-6.7812-8.9375-7.3438-14.523z"/>
  <path d="m764.88 801.87h-17.473c6.0039-5.8359 11.965-9.4492 17.988-3.3008z"/>
  <path d="m731.7 860.48-21.832 1.2227c8.4453-8.6328 13.852-9.0156 21.832-1.2227z"/>
 </g>
</svg>
