<?xml version="1.0" encoding="UTF-8"?>
<svg width="700pt" height="700pt" version="1.1" viewBox="0 0 700 700" xmlns="http://www.w3.org/2000/svg" xmlns:xlink="http://www.w3.org/1999/xlink">
 <defs>
  <symbol id="s" overflow="visible">
   <path d="m18.766-1.125c-0.96875 0.5-1.9805 0.875-3.0312 1.125-1.043 0.25781-2.1367 0.39062-3.2812 0.39062-3.3984 0-6.0898-0.94531-8.0781-2.8438-1.9922-1.9062-2.9844-4.4844-2.9844-7.7344 0-3.2578 0.99219-5.8359 2.9844-7.7344 1.9883-1.9062 4.6797-2.8594 8.0781-2.8594 1.1445 0 2.2383 0.13281 3.2812 0.39062 1.0508 0.25 2.0625 0.625 3.0312 1.125v4.2188c-0.98047-0.65625-1.9453-1.1406-2.8906-1.4531-0.94922-0.3125-1.9492-0.46875-3-0.46875-1.875 0-3.3516 0.60547-4.4219 1.8125-1.0742 1.1992-1.6094 2.8555-1.6094 4.9688 0 2.1055 0.53516 3.7617 1.6094 4.9688 1.0703 1.1992 2.5469 1.7969 4.4219 1.7969 1.0508 0 2.0508-0.14844 3-0.45312 0.94531-0.3125 1.9102-0.80078 2.8906-1.4688z"/>
  </symbol>
  <symbol id="d" overflow="visible">
   <path d="m13.734-11.141c-0.4375-0.19531-0.87109-0.34375-1.2969-0.4375-0.41797-0.10156-0.83984-0.15625-1.2656-0.15625-1.2617 0-2.2305 0.40625-2.9062 1.2188-0.67969 0.80469-1.0156 1.9531-1.0156 3.4531v7.0625h-4.8906v-15.312h4.8906v2.5156c0.625-1 1.3438-1.7266 2.1562-2.1875 0.82031-0.46875 1.8008-0.70312 2.9375-0.70312 0.16406 0 0.34375 0.011719 0.53125 0.03125 0.19531 0.011719 0.47656 0.039062 0.84375 0.078125z"/>
  </symbol>
  <symbol id="c" overflow="visible">
   <path d="m17.641-7.7031v1.4062h-11.453c0.125 1.1484 0.53906 2.0078 1.25 2.5781 0.70703 0.57422 1.7031 0.85938 2.9844 0.85938 1.0312 0 2.082-0.14844 3.1562-0.45312 1.082-0.3125 2.1914-0.77344 3.3281-1.3906v3.7656c-1.1562 0.4375-2.3125 0.76562-3.4688 0.98438-1.1562 0.22656-2.3125 0.34375-3.4688 0.34375-2.7734 0-4.9297-0.70312-6.4688-2.1094-1.5312-1.4062-2.2969-3.3789-2.2969-5.9219 0-2.5 0.75391-4.4609 2.2656-5.8906 1.5078-1.4375 3.582-2.1562 6.2188-2.1562 2.4062 0 4.332 0.73047 5.7812 2.1875 1.4453 1.4492 2.1719 3.3828 2.1719 5.7969zm-5.0312-1.625c0-0.92578-0.27344-1.6719-0.8125-2.2344-0.54297-0.57031-1.25-0.85938-2.125-0.85938-0.94922 0-1.7188 0.26562-2.3125 0.79688s-0.96484 1.2969-1.1094 2.2969z"/>
  </symbol>
  <symbol id="b" overflow="visible">
   <path d="m9.2188-6.8906c-1.0234 0-1.793 0.17188-2.3125 0.51562-0.51172 0.34375-0.76562 0.85547-0.76562 1.5312 0 0.625 0.20703 1.1172 0.625 1.4688 0.41406 0.34375 0.98828 0.51562 1.7188 0.51562 0.92578 0 1.7031-0.32812 2.3281-0.98438 0.63281-0.66406 0.95312-1.4922 0.95312-2.4844v-0.5625zm7.4688-1.8438v8.7344h-4.9219v-2.2656c-0.65625 0.92969-1.3984 1.6055-2.2188 2.0312-0.82422 0.41406-1.8242 0.625-3 0.625-1.5859 0-2.8711-0.45703-3.8594-1.375-0.99219-0.92578-1.4844-2.1289-1.4844-3.6094 0-1.7891 0.61328-3.1016 1.8438-3.9375 1.2383-0.84375 3.1797-1.2656 5.8281-1.2656h2.8906v-0.39062c0-0.76953-0.30859-1.332-0.92188-1.6875-0.61719-0.36328-1.5703-0.54688-2.8594-0.54688-1.0547 0-2.0312 0.10547-2.9375 0.3125-0.89844 0.21094-1.7305 0.52344-2.5 0.9375v-3.7344c1.0391-0.25 2.0859-0.44141 3.1406-0.57812 1.0625-0.13281 2.125-0.20312 3.1875-0.20312 2.7578 0 4.75 0.54688 5.9688 1.6406 1.2266 1.0859 1.8438 2.8555 1.8438 5.3125z"/>
  </symbol>
  <symbol id="a" overflow="visible">
   <path d="m7.7031-19.656v4.3438h5.0469v3.5h-5.0469v6.5c0 0.71094 0.14062 1.1875 0.42188 1.4375s0.83594 0.375 1.6719 0.375h2.5156v3.5h-4.1875c-1.9375 0-3.3125-0.39844-4.125-1.2031-0.80469-0.8125-1.2031-2.1797-1.2031-4.1094v-6.5h-2.4219v-3.5h2.4219v-4.3438z"/>
  </symbol>
  <symbol id="j" overflow="visible">
   <path d="m12.766-13.078v-8.2031h4.9219v21.281h-4.9219v-2.2188c-0.66797 0.90625-1.4062 1.5703-2.2188 1.9844s-1.7578 0.625-2.8281 0.625c-1.8867 0-3.4336-0.75-4.6406-2.25-1.2109-1.5-1.8125-3.4258-1.8125-5.7812 0-2.3633 0.60156-4.2969 1.8125-5.7969 1.207-1.5 2.7539-2.25 4.6406-2.25 1.0625 0 2 0.21484 2.8125 0.64062 0.82031 0.42969 1.5664 1.0859 2.2344 1.9688zm-3.2188 9.9219c1.0391 0 1.8359-0.37891 2.3906-1.1406 0.55078-0.76953 0.82812-1.8828 0.82812-3.3438 0-1.457-0.27734-2.5664-0.82812-3.3281-0.55469-0.76953-1.3516-1.1562-2.3906-1.1562-1.043 0-1.8398 0.38672-2.3906 1.1562-0.55469 0.76172-0.82812 1.8711-0.82812 3.3281 0 1.4609 0.27344 2.5742 0.82812 3.3438 0.55078 0.76172 1.3477 1.1406 2.3906 1.1406z"/>
  </symbol>
  <symbol id="i" overflow="visible">
   <path d="m10.5-3.1562c1.0508 0 1.8516-0.37891 2.4062-1.1406 0.55078-0.76953 0.82812-1.8828 0.82812-3.3438 0-1.457-0.27734-2.5664-0.82812-3.3281-0.55469-0.76953-1.3555-1.1562-2.4062-1.1562-1.0547 0-1.8594 0.38672-2.4219 1.1562-0.55469 0.77344-0.82812 1.8828-0.82812 3.3281 0 1.4492 0.27344 2.5586 0.82812 3.3281 0.5625 0.77344 1.3672 1.1562 2.4219 1.1562zm-3.25-9.9219c0.67578-0.88281 1.4219-1.5391 2.2344-1.9688 0.82031-0.42578 1.7656-0.64062 2.8281-0.64062 1.8945 0 3.4453 0.75 4.6562 2.25 1.207 1.5 1.8125 3.4336 1.8125 5.7969 0 2.3555-0.60547 4.2812-1.8125 5.7812-1.2109 1.5-2.7617 2.25-4.6562 2.25-1.0625 0-2.0078-0.21094-2.8281-0.625-0.8125-0.42578-1.5586-1.0859-2.2344-1.9844v2.2188h-4.8906v-21.281h4.8906z"/>
  </symbol>
  <symbol id="f" overflow="visible">
   <path d="m0.34375-15.312h4.8906l4.125 10.391 3.5-10.391h4.8906l-6.4375 16.766c-0.64844 1.6953-1.4023 2.8828-2.2656 3.5625-0.86719 0.6875-2 1.0312-3.4062 1.0312h-2.8438v-3.2188h1.5312c0.83203 0 1.4375-0.13672 1.8125-0.40625 0.38281-0.26172 0.67969-0.73047 0.89062-1.4062l0.14062-0.42188z"/>
  </symbol>
  <symbol id="h" overflow="visible">
   <path d="m0.14062-20.406h18.812v3.9688h-6.7656v16.438h-5.2656v-16.438h-6.7812z"/>
  </symbol>
  <symbol id="g" overflow="visible">
   <path d="m17.75-9.3281v9.3281h-4.9219v-7.1406c0-1.3203-0.03125-2.2344-0.09375-2.7344s-0.16797-0.86719-0.3125-1.1094c-0.1875-0.3125-0.44922-0.55469-0.78125-0.73438-0.32422-0.17578-0.69531-0.26562-1.1094-0.26562-1.0234 0-1.8242 0.39844-2.4062 1.1875-0.58594 0.78125-0.875 1.8711-0.875 3.2656v7.5312h-4.8906v-15.312h4.8906v2.2344c0.73828-0.88281 1.5195-1.5391 2.3438-1.9688 0.83203-0.42578 1.75-0.64062 2.75-0.64062 1.7695 0 3.1133 0.54688 4.0312 1.6406 0.91406 1.0859 1.375 2.6562 1.375 4.7188z"/>
  </symbol>
  <symbol id="r" overflow="visible">
   <path d="m12.422-21.281v3.2188h-2.7031c-0.6875 0-1.1719 0.125-1.4531 0.375-0.27344 0.25-0.40625 0.6875-0.40625 1.3125v1.0625h4.1875v3.5h-4.1875v11.812h-4.8906v-11.812h-2.4375v-3.5h2.4375v-1.0625c0-1.6641 0.46094-2.8984 1.3906-3.7031 0.92578-0.80078 2.3672-1.2031 4.3281-1.2031z"/>
  </symbol>
  <symbol id="e" overflow="visible">
   <path d="m9.6406-12.188c-1.0859 0-1.9141 0.39062-2.4844 1.1719-0.57422 0.78125-0.85938 1.9062-0.85938 3.375s0.28516 2.5938 0.85938 3.375c0.57031 0.77344 1.3984 1.1562 2.4844 1.1562 1.0625 0 1.875-0.38281 2.4375-1.1562 0.57031-0.78125 0.85938-1.9062 0.85938-3.375s-0.28906-2.5938-0.85938-3.375c-0.5625-0.78125-1.375-1.1719-2.4375-1.1719zm0-3.5c2.6328 0 4.6914 0.71484 6.1719 2.1406 1.4766 1.418 2.2188 3.3867 2.2188 5.9062 0 2.5117-0.74219 4.4805-2.2188 5.9062-1.4805 1.418-3.5391 2.125-6.1719 2.125-2.6484 0-4.7148-0.70703-6.2031-2.125-1.4922-1.4258-2.2344-3.3945-2.2344-5.9062 0-2.5195 0.74219-4.4883 2.2344-5.9062 1.4883-1.4258 3.5547-2.1406 6.2031-2.1406z"/>
  </symbol>
  <symbol id="q" overflow="visible">
   <path d="m16.547-12.766c0.61328-0.94531 1.3477-1.6719 2.2031-2.1719 0.85156-0.5 1.7891-0.75 2.8125-0.75 1.7578 0 3.0977 0.54688 4.0156 1.6406 0.92578 1.0859 1.3906 2.6562 1.3906 4.7188v9.3281h-4.9219v-7.9844-0.35938c0.007813-0.13281 0.015625-0.32031 0.015625-0.5625 0-1.082-0.16406-1.8633-0.48438-2.3438-0.3125-0.48828-0.82422-0.73438-1.5312-0.73438-0.92969 0-1.6484 0.38672-2.1562 1.1562-0.51172 0.76172-0.77344 1.8672-0.78125 3.3125v7.5156h-4.9219v-7.9844c0-1.6953-0.14844-2.7852-0.4375-3.2656-0.29297-0.48828-0.8125-0.73438-1.5625-0.73438-0.9375 0-1.6641 0.38672-2.1719 1.1562-0.51172 0.76172-0.76562 1.8594-0.76562 3.2969v7.5312h-4.9219v-15.312h4.9219v2.2344c0.60156-0.86328 1.2891-1.5156 2.0625-1.9531 0.78125-0.4375 1.6406-0.65625 2.5781-0.65625 1.0625 0 2 0.25781 2.8125 0.76562 0.8125 0.51172 1.4258 1.2305 1.8438 2.1562z"/>
  </symbol>
  <symbol id="p" overflow="visible">
   <path d="m17.75-9.3281v9.3281h-4.9219v-7.1094c0-1.3438-0.03125-2.2656-0.09375-2.7656s-0.16797-0.86719-0.3125-1.1094c-0.1875-0.3125-0.44922-0.55469-0.78125-0.73438-0.32422-0.17578-0.69531-0.26562-1.1094-0.26562-1.0234 0-1.8242 0.39844-2.4062 1.1875-0.58594 0.78125-0.875 1.8711-0.875 3.2656v7.5312h-4.8906v-21.281h4.8906v8.2031c0.73828-0.88281 1.5195-1.5391 2.3438-1.9688 0.83203-0.42578 1.75-0.64062 2.75-0.64062 1.7695 0 3.1133 0.54688 4.0312 1.6406 0.91406 1.0859 1.375 2.6562 1.375 4.7188z"/>
  </symbol>
  <symbol id="o" overflow="visible">
   <path d="m2.5781-20.406h5.875l7.4219 14v-14h4.9844v20.406h-5.875l-7.4219-14v14h-4.9844z"/>
  </symbol>
  <symbol id="n" overflow="visible">
   <path d="m2.1875-5.9688v-9.3438h4.9219v1.5312c0 0.83594-0.007813 1.875-0.015625 3.125-0.011719 1.25-0.015625 2.0859-0.015625 2.5 0 1.2422 0.03125 2.1328 0.09375 2.6719 0.070313 0.54297 0.17969 0.93359 0.32812 1.1719 0.20703 0.32422 0.47266 0.57422 0.79688 0.75 0.32031 0.16797 0.69141 0.25 1.1094 0.25 1.0195 0 1.8203-0.39062 2.4062-1.1719 0.58203-0.78125 0.875-1.8672 0.875-3.2656v-7.5625h4.8906v15.312h-4.8906v-2.2188c-0.74219 0.89844-1.5234 1.5586-2.3438 1.9844-0.82422 0.41406-1.7344 0.625-2.7344 0.625-1.7617 0-3.1055-0.53906-4.0312-1.625-0.92969-1.082-1.3906-2.6602-1.3906-4.7344z"/>
  </symbol>
  <symbol id="m" overflow="visible">
   <path d="m2.5781-20.406h8.7344c2.5938 0 4.582 0.57812 5.9688 1.7344 1.3945 1.1484 2.0938 2.7891 2.0938 4.9219 0 2.1367-0.69922 3.7812-2.0938 4.9375-1.3867 1.1562-3.375 1.7344-5.9688 1.7344h-3.4844v7.0781h-5.25zm5.25 3.8125v5.7031h2.9219c1.0195 0 1.8047-0.25 2.3594-0.75 0.5625-0.5 0.84375-1.2031 0.84375-2.1094 0-0.91406-0.28125-1.6172-0.84375-2.1094-0.55469-0.48828-1.3398-0.73438-2.3594-0.73438z"/>
  </symbol>
  <symbol id="l" overflow="visible">
   <path d="m2.3594-15.312h4.8906v15.031c0 2.0508-0.49609 3.6172-1.4844 4.7031-0.98047 1.082-2.4062 1.625-4.2812 1.625h-2.4219v-3.2188h0.85938c0.92578 0 1.5625-0.21094 1.9062-0.625 0.35156-0.41797 0.53125-1.2461 0.53125-2.4844zm0-5.9688h4.8906v4h-4.8906z"/>
  </symbol>
  <symbol id="k" overflow="visible">
   <path d="m14.719-14.828v3.9844c-0.65625-0.45703-1.3242-0.79688-2-1.0156-0.66797-0.21875-1.3594-0.32812-2.0781-0.32812-1.3672 0-2.4336 0.40234-3.2031 1.2031-0.76172 0.79297-1.1406 1.9062-1.1406 3.3438 0 1.4297 0.37891 2.543 1.1406 3.3438 0.76953 0.79297 1.8359 1.1875 3.2031 1.1875 0.75781 0 1.4844-0.10938 2.1719-0.32812 0.6875-0.22656 1.3203-0.56641 1.9062-1.0156v4c-0.76172 0.28125-1.5391 0.48828-2.3281 0.625-0.78125 0.14453-1.5742 0.21875-2.375 0.21875-2.7617 0-4.9219-0.70703-6.4844-2.125-1.5547-1.4141-2.3281-3.3828-2.3281-5.9062 0-2.5312 0.77344-4.5039 2.3281-5.9219 1.5625-1.4141 3.7227-2.125 6.4844-2.125 0.80078 0 1.5938 0.074219 2.375 0.21875 0.78125 0.13672 1.5547 0.35156 2.3281 0.64062z"/>
  </symbol>
 </defs>
 <g>
  <path d="m112.48 414.28c-2.9844-4.4414-3.2227-10.18-0.61719-14.852 2.5117-3.5117 5.6562-6.5234 9.2734-8.8789 10.07-6.1328 22.043-8.3398 33.637-6.1992 0.69922 0.066407 1.4023 0.089844 2.1055 0.066407-3.832-13.691-8.4336-27.238-11.23-41.148-1.5273-9.1406-1.9023-18.438-1.1133-27.672 0.64063-11.551 2.5234-23.031 3.9023-34.539 0.066406-1.1055 0.34375-2.1875 0.82031-3.1875 0.62891-0.77734 1.3828-1.4492 2.2266-1.9883 0.78906 0.65625 1.3984 1.5 1.7734 2.457 0.60156 8.082 3.5 15.824 8.3516 22.316 4.1797 7.0859 9.25 13.648 13.93 20.438l1.5312-0.83984-3.3711-11.59c0.16016-2.8945 0.125-6.5234 0.59766-10.086 1.9922-14.965 4.2539-29.898 6.1797-44.871 0.92188-7.1719 1.6328-14.402 1.8594-21.621v0.003906c0.26562-7.5273 0.10938-15.059-0.47266-22.566-1.1328-10.879-5.7461-21.098-13.156-29.141-1.4336-1.6719-3.0117-3.2422-4.2812-5.0312-0.55859-0.80078-0.70703-1.8203-0.39453-2.7422 0.83984-0.60938 1.8711-0.89062 2.9062-0.78516 0.78906 0.089843 1.5352 0.42969 2.125 0.96094 7.3359 5.9258 14.871 11.629 21.887 17.914 9.0625 8.1211 12.52 19.812 18.121 30.129l0.003906-0.003906c0.35547 0.80859 1.0195 1.4414 1.8438 1.7578-0.52344-6.7695-0.73047-13.586-1.6406-20.305-1.2578-13.496-0.58984-27.098 1.9883-40.402 1.8398-14.34 5.3203-28.426 10.375-41.969 4.7383-9.7969 10.844-18.867 18.137-26.941 7.7109-9 16.648-16.871 26.547-23.387 11-7.9297 18.656-19.664 21.492-32.926-0.070312-3.8594-0.78516-7.6836-2.125-11.309-0.15234-1.8164-0.14844-3.6406 0.011719-5.457 1.6406 0.66016 3.1406 1.6289 4.418 2.8555 6.1016 9.207 11.691 18.762 17.992 27.828v-0.003906c4.9609 7.8125 8.3555 16.516 9.9883 25.625 3.4727 13.633 1.5234 28.082-5.4297 40.312-6.3984 13.023-10.863 26.91-13.258 41.223-0.76562 5.6406-0.98828 11.344-0.66406 17.027 0.25 14.172 3.5234 28.125 9.5938 40.934 2.0781 5.0938 3.4258 5.7695 7.2227 1.6953 4.2305-4.8711 8.1016-10.047 11.578-15.48 8.4844-11.926 12.539-26.441 11.469-41.035-0.097657-1.3828-0.61719-2.7344-0.71094-4.1172-0.007812-1.2422 0.078125-2.4844 0.24609-3.7109 1.25 0.38672 2.4102 1.0234 3.4102 1.8633 4.4062 5.9219 8.7773 11.883 12.859 18.031 4.8477 6.1836 8.9219 12.938 12.133 20.109 1.8828 6.9961 2.5391 14.27 1.9414 21.492-0.09375 13.777-3.375 27.344-9.5859 39.645-0.35547 0.70312-0.66406 1.4297-0.92578 2.1758-0.058594 0.62109-0.050781 1.25 0.023437 1.8711 4.082-1.7578 7.9375-4 11.488-6.6758 5.4805-5.5586 10.645-11.426 15.461-17.57 1.8516-2.25 4.082-2.5703 5.293 0.21484 4.0703 9.3516 9.168 18.41 9.3516 29.016 0.23828 13.547 0.75 27.098 0.52734 40.641-0.44141 5.7734-1.3594 11.504-2.7461 17.129-1.8516 9.9492-3.7109 19.898-5.7812 29.805v-0.003906c-0.88672 3.8281-1.9883 7.6016-3.3086 11.301-1.6133 4.8594-3.4062 9.6562-5.3086 15.008 9.457-1.9648 18.238-8.8125 27.434-0.35156 6.7383 6.2031 16.859 9.3125 17.961 20.387 5.75 2.8438 11.242 6.1797 16.418 9.9648 3.3945 3.8789 6.4023 8.0859 8.9727 12.559 4.1094 6.4102 6.1055 13.945 5.7031 21.551 0.35156 6.3711-5.5117 10.219-12.727 8.875l0.003906 0.003906c3.1562-1.9531 5.8594-4.5547 7.9336-7.6289 0.69531-3.7305 0.34766-7.582-1.0117-11.129-0.89062-3.3438-0.28906-8.1875-6.1055-8.8633 1.6758 4.4219 3.3164 8.4297 4.7148 12.52 2.2188 6.4766 0.42188 8.6055-7.8828 7.9219l5.5469-4.4375c2.4062-9.4961-6.3438-5.1602-11.445-7.5586l6.5234-2.9727-8.7734-14.305 7.5469 0.57812 0.59766 4.1094 1.875-0.48828v-0.003907c-0.38281-2.1914-1.2734-4.2617-2.6055-6.0469-4.8984-3.3906-10.027-6.4297-15.348-9.1055-1.5469-0.22266-3.1133 0.27344-4.2422 1.3555-4.3359 3.457-5.3984 9.6094-2.4766 14.32 1.9805 5.4023 2.7656 11.172 2.2969 16.91-0.99609 5.5391 2.5352 10.883 8.0195 12.145 5.4141 1.7734 11.32 2.0742 15.324 7.4453 4.332 6.3867 7.0273 13.738 7.8477 21.414-0.085938 1.25-0.58594 2.4375-1.4219 3.375-7.9648 10.84-20.23 17.699-33.637 18.805-0.95703-0.23438-1.8438-0.70312-2.5703-1.3711 0.69531-0.86719 1.5508-1.5977 2.5156-2.1523 5.6914-1.8203 11.457-3.4219 17.168-5.1875 1.2031-0.53516 2.3516-1.1836 3.4375-1.9297l-11.613-2.0742 0.19922-2.0234v0.003906c1.3867-0.30078 2.8086-0.43359 4.2266-0.39453 4.457 0.63672 5.3477-1.6328 4.4141-5.2617-1.0195-3.957-2.3125-7.8438-3.4297-11.777v-0.003906c-1.1055-3.3438-1.6523-6.8516-1.6211-10.375l3.0273 7.2031 5.7656-4.6172 4.3828 3.8359 1.4062-1.5117c-2.082-1.9844-4.0352-4.1328-6.2695-5.9258-2.9805-2.0391-6.5-3.1406-10.113-3.1641-3.6133-0.023438-7.1484 1.0352-10.152 3.0391-1.207 1.0195-2.5742 1.8281-4.0469 2.3906-6.8984 2.0547-7.9492 7.4805-7.793 13.453 0.44922 1.4141 1.1406 2.7383 2.043 3.918 1.918 2.9297 3.293 6.1836 4.0664 9.5977 0.38281 6.2617-0.097656 12.543-1.4219 18.672-1.3203 3.1836-3.6953 5.8164-6.7305 7.4492-9.9492 6.3555-20.324 11.723-32.77 8.6602-4.668 12.918-15.523 16.68-27.496 18.945-10.676 2.0195-19.793-3.0273-29.281-6.3164l0.003906-0.003906c-0.85156-0.90234-1.4492-2.0156-1.7344-3.2266 1.0469-0.41016 2.168-0.59375 3.2891-0.52734 2.3203 0.92188 4.582 1.9922 6.7695 3.1953l-2.4258-11.441c3.3086 4.8086 4.9531 12.301 13.836 7.3828-1.168-2.6211 0.26172-7.418-5.8906-5.7422l4.3945-6.3086c4.7344 6.4258 11.348 0.95312 17.172 1.3086 1.625-1.1992 2.9297-2.7852 3.793-4.6133 3.1172 3.3789 4.8398 7.8164 4.8242 12.414-1.457-2.6602-3.4062-5.0234-5.7383-6.9609-2.5586-0.10156-5.1055 0.40625-7.4297 1.4805 2.0625 3.9062 3.7734 7.1406 6.0664 11.484v-0.003907c-2.625-0.054687-5.2539 0.03125-7.8711 0.26172-1.1211 0.42969-2.1484 1.0781-3.0156 1.9141 0.82422 0.70703 1.8242 1.1875 2.8945 1.3867 5.2539-1.418 10.426-3.1211 15.492-5.1055 5.8203-2.418 6.6523-7.5938 7.7812-13.398 1.7344-8.918-2.5-14.926-7.3359-20.961v-0.003907c-1.9727-1.6641-4.3555-2.7773-6.9023-3.2188-2.543-0.44141-5.1602-0.19922-7.582 0.70312-5.7773 2.0469-11.73 3.5586-17.785 4.5156-5.9102 1.3008-11.008 5.0117-14.062 10.238-0.41016 0.64453-0.51953 1.4375-0.29297 2.1719 3.0312 7.6484-0.50391 14.672-2.7695 21.473h-0.003906c-1.7305 3.3086-4.8203 5.6992-8.4531 6.5469-11.098 2.4453-22.449 5.4648-33.805 2.2109l-0.003906 0.003906c-6.5508-2.3281-12.945-5.0781-19.145-8.2305-1.6406 2.3984-3.9727 4.2461-6.6836 5.293-2.7109 1.0469-5.6797 1.25-8.5078 0.57813-10.547-3.3359-22.082-3.6602-31.562-10.367-2.3789-1.5586-4.9688-2.7656-7.6914-3.5898-4.125-0.89453-7.7773-3.2891-10.238-6.7188-2.4648-3.4336-3.5664-7.6562-3.0977-11.855-3.9609 2.4414-8.0742 4.6211-12.316 6.5273-3.4844 1.1133-7.1094 1.7422-10.766 1.8672-2.1367 0.17969-4.4336-0.99219-6.5-0.64062-3.7656 0.60938-7.625 0.11719-11.117-1.4141-3.4922-1.5352-6.4688-4.043-8.5664-7.2266-2.6875-3.2734-5.9961-6.0469-8.6055-9.3711v-0.003906c-2.207-2.457-3.8477-5.3672-4.8047-8.5273-0.089844-1.4258-0.83203-2.7266-2.0078-3.5312-1.1758-0.80469-2.6562-1.0234-4.0156-0.59375-5.1016 0.33203-10.105-1.5117-13.773-5.0742-4.4648-3.7539-9.2383-7.1328-14.262-10.098-3.4414-1.3594-5.9805-4.3438-6.7695-7.957-0.78906-3.6172 0.27344-7.3906 2.8359-10.059 2.6875-2.2695 3.3516-6.1445 1.5742-9.1797-1.668-3.1406-1.8594-6.8633-0.51172-10.156 1.3438-3.293 4.0859-5.8164 7.4766-6.8906 4.8633-2.2344 9.6328-4.707 14.602-6.6758v-0.003906c2.0938-0.49219 4.2461-0.68359 6.3945-0.55859-0.97266 1.4805-2.2148 2.7656-3.6602 3.7891-4.7383 2.0586-9.75 3.4883-14.508 5.5117v-0.003906c-4.207 1.3867-6.5742 5.8516-5.3555 10.113l6.4883-4.8672c-0.49219 4.9258-6.7344 5.7734-5.582 12.207l16.406-12.312c-1.8047 2.957-4.0195 5.6484-6.5742 7.9922-4.4102 4.4844-9.0977 8.7461-13.105 13.57-1.8281 1.8477-2.5273 4.5352-1.8359 7.043 0.69141 2.5078 2.6719 4.4531 5.1914 5.1016 1.2617 0.5625 2.5625 1.043 4.2695 1.7305 1.9844-6.2188-6.5664-7.4961-5.9883-11.184h-0.003907c2.0625-0.78125 4.0195-1.8047 5.8398-3.0469 2.7188-3.8789 6.9414-6.4414 11.637-7.0625l-6.6289 6.3555 11.25 10.422 4.3672-5.2695c-0.70703 1.9336-1.2031 3.9375-1.4805 5.9766 1.3594 1.6406 3.0938 2.9219 5.0625 3.7383l6.7773-4.7891-0.62109 10.867 7.1875-6.8984c-5.5352-5.0039-9.3477-11.625-10.898-18.922-1.6875-8.625 4.3359-13.555 9.1328-19.602-2.7891-1.3672-5.4258-2.4297-7.8125-3.8906-3.2969-2.0156-6.4062-4.3359-9.5977-6.5273zm255.16-12.414c-2.9375 3.8398-6.1953 7.4258-9.7383 10.715-1.2617 0.57422-2.1523 1.7383-2.3828 3.1055-0.23047 1.3633 0.23047 2.7578 1.2344 3.7109 0.75391-2.2188 1.7227-4.3633 2.8945-6.3984 2.6406-3.6992 5.6484-7.1367 8.5039-10.684 2.8594-1.5547 4.8906-5.1875 9.8711-3.8672l-8.0078 6.0156 0.003906 0.003906c5.3594 2.8633 12.016 1.3164 15.562-3.6211l-12.402-6.5742c-1.8906 2.5898-3.7148 5.0898-5.5391 7.5938zm-179.11 98.203c-0.69922 0.33203-1.3086 0.82813-1.7812 1.4453-0.99609 6.4961 2.7617 12.781 8.9531 14.98-0.88281-1.1758-1.6797-2.4141-2.3828-3.7031-1.8711-4.168-6.0469-7.4766-4.8711-12.801 0.80469 1.2266 1.6914 2.4102 2.4023 3.6914 3.4883 6.2383 5.4219 13.598 12.613 17.117 3.3906 1.6562 6.6992 3.4922 10.137 5.0391l0.003906-0.003906c2.043 0.79687 4.1289 1.4766 6.25 2.0352-3.25-2.668-6.1562-5.7305-8.6562-9.1172-2.0586-4.1953-6.418-6.7578-11.086-6.5234l3.707-1.6523-3.3438-7.2773 1.0625-1.1016c4.0977 6.0625 8.0391 12.539 16.195 6.9688 5.5625 3.6836 6.3945 12.461 14.309 11.965-0.050781 1.3242-0.20312 3.1875-0.11328 3.1992 2.0781 0.27344 4.1797 0.33984 6.8828 0.48047l-4.9922-7.2695 5.2695-0.11328-0.92188 1.0117c1.0742 1.9062 2.6016 3.5195 4.4453 4.6992 3.082 0.18359 6.1797-0.10547 9.1758-0.86328-0.52734-6.9219-1.0117-13.773-1.5781-20.617-0.53906-6.5508 0.054687-7.043 6.3008-5.2734l-0.003906-0.003907c3.4766 1.7578 7.6523 1.3906 10.766-0.94922l-17.676-2.3672-0.80078 4.7344c-1.4688-1.1367-2.3125-1.7578-3.1211-2.4219v-0.003906c-4.2578-4.0156-9.5273-6.8086-15.242-8.082-7.3828-1.25-14.633-3.2734-22-4.6406-7.0117-1.3008-9.3008 0.47656-11.824 7.2969-1.1289 2.2227-2.5977 4.2578-4.3477 6.0312-1.1523 1.4375-2.4805 2.7305-3.7305 4.0898zm-12.32-171.72c-3.6914-4.8906-7.6133-9.625-11.02-14.707-5.0352-7.5039-9.707-15.254-15.129-23.836-0.83984 10.137-1.8594 19.586-2.3477 29.062h-0.003906c-0.67578 14.043 1.3555 28.086 5.9844 41.363 3.0234 8.8906 4.7812 18.184 11.371 25.422 3.2578 6.1016 7.0391 11.914 11.297 17.367 7.6367 8.3359 16.25 15.785 24.605 23.438v0.003906c1.7109 1.3906 3.6914 2.4141 5.8164 2.9961 4.6055 1.6211 9.3242 2.9102 14.117 3.8477 4.5 0.48047 9.0273 0.68359 13.555 0.60156l-2.1133-5.6836 1.0234-1.1992v-0.003906c1.7383 2.0898 4.0195 3.6562 6.5938 4.5234 2.5781 0.87109 5.3438 1.0078 7.9883 0.39844 6.4258-0.61328 12.895-0.60937 19.32 0.011719 14.117 1.7773 28.441 0.78516 42.176-2.9219 9.4023-2.4961 18.652-5.6211 27.824-8.8789 4.6055-1.5664 8.9961-3.707 13.066-6.3711 12.809-9.1719 22.691-21.855 28.445-36.523 5.8477-15.398 10.492-31.23 13.898-47.344 1.6094-8.0117 2.7305-16.109 3.3516-24.254 1.5117-16.449 0.75781-33.023-2.2344-49.266-1.3672-5.6445-3.2656-11.141-5.6719-16.422l-1.8203-0.050781c-5.2422 5.6836-10.348 11.5-15.762 17.016-5.2695 5.3672-10.852 10.426-16.297 15.621l-2.0703-2.1289 9.8047-8.3516v-0.003906c-3.8438 1.5977-7.5547 3.4922-11.098 5.6719-1.2656 0.17578-2.5547 0.035156-3.7539-0.40625 0.23828-1.3906 0.66406-2.7422 1.2539-4.0234 2.3086-3.668 5.2383-6.9883 7.2109-10.812v-0.003906c4.5898-10.344 7.5039-21.355 8.625-32.621 3.7617-23.207-7.2109-39.855-21.938-55.699v0.003906c0.23047 12.34-3.0156 24.5-9.3711 35.082-6.7578 10.09-14.098 19.789-21.449 30.035v-0.003907c-0.67969-0.66406-1.2969-1.3828-1.8516-2.1523-9.668-19.254-16.227-39.047-13.91-61.219 1.6758-18.18 6.7266-35.887 14.891-52.219 1.8398-3.4727 3.1562-7.1992 3.918-11.055 1.7539-11.059 0.89844-22.375-2.4922-33.047-3.9922-13.809-13.363-24.23-19.949-37.309-1.4922 13.82-8.1133 26.578-18.551 35.754-13.863 11.211-28.43 21.609-38.641 36.594v0.003906c-3.9844 5.457-7.4844 11.258-10.457 17.324-5.2305 12.164-8.4688 25.086-9.5859 38.277-1.9492 11.949-2.8828 24.047-2.793 36.156 1.1641 16.586 4.9102 32.988 7.4258 49.484h0.003906c0.078125 1.8867-0.050781 3.7734-0.39062 5.6289l-1.4648-0.019532c-3.2891-8.3125-6.2812-16.766-9.957-24.906v0.003906c-3.3867-8.3164-7.5234-16.309-12.359-23.879-5.5469-7.043-11.562-13.703-18.012-19.934l-1.3789 1.1367c0.85156 1.6328 1.7031 3.2656 2.5586 4.8984 2.7891 5.3359 5.9883 10.5 8.2891 16.035 5.0352 12.129 9.6328 24.441 14.379 36.691 3.7969 9.8086 7.5938 19.617 11.305 29.457v0.003907c4.3125 9.3008 10.871 17.383 19.082 23.523-0.65625-2.9023-1.3594-5.793-1.9648-8.7031-2.2617-10.898-4.7539-21.758-6.5977-32.723v-0.003906c-0.14063-4.082 0-8.168 0.42969-12.23-1.3867-26.031-0.007813-52.133 4.1133-77.875 0.74609-3.8633 1.2383-7.7852 1.7031-11.695v0.003906c0.54297-10.777 4.0156-21.195 10.043-30.145 9.5977-12.496 19.621-24.668 30.062-36.508 9.6836-10.988 22.84-19.48 24.137-36.074h0.003906c0.52734-0.80859 1.2617-1.4609 2.1289-1.8906 0.80469 0.64453 1.4531 1.4688 1.8828 2.4062-0.15625 1.7148-0.21484 3.4414-0.17188 5.1641 2.8086 12.324 3.5195 25.031 2.1094 37.59-0.85938 12.246-2.9961 24.367-6.3828 36.168-5.9492 16.625-9.457 34.027-10.418 51.66-0.47656 21.414 6.4648 42.332 19.648 59.215 2.3477 2.9844 4.1211 6.418 6.6406 10.402 4.3281-6.25 7.9844-11.73 11.84-17.07 10.602-14.695 24.91-27.152 27.855-46.473v0.003906c0.62109-0.92578 1.4727-1.6758 2.4688-2.1719 0.64062 0.9375 1.1328 1.9688 1.4609 3.0547 0.35156 2.4648 0.019531 5.0703 0.61719 7.4531v0.003906c4.0625 18.895 2.9531 38.539-3.2148 56.859-2.75 9.4648-6.3047 18.691-9.4961 28.027l1.1836 1.2031v0.003906c17.625-2.6719 33.59-11.914 44.676-25.875 0.96875 2.3281 1.6094 4.7773 1.9023 7.2812-0.37891 4.5-1.4258 8.9375-2.0742 13.422-1.9297 13.367-4.043 26.719-5.6133 40.129h0.003906c-1.7695 13.559-5.1094 26.859-9.957 39.645-4.668 11.316-10.535 22.102-17.512 32.16-6.6055 11.488-17.359 20.008-30.051 23.809-2.0586 0.79297-4.0703 1.7031-6.0234 2.7266-6.125 2.7734-12.395 5.2148-18.781 7.3125-5.6797 1.3242-11.449 2.207-17.266 2.6445-6.8398 1.0977-13.738 1.7891-20.656 2.0781-15.875-0.64063-31.629-3.0078-46.988-7.0586-7.9805-1.5039-15.168-5.7891-20.285-12.094-7.4922-9.707-18.531-13.965-27.98-20.648l-1.0547-5.6289 14.84 11.848c-4.6367-6.5312-8.6797-13.465-12.082-20.719-3.1992-8.7305-4.168-18.254-6.5156-27.328-2.1055-8.1328-1.3477-17.051-6.4258-24.371-2.5039-3.3828-2.4219-8.0273 0.20312-11.316 2.543 4.1953 4.9297 7.9961 7.1836 11.875 6.8711 11.832 14.145 23.223 28.781 27.289-1.1562-7.875-2.8242-15.734-3.3633-23.668l0.003906-0.003906c-0.65234-14.793 0.77344-29.605 4.2383-44.008 3.6367-13.086 4.1133-26.852 1.3828-40.16-1.1758-4.4297-1.625-9.0234-1.3164-13.602 0.35156-5.4414-1.2148-10.832-4.4258-15.238-0.36719 8.5586-0.76953 17.898-1.1602 27.238-0.32812 7.7617-2.2734 15.629 2.2305 23.008h-0.003906c1.1797 2.4258 2.1094 4.9648 2.7773 7.5781l-1.1211 0.48828-5.4727-9.8789c-6 10.613-0.92969 20.383 1.2422 30.254l-1.1797 0.34375-4.4219-8.3945c-0.94141 12.703-5.2383 24.445 3.8867 35.273l-3.3906-0.80469c-0.019532 4.7227 3.4531 10.289-3.7305 12.484zm22.258-83.316c-1.3711 11.523-2.1602 23.113-4.2344 34.473-4.1406 17.289-5.2969 35.16-3.4141 52.84 0.83203 5.2539 2.1953 10.422 3.1719 15.656 0.39453 1.3828 0.31641 2.8555-0.23047 4.1875-1.1367 0.68359-2.5352 0.77344-3.75 0.24219-4.4258-2.0312-8.668-4.4336-12.684-7.1797-5.4922-4.0703-10.504-8.7812-15.617-13.133 1.4531 8.4492 2.5898 17.316 4.5977 25.98h-0.003906c0.99609 6.2031 3.1328 12.168 6.3008 17.594 7.1055 9.6641 14.734 18.934 22.855 27.762 2.582 3.1875 5.8359 5.7656 9.5273 7.5547 15.277 5.4648 31.188 8.9648 47.344 10.414 4.207 0.69922 8.4805 0.89453 12.734 0.58203 6.0781-0.72656 12.113-1.7656 18.086-3.1055 8.2969-1.6836 16.691-3.1016 24.773-5.5352 5.8438-1.8984 11.449-4.457 16.711-7.6289 6.8711-3.3711 13.258-7.6484 18.988-12.719 19.637-20.105 27.484-45.73 31.762-72.699 2.0898-13.184 3.8359-26.422 5.6094-39.652 0.56641-4.2227 0.70703-8.5039 1.0938-13.355-15.578 7.0508-28.809 17.402-46.688 16.723 0.47266-2.0977 0.70703-3.5898 1.1484-5.0195 3.8984-12.625 8.4961-25.082 11.539-37.906h-0.007812c2.0664-9.9922 3.3477-20.129 3.832-30.32-0.10156-4.4141-0.66797-8.8047-1.6875-13.098-8.6797 15.957-38.078 54.406-43.605 55.855-2.8672-4.6758-5.6016-9.4414-8.6562-13.988-2.3633-2.5312-4.5039-5.2617-6.3945-8.1602-5.9453-12.516-10.066-25.816-12.246-39.5-1.6055-18.125 0.73438-36.387 6.8672-53.52 7.2773-21.703 10.531-44.555 9.6016-67.43-0.16016-2.8438-0.84375-5.6562-1.2773-8.4336-3.6953 4.5273-6.8047 8.8672-10.449 12.695-12.73 13.367-26.637 25.605-37.188 41.016v0.003907c-6.6641 8.6133-11.285 18.629-13.516 29.285-2.0039 12.859-3.9258 25.766-5.0352 38.727-1.1367 13.332-1.2773 26.754-1.8008 40.137-0.23828 6.1328-0.69141 12.281-0.44141 18.398 0.058594 8.3203 0.76953 16.625 2.1211 24.836 2.25 11.195 5.8477 22.117 8.7188 33.195 0.11719 1.6914-0.015626 3.3945-0.39063 5.0469-21.348-15.746-31.504-37.344-38.066-60.82zm-29.125 186.42c2.0586 2.5039 3.4766 4.1523 4.8086 5.8672v-0.003906c2.0195 2.2578 3.3672 5.0312 3.8945 8.0117 0.52734 2.9805 0.21484 6.0469-0.91016 8.8594-2.2461 5.6641-7.3125 9.7266-13.332 10.695-6.4375 0.91406-12.965-0.92578-17.98-5.0664-2.1758-2.2344-4.7305-4.0664-7.543-5.4102-4.4609-0.66406-7.9531-4.1836-8.582-8.6484-1.4609-3.9492-0.074219-8.3867 3.375-10.801 1.7578-2.2969 2.9688-4.9609 3.543-7.7891-5.3438 1.5273-9.5234 5.7031-11.055 11.047s-0.19531 11.098 3.5273 15.223c2.9258 3.4883 6.168 6.6992 9.6797 9.5977 5.4922 4.668 12.164 7.7422 19.281 8.8828 7.1211 1.1445 14.414 0.30859 21.094-2.4062 2.0898-1.5938 4.0078-3.3984 5.7227-5.3906 5.8945-2.4336 8.7891-9.1133 6.5352-15.078-2.2227-10.992-9.0703-20.5-18.789-26.102-4.1445-2.5586-8.9453-3.8398-13.812-3.6914-4.8672 0.15234-9.582 1.7344-13.559 4.543-4.3086 3.3008-7.0391 8.2539-7.5273 13.656-0.48828 5.4062 1.3086 10.77 4.957 14.785 4.6953 5.1367 11.523 7.7734 18.453 7.125 4.1211-0.78906 8.082-2.2422 11.742-4.293 0.65625-0.64844 1.082-1.4961 1.207-2.4141 0.80859-4.2656 0.0625-8.6836-2.1055-12.449-2.168-3.7656-5.6172-6.625-9.7148-8.0664-2.5547-0.65625-5.2695-0.22656-7.5 1.1875-2.2266 1.4141-3.7734 3.6914-4.2656 6.2812-0.33203 2.1289 0.19531 4.3047 1.4688 6.043 1.2734 1.7383 3.1875 2.8945 5.3164 3.2188 5.0859 0.57812 4.0703-3.3008 4.293-6.2344 0.16406-0.25781 0.40234-0.46094 0.67969-0.58984 4.0273 1.9805 4.7695 4.6406 1.8555 7.4375-2.4102 3.2031-6.8633 4.0469-10.281 1.9531-4.1016-2.7695-7.8203-6.0703-11.055-9.8164-1.2617-1.4766-1.832-3.4219-1.5664-5.3477s1.3438-3.6406 2.9609-4.7188c-0.050781 1.7656 0.003907 3.5352 0.16016 5.2969 0.30469 1.4688 0.71875 2.9102 1.2305 4.3203 0.78516-0.98438 1.3242-2.1406 1.5742-3.375 4.5742-10.879 8.1133-15.711 19.918-10.121 1.1016 0.59375 2.2891 1.0195 3.5195 1.2617 4.2266 0.35938 8.0703 2.5938 10.477 6.0859 2.4102 3.4922 3.125 7.8789 1.957 11.957-3.1406-6.0156-3.2305-14.41-13.652-15.523zm164.33 4.1133c-0.53516 0.085938-1.9141 0.38281-3.3125 0.50781-6.6641 0.67969-12.906 3.5664-17.738 8.2031-5.1758 4.6172-10.898 9.1484-10.477 16.438-0.097656 4.0781 0.95703 8.0977 3.043 11.602 2.0898 3.5 5.1211 6.3398 8.7539 8.1953 12.785 5.875 25.57 7.9688 38.816 0.019531v-0.003906c3.9805-2.5117 7.1367-6.1289 9.0859-10.414 1.9492-4.2812 2.6016-9.0391 1.8789-13.691-3.5664-12.773-16.512-19.684-30.051-20.859zm-69.164 55.055c1.8984-0.042969 3.8008 0.011718 5.6914-0.14062 5.957-0.48047 14.883-7.2148 15.332-12.422h-0.003906c1.6133-9.3594-1.8516-18.871-9.1055-25-2.6484-2.2344-5.7461-3.8711-9.0781-4.8047-8.2617-2.1875-16.695-3.6562-25.207-4.3828-6.625 0.074218-12.98 2.6172-17.824 7.1367-2.8555 2.0039-4.4609 5.3555-4.2383 8.8359-0.30859 5.8594 4.0469 8.8633 7.207 12.707v0.003907c8.6875 11.77 22.602 18.523 37.227 18.066zm156.08-61.234c-1.4648-7.8594-2.9414-17.242-12.996-21.152-6.207-2.4141-12.797-5.0508-19.32-0.34766-3.1211 2.25-5.2695 6.5703-10.355 4.7656-0.88281 0.28516-1.6367 0.875-2.1328 1.6602-3.3555 3.543-6.3633 7.3984-8.9805 11.516-2.4805 4.3086-3.3203 9.3711-2.3555 14.25s3.6641 9.2461 7.5977 12.289c3.9336 3.0391 8.8398 4.5547 13.805 4.2578 1.8945-0.10938 3.793-0.10547 5.6914 0.011719 7.6289 0.92188 15.277-1.582 20.887-6.8438 5.6055-5.2578 8.5938-12.73 8.1602-20.406zm-165.17 95.539 0.18359-0.97656c1.9062-0.042969 3.8242 0.035156 5.7148-0.14844l-0.003906-0.003906c3.9062 0.035156 7.7969-0.50781 11.543-1.6094 0.92188-0.73438 2.1406-0.98828 3.2812-0.68359 1.1406 0.30469 2.0664 1.1367 2.5 2.2344 2.8711 5.0586 9.2695 6.8828 14.379 4.1016l-1.4375-5.6055c3.793 3.1797 6.668 3.7148 8.7773 0.12891 2.25 3.4453 2.3516 3.4375 7.4258-0.44531l-8.3633-5.5938 0.8125-1.3477 10.926 4.3789c2.5742-5.3398 2.5469-5.3984-0.027344-9.5312l0.007813-0.003907c-0.81641-1.332-1.5586-2.7109-2.2188-4.1289-2.7031-5.1758-7.1758-9.207-12.602-11.359-5.4297-2.1562-11.449-2.293-16.965-0.38672-7.7852 3.2148-15.082 9.8164-25.016 6.1836l0.57812 26.402 6.168 4.4883 1.0586-1.4609zm-123.2-34.418 6.0312-11.855c-1.0469 5.6992-3.6094 10.82-2.1836 14.301 2.5195 3.9297 6.9492 6.2109 11.609 5.9727 2.4414-4.6562 0.57031-6.3477-3.5-7.3398-2.3398-0.84766-4.5703-1.9648-6.6562-3.3242l0.90625-1.875 10.312 4.8633 5.8945-12.43 1.4062 0.61328v0.003906c-0.15234 0.70703-0.36328 1.3945-0.63672 2.0625-5.0078 9.7109-4.5938 10.684 5.875 13.691 0.61719 0.14453 1.2148 0.35156 1.793 0.60938 4.8594 2.4492 9.3281 3.1562 12.305-3.1914l0.88281 0.92188-4.0742 8.2891-0.65625-1.6914-10.008-0.92969-0.25391 6.043 1.1836 0.23828-2.832 2.4492-0.007813-0.003907c2.8047 0.40625 5.6602 0.29297 8.418-0.33594 6.2656-3.3008 12.316-6.9961 18.109-11.066 2.6562-1.9531 4.8242-4.4961 6.332-7.4258 1.0312-6.168-1.1641-12.438-5.8164-16.617-1.2578-0.38281-2.6133-0.29688-3.8125 0.25-2.9844 1.7461-6.2383 2.9844-9.6289 3.6602-10.09-0.3125-20.652 1.3984-29.816-4.8711-2.4375-1.668-4.9414-3.2422-7.4492-4.8828-2.9375 2.8203-5.8906 5.4336-8.5742 8.3008v0.003906c-2.8555 2.6836-3.4922 6.9766-1.5391 10.371 1.875 1.8242 4.0625 3.3281 6.3867 5.1953zm277.81-5.9453 1.5625-0.82812c-0.94531-2.1836-2.1992-4.2227-3.7188-6.0547-3.1758-3.0391-6.7227-5.668-10.559-7.8203-2.6602-1.2852-5.6523-1.7109-8.5625-1.2227-5.0742 1.0117-10.059 2.4375-14.898 4.2656-3.8164 1.8242-6.6758 5.1953-7.8516 9.2617-1.1797 4.0664-0.5625 8.4414 1.6875 12.023 4.207 4.9414 6.6055 11.164 6.8047 17.648 0.22656 1.418 1.1719 2.6211 2.5 3.1719 4.625 0.10547 9.2539-0.078124 13.855-0.55859 1.0312-0.53125 1.7031-1.5664 1.7734-2.7227-0.50391-1.082-1.4492-1.8906-2.5938-2.2266-1.5586-0.39453-3.1523-0.63281-4.7539-0.71875l-0.16406-1.8242 8.207-1.375-1.7617-8.6914c0.48438-3.0781 0.95703-6.0859 1.4492-9.1953 2.3438 10.188 7.707 14.672 16.926 13.73 0.57422-4.6133 1.1641-9.3438 1.6914-13.574l-9.1055-3.6055-0.007812-0.003906c0.37109 2.1289 0.94922 4.2188 1.7227 6.2344 1.3281 1.9258 2.8398 3.7109 4.5234 5.332l-9.1992-2.4883v-0.003906c0.58984-2.8555 0.96484-5.7539 1.1289-8.6641-0.28125-3.0469-0.76562-6.0703-1.4414-9.0547 3.6172 1.8281 2.2344 9.6289 8.0742 4.6484zm-96.199 19.52c4.918-9.3516 13.59-11.754 23.871-12.73-6.4766-1.3203-11.711-2.2109-16.852-3.4727v-0.003906c-7.668-1.4258-14.367-6.043-18.43-12.707-4.0586-6.6602-5.0977-14.73-2.8516-22.203 1.0234-4.9375 1.4492-9.9805 1.2695-15.016-0.48438-1.207-1.4453-2.1602-2.6562-2.6328-4.0391 2.2617-11.43-1.9297-12.496 3.8945h0.003906c-0.73438 6.8945-0.27734 13.863 1.3438 20.602 1.75 10.113 5.043 20.199-4.4453 28.465v-0.003906c-0.082032 0.37891-0.078125 0.76562 0.007812 1.1406 13.898-3.4844 22.926 3.8438 31.234 14.668zm-86.887-66.43c-5.9961-0.85547-10.879-1.5586-15.766-2.2305-0.32031-0.027344-0.63672 0.082031-0.875 0.30078-4.6445 5.3359-10.871 10.043-13.391 16.254h0.003907c-1.832 5.0859-4.1602 9.9805-6.957 14.609-0.62891 0.99219-0.76953 2.2148-0.39063 3.3281 1.5977 3.0039 3.5664 5.793 5.8672 8.3008 1.6836 0.87109 3.582 1.2383 5.4688 1.0625 3.9727 0.34766 8 0.25781 11.926 0.87109 5.8984 0.91797 11.73 2.2773 17.59 3.4531l0.44531-1.3828c-5.4336-6.5312-13.441-11.277-14.879-20.59-1.4883-9.6484 4.0703-16.367 10.957-23.977zm-63.797-46.887c-11.996-3.5781-22.34-5.7852-32.477-0.62891 1.8867 11.074 1.8867 11.074 6.7344 10.523h0.003906c-0.70703-1.9102-1.6328-3.7344-2.7578-5.4336-1.6953-1.9961-1.4688-3.1289 1.0156-3.3633 2.1484-0.035156 4.2969 0.10156 6.4258 0.41406l1.4922-2.3164 5.7969 5.9922 1.1367-0.83203-0.14062-6.4219c3.7578 3.1055 4.8594 9.9102 2.793 17.895l-0.003906 0.003906c-0.40625-2.293-0.98438-4.5469-1.7305-6.75-0.77344-1.2656-1.7188-2.4219-2.8047-3.4297-0.66016 1.2695-1.4102 2.5-1.9414 3.8203h0.003906c-0.28125 1.2305-0.44141 2.4883-0.48047 3.75l-5-7.5547-1.4453 0.74609 0.16797 7.7031-6.4805-1.543 0.98828 5.0625c-1.3711-0.89844-2.7773-1.75-4.0859-2.7305-0.29297-0.21875-0.11719-1.168-0.38672-1.2969l0.003906 0.003906c-1.0664-0.44141-2.1562-0.82422-3.2656-1.1367-0.34375 1.0234-0.42188 2.1211-0.22266 3.1836 0.77734 1.293 1.957 2.293 3.3633 2.8438 2.9648 0.74609 5.9688 1.3359 8.9922 1.7656-2.9844 3.8398-6.1016 3.2578-18.68-3.5312l-0.375 3.8164-1.2266 0.24609-3.0117-9.6836c-0.49219 1.0312-0.87109 2.1094-1.1328 3.2188-0.45703 7.2539 15.07 17.941 22.602 15.594 0.44922-0.14062 0.87891-0.34375 1.332-0.46094 4.9844-1.293 9.9961-2.5 14.957-3.8828 7.3594-2.0508 14.684-4.2266 22.355-6.4453zm253.07 15.684c1.2539-1.6172 3.543-4.3906 5.5703-7.3438l0.003906 0.003906c0.37109-0.92188 0.36719-1.9492-0.011718-2.8633-5.2422-1.3555-8.6953-7.6211-15.211-5.5859-1.3789-0.28516-2.6875-0.83984-3.8555-1.625l6.9688-2.8125c-4.7969-8.4062-11.379-2.0039-17.953-1.1875l2.2969-4.0859c-9.5117 0.49609-16.16 2.1094-18.184 10.273 6.5898 3.2891 13.098 7.1406 20.051 9.8281 6.668 2.1758 13.457 3.9766 20.328 5.3984zm-9.957 53.715c-14.246 1.6562-28.246 4.4805-39.707-7.6914 3.8555 14.039-0.88672 24.66-12.777 33.516l7.6914 2.1953v0.003906c-0.16406-3.9844 0.87891-7.9219 2.9922-11.301 2.1133-3.3789 5.1992-6.0391 8.8516-7.6289 4.1484-1.8008 8.7227-2.5977 13.051-4.0195v-0.003906c3.1094-1.2227 6.5117-1.5234 9.7891-0.86719 3.2773 0.66016 6.2969 2.25 8.6953 4.582zm-49.062-19.809 0.62109-1.0781c-2.0469-6.8867-4.0859-13.766-6.1289-20.633l-13.586 5.4141zm-69.664 94.211c-3.875-2.9453-7.8242-6.125-11.988-8.9805-1.2852-0.54688-2.7148-0.64063-4.0586-0.25781-2.375 0.44531-4.6875 1.2383-7.4805 2.0117v0.003906c2.7773 3.3828 6.4883 5.875 10.672 7.1602 4.1875 1.2852 8.6562 1.3086 12.855 0.0625zm-35.242-99.34 0.10547 1.0195c6.1641 0.79688 12.352 1.4609 18.488 2.4375 5.1211 0.70312 8.8984 5.1406 8.7773 10.309 0.32812 1.3242 0.87109 2.582 1.6133 3.7266 0.69531-3.3477 0.98047-6.7695 0.84766-10.188 0.46094-1.7266-0.039063-3.5703-1.3125-4.832-1.2695-1.2578-3.1172-1.7422-4.8438-1.2656-2.0352-0.015625-4.0664-0.16797-6.082-0.44922-5.8633-0.28125-11.727-0.50781-17.594-0.75391zm184.08 30.793c1.8164 5.7109 3.6406 11.445 5.8828 18.492l7.1992-6.1484-9.9766-5.2188 4.6758-1.0977c-1.6953-7.9805-2.1367-8.3281-7.7812-6.0234zm-266.56-49.113 18.562 5.1992-9.4961-10.027zm179.46 110.48c-1.5352-8.8359-4.8594-10.445-10.848-5.5234 2.4492 6.7188 2.5391 6.7656 10.848 5.5234zm-227.41-64.328-9.2695 13.77c2.3906 0.17969 4.7969 0.078125 7.1641-0.30078 1.4805-0.53516 2.6094-1.7539 3.0352-3.2734-0.050781-3.418-0.36328-6.8242-0.92969-10.195zm88.781 50.375c1.7891 5.3438 7.4297 8.375 12.879 6.918-4.6211-8.0859-4.6211-8.0859-12.879-6.918zm-82.547-121.95c-8.8203 3.75-10.801 5.2812-7.9727 11.699l3.8945-8.3086 1.2422 0.011718c-0.5625 3.0898-1.4648 6.4531 3.957 5.1289zm26.777 114.62-17.934-7.9648c5.375 8.1562 10.797 11.539 17.934 7.9648zm45.777-65.781 5.6367-6.3242-12.34-6.9648zm46.371 86.215-16.852 2.8945c9.4258 4.8672 15.906 3.9961 16.852-2.8945zm112.99-103.68c4.4609-4.8867 8.4531-9.2617 12.645-13.855-5.8438-0.84766-12.203 6.1445-12.645 13.855zm35.91 78.078c0.15625 3.5-1.2422 6.9453 3.0039 8.2578 3.5078 1.0859 4.9531-1.2656 6.5195-4.2734zm-243.66-7.0781c-1.4648 5.3828-1.0391 8.5352 3.5586 8.5273h-0.003906c1.5547-0.82031 2.8594-2.043 3.7852-3.5352zm151.95-48.816 1.8594 1.0781c2.6562-4.0859 5.3164-8.1719 7.9727-12.254l-1.4766-0.96875c-4.0742 2.9922-7.0234 7.2695-8.3594 12.145zm-196.35 23.832 4.2578 2.4844 4.6328-5.6094c-6.1914-1.9414-6.1914-1.9414-8.8906 3.125zm-10.215-4.7227c1.6289 5.6836 6.6484 9.7305 12.547 10.121zm97.504-17.238c2.7031-3.0703-0.89844-10.355-5.7656-13.012zm-86.754 14.66c-3.457-4.2266-5.3867-1.2617-7.9023 1.3008l4.0156 4.2109zm-12.574-2.7266c4.918-4.4102 4.9492-4.5586 1.3398-7.7188-0.92969 2.457-6.0586 3.6797-1.3398 7.7188zm245.34 75.848c-0.61719-2.2148-2.3555-3.9453-4.5742-4.5469-2.2227-0.60547-4.5977 0.007813-6.2539 1.6055zm-47.645-2.0039 10.84-0.23438c-3.6211-1.1562-7.125-4.8398-10.84 0.23438zm154.51-60.109c2.3438-5.2227 0.87891-7.4609-3.5078-6.9219zm-112.81-45.695-0.74219-2.1641-9.8867 3.4375 0.58203 1.6914zm-114.8 95.645-0.42578 2.0312 9.1602 2.2695 0.51562-2.1484zm89.27 1.5664-7.4805 3.9336c6.4336 2.7227 7.1758 2.3242 7.4805-3.9375zm-36.117-76.914 0.71875-1.5273-10.816-4.5547-0.38672 0.92969zm-32.07-8.6289-0.17969-1.2891-9.0234 0.89453 0.25391 1.8125z"/>
  <path d="m328.44 123.28c3.4219-3.5938 5.9414-4.8711 9.5039-2.5391 2.8281 1.3828 5.5898 2.9102 8.2656 4.5742 1.1914 1.4102 2.9727 2.1836 4.8164 2.0977 1.8477-0.089843 3.5469-1.0312 4.5977-2.5508 3.2227-3.5352 8.4141-4.4766 12.676-2.3008 12.406 3.9688 24.465 8.9609 36.051 14.922 13.969 8.8984 27.461 18.531 40.422 28.852 1.7852 1.332 3.0195 3.2734 3.4688 5.457 0.38672 3.0352 2.6211 5.5078 5.6016 6.1953 15.254 6.0391 30.582 11.895 45.742 18.16 17.031 7.0391 33.883 14.508 50.859 21.68 8.5664 3.6172 17.258 6.9414 25.852 10.496 6.4883 2.3711 12.812 5.1758 18.926 8.3906 2.9492 2.0781 5.0977 5.1094 6.0781 8.582 1.0859 3.5781-2.5625 4.0742-4.9883 3.4258-4.082-1.1797-8.0664-2.6602-11.926-4.4375-17.047-7.457-34.121-14.855-51.047-22.578-23.82-10.867-47.496-22.059-71.297-32.973h0.003906c-4.7656-2.1055-9.6484-3.9297-14.625-5.4688-1.5859-0.62109-3.3555-0.53125-4.8711 0.24219-5.9805 6.125-12.125 2.8359-17.949 0.36328-12.605-5.3516-25.215-10.758-37.453-16.879-10.68-5.3438-21.035-11.406-31.172-17.73-4.9766-3.0117-8.0156-8.4023-8.0156-14.215-0.43359-1.7188-1.5938-3.1641-3.1758-3.957-5.0742-2.6836-10.348-4.9844-16.344-7.8086zm32.961 17.805-3.7578-2.9609c-1.3359 7.6562 1.5547 11.535 9.7578 11.098-2.4961-1.3125-4.0391-2.1797-5.6328-2.9492-3.1797-1.5391-3.6914-3.2383-0.41797-5.2656 0.84766 0.64063 1.7227 1.2461 2.5352 1.9258 2.8711 2.3945 5.4492 5.8516 9.8945 1.8477-0.92969 6.1836 0.90234 7.8945 6.2969 7.1797l4.168 6.8477-5.9102-2.0273-0.47656 1.5586 8.2773 2.582 8.8242 4.5312 0.69531-1.1953-1.875-5.25h0.003906c2.6094 0.99609 5.1602 2.1484 7.6367 3.4492 3.5 2.6016 7.1523 5 10.93 7.1797 2.6875 0.53125 5.4492 0.53125 8.1367 0.003906l-3.0391 5.9414 0.75781 1.3867 9.4531-3.2656c-0.52344 2.207-0.89844 3.7969-1.6211 6.8477l8.8281-1.6523 1.0625 2.5312c9.0156-4.582 9.5625-9.5938 2.0039-15.137-0.63281-0.46484-1.293-0.90234-1.8906-1.4062v-0.003907c-13.484-11.938-28.629-21.855-44.961-29.445-8.5664-3.5117-17.359-6.4297-26.32-8.7344-2.293 0.19141-4.5 0.94531-6.4258 2.1953 1.1016 1.4922 2.1953 2.9961 3.3164 4.4766v0.003906c0.21875 0.29297 0.46094 0.57422 0.71875 0.83203-0.37891 2.707-0.67188 4.7969-0.96875 6.875zm186.57 80.43-0.42187 0.96094c10.023 4.5977 20.043 9.1953 30.066 13.797l1.0156-2.3633z"/>
  <path d="m386.12 51.141c0.57422-2.0312 1.0195-3.375 1.3359-4.75v-0.003906c0.46484-3.8398 2.8789-7.1719 6.3828-8.8086s7.6094-1.3477 10.852 0.76172c7.4648 3.7031 15.176 7.0039 22.301 11.273 6.043 3.4492 9.8125 9.8359 9.9102 16.793-0.28906 4.3477 2.543 8.2891 6.7539 9.4023 20.133 7.7266 40.18 15.68 60.137 23.863 15.293 6.3086 30.238 13.457 45.551 19.711 14.605 5.9648 29.457 11.34 44.266 16.797 7.3789 2.7188 14.914 5.0156 22.363 7.5391l-0.003906 0.003906c1.9883 0.59375 3.5156 2.1875 4.0195 4.1953 0.50781 2.0117-0.085938 4.1406-1.5547 5.6016-1.3984 0.69141-3.0312 0.74219-4.4727 0.14453-13.137-4.6719-26.219-9.5-39.312-14.293v0.003906c-1.6289-0.54297-3.2266-1.168-4.793-1.8711-20.355-9.8945-40.434-20.414-61.113-29.578-20.875-9.25-42.312-17.238-63.559-25.637-11.027-4.3594-10.691-3.9648-17.133 5.9297-3.4141 4.2812-7.3594 8.1133-11.742 11.398-0.89844 0.50781-1.9922 0.53516-2.9141 0.066406-7.0156-4.7695-13.711-10.051-20.934-14.469-8.2539-5.0469-8.875-13.078-8.6172-21.051 0.14453-4.5078-0.22656-7.0117-4.9102-8.3047-3.7383-1.2383-7.3828-2.7422-10.906-4.5039-2.6758-1.1758-2.9961-3.2539-0.46094-4.4219 2.293-1.0586 4.8711-1.332 7.3398-0.78516 3.8594 1.375 7.6094 3.043 11.215 4.9922zm27.805-3.9805 0.62891 9.4531-0.96875-0.039062-5.3359-11.945-1.1836 0.57031c-0.98828 15.727-2.9766 25.016-12.453 37.234 6.2773 3.7031 12.438 7.4531 18.746 10.93h0.003907c1.2891 0.32812 2.6602 0.097657 3.7734-0.63672 6.6836-4.8203 11.684-11.621 14.293-19.434 0.82031-3.6367 0.90234-7.3984 0.24609-11.066-0.21094-0.34375-0.51563-0.625-0.875-0.8125l-2.6094 2.9883c-3.418-3.918 1.5469-10.789-5.2109-12.535l-1.2383 6.1836-1.5859-0.10547-1.2109-8.7812zm-24.004 30.152 2.1602 0.003906c7.4141-7.9531 11.223-18.613 10.523-29.465 0.35938-1.3945 0.11328-2.8789-0.67578-4.0859-0.78906-1.2109-2.0508-2.0312-3.4727-2.2617-1.5469-0.46484-3.2188-0.26953-4.6133 0.53906-1.3984 0.80859-2.3984 2.1602-2.7656 3.7344-1.6953 6.0977-2.875 12.332-3.5234 18.633 0.25 4.3828 1.043 8.7148 2.3672 12.902z"/>
  <path d="m203.2 368.68c0.16016-1.3867 0.24609-2.7812 0.25-4.1758-0.66016-10.551-1.9102-21.094-1.9219-31.645-0.011719-11.793 1.0898-23.586 1.7109-35.375 0.13281-2.5156 0.13281-5.0508 0.48828-7.5352 0.35938-1.4062 0.87891-2.7656 1.5469-4.0586 1.2812 0.625 2.4297 1.4922 3.3867 2.5469 5.9609 10.812 13.977 20.359 23.598 28.094 4.1875 2.9297 8.5508 5.6016 13.062 8l1.1797-1.0547c-0.3125-1.7617-0.61328-3.5234-0.94141-5.2812-1.9492-10.473-4.6758-20.867-5.668-31.43-1.5078-14.605-2.1289-29.289-1.8477-43.969 0.55859-19.504 2.332-38.984 4.0391-58.434l-0.003907-0.003906c2.7773-21.77 10.195-42.688 21.758-61.344 6.0703-10.836 11.863-21.828 17.863-32.703 1.1172-1.7891 2.3359-3.5117 3.6523-5.1562l1.4258 0.35938h0.003906c0.30859 1.7148 0.32031 3.4688 0.03125 5.1836-4.7578 12.961-5.2109 26.902-8.8516 39.957v0.003906c-3.9609 14.289-5.332 29.172-4.0508 43.941 1.6797 20.84 2.5547 41.914 9.7227 61.867l-0.003907 0.003906c3.4766 10.617 8.6289 20.617 15.258 29.613 0.49609 1.0859 1.5117 1.8438 2.6953 2.0117 1.1797 0.17188 2.3672-0.27344 3.1484-1.1719 11.891-9.2656 23.121-19.043 28.004-34.09h0.003907c0.65625-0.91406 1.5156-1.6641 2.5078-2.1914 0.91797 0.76172 1.6289 1.7422 2.0664 2.8516 0.039063 2.6719-0.23828 5.3398-0.82422 7.9492-2.1719 9.5039-4.5547 18.957-6.7969 28.445-2.9805 12.613-5.9023 25.238-9.125 39.031 8.0273-3.8242 15.512-7.2305 22.852-10.934 5.8594-2.957 11.383-6.6602 17.418-9.1484l-0.003906-0.003907c2.582 0.19141 4.9375 1.5352 6.4141 3.6641 0.71094 2.0508 0.6875 4.2852-0.0625 6.3242-1.2695 5.9336-2.6367 11.855-4.3008 17.688-2.1797 7.6523-4.6953 15.215-7.043 22.824-2.0781 6.7383-3.8555 13.586-6.2383 20.215-3.6133 12.672-10.977 23.957-21.117 32.371-6.7148 5.1523-14.008 9.5039-21.73 12.969-6.7578 2.5664-13.855 4.1289-21.066 4.6367-17.516 2.1758-35.277 1.3281-52.508-2.5117-8.4844-2.2891-16.836-5.0469-25.016-8.2578-3.0234-1.2031-5.4531-3.5469-6.7656-6.5273-3.168-4.293-6.6719-8.3242-10.488-12.059-3.8125-4.9375-7.1523-10.254-10.461-15.555l0.003906 0.003907c-0.34375-1.2148-0.09375-2.5195 0.67969-3.5195 1.0703-0.36719 2.25-0.1875 3.1641 0.48438 5.043 5.6523 12.109 5.3047 18.902 7.0938zm106.65-99.406-7.5586 5.6094c-14.812-13.992-20.531-33.285-26.77-52.469l-0.29297 7.8672v0.003906c-0.66016-0.92969-1.1641-1.9609-1.4922-3.0508 0.050781-6.4922 0.6875-13.012 0.25781-19.461-0.66406-9.8867-2.4258-19.703-3-29.59v-0.003907c-0.79688-10.055-0.85547-20.152-0.17578-30.219 0.87891-9.8242 3.5938-19.48 5.4062-29.23 0.80078-4.3047 1.3516-8.6523 2.0195-12.98v0.003906c-3.25 4.4492-6.1211 9.168-8.5781 14.102-5.5039 10.816-11.594 21.414-16.148 32.625-9.832 24.211-10.73 50.047-11.699 75.688-0.63672 16.848-0.57031 33.77 0.25391 50.605h0.003906c0.89062 10.145 2.4844 20.215 4.7734 30.137 1.0273 5.3711 2.9453 10.57 4.3242 15.883 0.87891 3.375-0.88281 6.2227-3.1719 5.2148-5.1406-1.8828-10.031-4.3984-14.551-7.4883-6.1758-5.125-11.984-10.684-17.375-16.625-3.0742-3.6133-5.9453-7.3906-8.5977-11.324-2.4414 15.039-3.1953 30.309-2.2383 45.516 0.125 2.4961 0.32031 4.9883 0.58203 7.4805 1.1719 11.059-1.6133 23.367 9.8203 31.203h-0.003907c0.097657 0.31641 0.14453 0.64453 0.14062 0.97656l-28.293-11.66-1.2734 1.8594c6.4766 7.0352 12.824 14.191 19.484 21.043 2.5547 3.0352 5.7305 5.4961 9.3086 7.2148 7.0703 2.6094 14.359 4.5898 21.777 5.9219 8.0703 1.4531 16.227 2.3594 24.422 2.7109 11.648 0.15625 23.285-0.83984 34.742-2.9727 12.941-2.1289 24.863-8.3438 34.02-17.734 5.6367-5.8906 10.164-12.746 13.363-20.246 3.6016-8.8828 6.7344-17.949 9.3867-27.16 2.1211-6.2422 4.7617-12.348 6.375-18.711 1.7617-6.9531 2.6445-14.133 3.8242-21.23 0.46875-1.3477 0.46484-2.8125-0.007813-4.1562-1.3281-0.75391-2.9336-0.85156-4.3398-0.25781-4.9219 2.3945-9.5938 5.3086-14.504 7.7305-7.582 3.7383-15.277 7.2539-22.953 10.797v0.003906c-0.75781 0.23438-1.5586 0.30859-2.3477 0.22266-3.168-0.007813-4.2031-0.90234-2.8047-4.3672 2.2305-5.5234 4.0625-11.199 5.4922-16.984 2.2109-8.9727 3.8945-18.078 5.875-27.109 1.3242-6.0352 2.7852-12.039 4.1836-18.059h0.003906c-5.9297 5.5547-11.508 11.469-16.707 17.707-1.5391 1.7539-3.3516 3.2656-5.0391 4.8867z"/>
  <path d="m334.88 209.33-20.656 28.906-1.4453-0.99219 20.215-29.203z"/>
  <path d="m223.86 146.92c-1.3516 9.0742-2.7031 18.145-4.0508 27.219l-1.8359-0.27734c0.49609-9.1875 2.0195-18.293 4.5391-27.145z"/>
  <path d="m196.67 410.97c4.7344 5.9531 7.1914 13.566 16.977 14.273-4.2109 0.71094-8.5195-0.46094-11.789-3.2109-3.2695-2.7461-5.1641-6.793-5.1875-11.062z"/>
  <path d="m303.48 60.648c4.4062 1.9609 5.3984 12.82 2.1328 22.508-0.65234-6.875-1.4023-14.801-2.1328-22.508z"/>
  <path d="m358.62 206.42-4.6836-21.488c8.0234 6.5508 4.5469 14.398 4.6836 21.488z"/>
  <path d="m290.98 162.28c-0.75 7.8047-1.4961 15.609-2.25 23.488v0.003906c-2.5664-7.8008-1.75-16.32 2.25-23.492z"/>
  <path d="m202.41 224.75c2.4141 7.6562 4.8281 15.312 7.2422 22.969l-1.0234 0.36328c-2.8711-7.5-5.7422-15-8.6133-22.5z"/>
  <path d="m361.75 224.69c-1.8398 7.1719-3.6758 14.344-5.5156 21.52l-1.3984-0.33594c1.5898-7.2344 3.1797-14.469 4.7695-21.699z"/>
  <path d="m305.96 232.71-9.293-12.453 1.918-1.4336 8.7695 12.789z"/>
  <path d="m390.29 265.88c-0.60156-4.9609-1.2031-9.9258-1.8047-14.887 4.4648 4.4922 2.8398 9.7266 1.8047 14.887z"/>
  <path d="m217.13 258.89c2.4805 5.9023 4.4609 10.617 6.5547 15.598-2.5352-1.6406-4.5156-4.0078-5.6836-6.7891-1.1719-2.7812-1.4727-5.8516-0.87109-8.8086z"/>
  <path d="m298.66 121.46 3.9414-16.152c1.543 5.7031 0.054688 11.801-3.9414 16.152z"/>
  <path d="m217.93 210.17-0.32031-14.684 1.0977-0.054687 0.32031 14.652z"/>
  <path d="m246.8 101.88 5.6641-9.418 1.5039 0.83984-5.207 9.6836z"/>
  <path d="m176.11 328.28 7.7773 12.957c-4.5859-1.7812-8.0273-5.6758-9.2227-10.449 0.3125-0.92578 0.84766-1.7617 1.5547-2.4375z"/>
  <path d="m178.02 463.46c0.66797 1.5 0.47266 3.2461-0.51563 4.5625-0.98437 1.3164-2.6055 1.9961-4.2344 1.7773-3.6992 0.20703-7.3945 0.52344-11.094 0.78906l-0.58984-1.1172c0.85547-0.90625 1.8711-1.6445 2.9961-2.1797 1.6445-0.41016 3.5508 0.15625 5.1445-0.33984h0.003906c2.8203-1.0234 5.5859-2.1875 8.2891-3.4922z"/>
  <path d="m328.49 470.41 5.2812 5.6406-1.2695 1.3125 0.003906 0.003906c-3.1836-2.2344-5.9883-4.9648-8.3008-8.0938-0.63672-2.9102 0.085938-5.9492 1.9688-8.2578 1.875-2.0234 4.5547-3.0977 7.3086-2.9375 4.3047 0.625 3.6875 4.0625 1.6797 7.3359 1.6641 0.32031 3.3828-0.13672 4.668-1.2383 1.2891-1.1016 2.0039-2.7266 1.9492-4.418 0.30859-1.4336-0.058594-2.9297-0.99609-4.0586-0.9375-1.125-2.3438-1.7578-3.8086-1.7148-5.4219 0.039062-10.805 0.90234-15.965 2.5586-3.8242 1.9805-5.8438 6.2852-4.918 10.492 0.46875 4.9023 4.0156 8.9609 8.8164 10.082 11.074 3.3672 21.07 0.87109 25.332-11.707v-0.003906c0.74609-4.0195-0.26172-8.168-2.7695-11.395-0.48047-1.0352-1.1328-1.9883-1.7109-2.9805l0.8125-1.0352c1.3203 0.32812 2.5625 0.90234 3.6602 1.6953 2.1758 2.5273 3.5352 5.6562 3.8945 8.9688 0.35938 3.3164-0.30078 6.6602-1.8867 9.5938-2.9922 5.832-8.3633 10.082-14.73 11.652-6.3633 1.5664-13.098 0.30078-18.457-3.4727-2.3789-1.5586-4.2891-3.7305-5.5352-6.2852-1.2461-2.5586-1.7734-5.4023-1.5352-8.2383 0.6875-3.0195 2.2891-5.7539 4.5859-7.8242 2.3008-2.0742 5.1836-3.3906 8.2578-3.7617 4.25-0.82812 8.5703-1.2266 12.902-1.1914 4.1328 0.34766 7.4102 3.6367 7.7383 7.7734 0.28516 4.4023-2.457 8.4375-6.6562 9.7969-3.3945 0.80859-6.8438 1.3789-10.32 1.707z"/>
  <path d="m359.11 465.2c-1.1523-5.2383-2.3047-10.477-3.582-16.266h0.003906c0.87891-0.19141 1.7891-0.19531 2.668-0.011719 2.4922 5.0781 2.8203 10.953 0.91016 16.277z"/>
  <path d="m261.8 469.8 0.67578 8.0977h0.003906c4.3672 0.94141 8.8086-1.2344 10.746-5.2578 0.94922-2.1289 1.0117-4.5508 0.16406-6.7227-0.84375-2.1719-2.5273-3.918-4.668-4.8398-5.918-3.2305-12.129-5.8945-18.551-7.9609-6.3555-2.3789-13.508 0.125-16.988 5.9492-1.3086 3.6406-1.9023 7.4961-1.7539 11.359-6.8438-3.7148-8.0508-11.254-2.0508-20.695l-0.70703 6.7305c11.176-10.641 22.523-8.1016 34.02-2.2539 4.4336 2.0156 8.75 4.2812 12.922 6.7891 1.7109 1.7266 3.043 3.7852 3.918 6.0508 0.019531 0.03125-0.88672 0.60938-1.8281 1.2461-1.1719 8.832-5.0156 12.582-15.199 13.383-6.4766 0.50781-13.332 0.97266-18.102-4.5742-2.2305-3.0938-4.043-6.4648-5.3906-10.027-0.72266-1.9219-1.3047-3.8906-1.7383-5.8945 3.6914-0.78906 7.332-1.8008 11.047-2.2578 1.8984-0.11328 3.793 0.24219 5.5234 1.0352 3.3945 0.53516 5.9023 3.4492 5.9258 6.8867-0.25391 2.4688-7.3086 4.8828-10.266 3.8125-1.8711-0.67969-3.6914-1.5078-5.7852-2.3711 1.0078 7.4375 6.4023 10.766 15.902 10l0.48437-8.4297zm-11.027-7.5977-1.6602 1.5508c0.875 1.5312 1.9805 2.9141 3.2812 4.1016 1.2891-0.42188 2.4727-1.1133 3.4766-2.0273z"/>
  <path d="m246.77 483.88c-2.375-0.11328-4.5977-1.1992-6.1406-3.0078-1.543-1.8047-2.2734-4.168-2.0117-6.5312 2.6602 3.1133 5.1836 6.0625 8.1523 9.5391z"/>
  <path d="m402.79 427.4c-3.7109 5.8438-6.793 6.7852-11.668 4.8633l4.4492-2.7969v0.003906c-0.6875-1.043-1.2188-2.1797-1.5781-3.3711-1.4219-3.8203-0.32031-8.1172 2.7617-10.781 4.4805-1.5664 9.4023-1.2188 13.617 0.95312 2.9219 1.8711 4.9141 4.8828 5.4922 8.3008 0.58203 3.418-0.30859 6.918-2.4492 9.6445-4.418 6.5977-9.293 12.879-14.586 18.793-1.6641 1.0508-3.5508 1.7031-5.5078 1.9023l-0.41406-1.3047 10.258-6.8398-0.91016-1.4961c-2.0547 1.1797-4.2109 2.2109-6.1328 3.5781h-0.003907c-2.8359 2.8359-6.8906 4.082-10.828 3.3359-2.0547-0.92969-3.7852-2.4453-4.9805-4.3555 3.4023 0.28906 6.1172 4.1875 9.8945 0.99609-11.316-2.3594-17.191-10.867-13.129-20.395 2.6172-4.8086 6.0078-9.1484 10.043-12.848 1.6602-0.44141 3.4102-0.42969 5.0664 0.035157-0.71484 1.1406-1.5703 2.1875-2.5469 3.1094-5.543 3.5391-8.9414 9.625-9.0391 16.203-0.054688 2.7266 1.0938 5.3398 3.1445 7.1406 2.0508 1.8008 4.7891 2.6016 7.4883 2.1953 7.6367-0.55859 14.652-4.4219 19.199-10.586 1.7578-2.457 2.3125-5.5703 1.5117-8.4844-0.79688-2.9102-2.8672-5.3047-5.6289-6.5195-1.3281-0.88672-2.9609-1.1875-4.5195-0.83203-1.5586 0.35547-2.8984 1.3359-3.7109 2.7109-1.3203 2.7422 0.097656 4.6172 4.707 6.8438z"/>
  <path d="m376.66 421.15-5.1953 14.754c-3.6992-2.0703-1.207-10.172 5.1953-14.754z"/>
  <path d="m262.38 188.56c0.98828 2.0312 1.7188 4.1797 2.168 6.3906 0.43359 5.5195-0.13281 11.145 0.625 16.602 2.5664 18.52 2.2812 37.41 8.0547 55.539 2.8477 8.9336 4.0625 18.387 6.043 27.598h0.003906c0.21094 1.0703 0.81641 2.0234 1.6992 2.6719l1.8672-11.48 1.5508 0.14062c-0.66406 6-1.5469 11.988-1.8945 18.004v-0.003907c-0.17578 3.1484 0.18359 6.3008 1.0586 9.332 1.2734 4.3242 3.2266 8.4492 5.1016 13.195 9.293-18.723 18.281-36.832 27.266-54.941l1.3047 0.44531c-3.2031 19.988-6.4102 39.977-9.8164 61.227h0.003907c4.6445-3.6797 9.7031-6.8125 15.07-9.332 6.0234-1.9883 8.3906-6.6953 11.742-12.473l0.76562 3.1445c2.0078-0.15625 4.0234 0.20312 5.8516 1.0391 0.75 2.1953 0.78125 4.5742 0.082032 6.7852-2.207 8.8164-4.293 17.695-7.1992 26.289-3.4766 11.496-9.4297 22.09-17.434 31.043-1.9023 2.3984-3.3828 5.0977-4.3906 7.9883-0.42188 1.1055-1.2773 1.9922-2.3633 2.4531-1.0898 0.46094-2.3203 0.46094-3.4102 0-1.8359-0.17969-3.6875 0.085937-5.3984 0.77734-3.6445 1.3203-7.1094 3.1445-10.766 4.4375-10.352 3.082-21.109 4.6016-31.91 4.5156-17.086 1.2539-34.078-3.4336-48.105-13.266-1.2461-1.2031-2.3711-2.5312-3.3516-3.9648l14.336 0.60938-3.1641-10.699 0.91406-0.32422 4.9492 9.9258 10.828-0.23437c-3.2852-7.8242-6.5273-15.406-9.6328-23.043-0.71094-1.582-1.082-3.3008-1.0859-5.0352 0.4375-9.1055-7.3281-13.438-11.32-19.957-0.82812-1.5703-1.543-3.1953-2.1406-4.8672l1.5508-0.76953 7.6211 11.582 1.3203-0.50391c-0.35938-3.3281-0.71875-6.6562-1.0742-9.9844l1.2461-1.0469c10.488 14.895 27.625 17.43 43.523 25.426-0.85547-6.4531-1.3984-11.551-2.2305-16.602h0.003906c-3.1406-13.609-5.3594-27.414-6.6523-41.32-0.60547-21.73 0.91797-43.539 2.0586-65.289 0.72266-13.816 2.3828-27.586 3.625-41.379zm-0.027343 23.605h0.003906c-0.41797 2.0312-0.71484 4.0859-0.89453 6.1523-0.72266 16.375-1.3906 32.75-1.9961 49.129-0.16016 4.25 0.089844 8.5234-0.25781 12.754-1.3867 12.07-0.88672 24.289 1.4883 36.207 2.25 9.7891 4.3555 19.617 6.2383 29.484 0.78906 4.1328 0.84375 8.4062 1.3242 13.637-14.992-8.2461-30.93-11.312-44.242-21.199 0.35938 7.3203 1.6055 14.57 3.707 21.594 3.0859 8.5625 5.8828 17.809 15.059 22.555 0.59766 0.64063 1.0352 1.4141 1.2695 2.2578-0.90234 0.66797-1.9258 1.1523-3.0156 1.4258-6.625 0.16406-13.258 0.13281-19.883 0.17969-1.6523 0.011718-3.3008 0.070312-4.9531 0.10547l-0.26562 1.2656c2.2266 1.3867 4.5391 2.6289 6.9219 3.7227 6.5859 2.5664 14.172 0.80078 20.523 4.5938h0.003907c0.46094 0.125 0.94531 0.13281 1.4062 0.023437 11.297-0.55859 22.723-0.24609 33.852-1.9141h0.003907c12.332-1.4219 23.91-6.6797 33.094-15.031 9.418-9.1602 16.332-20.574 20.094-33.16 2.8008-8.6914 4.3516-17.789 6.668-27.586l-34.391 20.293-1.7852-1.1758v-0.003906c4.2305-15.359 6.8203-31.121 7.7266-47.027-9.2812 14.434-16.168 30.273-20.387 46.902-2.9492-6.1016-5.3906-12.441-7.2969-18.945-5.1484-20.078-10.566-40.133-14.504-60.465-2.9609-15.262-3.8008-30.93-5.5078-45.773z"/>
  <path d="m210.43 343.81c2.0977 3.1875 4.0977 6.4453 6.3281 9.5352 1.582 2.1914 3.625 4.0547 5.1602 6.2695h0.003907c0.32031 1.0547 0.39062 2.1719 0.20312 3.2578-0.95703 0.10938-1.9258-0.039062-2.8086-0.42969-1.2461-1.7656-1.957-3.8945-3.1289-5.7227-1.6875-2.625-3.6641-5.0586-5.3789-7.6641-0.81641-1.3984-1.5469-2.8477-2.1875-4.332z"/>
  <path d="m344.09 340.66c-2.582 7.4375-5.1602 14.879-7.7422 22.316l-1.7188 0.62109c-0.44922-0.62109-0.72656-1.3516-0.80078-2.1172 2.7617-7.2344 5.6523-14.418 8.5078-21.617z"/>
  <path d="m256.42 180.18c-0.37891 5.207-0.68359 10.418-1.2227 15.609-0.44141 0.88281-1.0938 1.6445-1.9023 2.2188-0.85938-0.5-1.5703-1.2227-2.0586-2.0898 0.085937-2.3281-1.9961-5.3359 1.9531-6.793 0.89062-1.0156 1.3711-2.3281 1.3398-3.6797 0.10156-1.7617 0.082031-3.5273-0.054688-5.2891z"/>
  <path d="m309.77 269.2c-2.2383 5.6602-4.4766 11.32-6.7188 16.98l-1.6055-0.74219c1.5312-5.957 4.4062-11.488 8.4062-16.164z"/>
  <path d="m248.61 286.57c-1.6328-3.7539-3.2656-7.5117-4.8945-11.266l2.1484-0.89453 4.3164 11.457z"/>
  <path d="m249.3 341.42c-2.8008-3.5312-5.6016-7.0625-8.4023-10.598l1.4414-1.168c2.7852 3.543 5.5742 7.0859 8.3594 10.629z"/>
  <path d="m247.68 236.62 3.1328 10.438-1.4883 0.52344-3.8945-10.188z"/>
  <path d="m251.33 391.55 15.891-7.1445c-11.242-3.6016-20.203-12.168-24.312-23.234l1.25-1.5078 30.434 15.699h-0.003906c0.38672-2.0352 0.57422-4.1016 0.55859-6.1758-1.9609-14.637-4.0781-29.258-6.0938-43.887-0.90234-6.5547-1.707-13.125-2.4844-19.695v0.003906c-0.011718-0.97656 0.082032-1.9492 0.28125-2.9023 1.1289 0.24219 2.2031 0.67969 3.1797 1.293 0.86328 0.91797 1.5039 2.0195 1.8672 3.2266 3.5664 10.066 7.1133 20.137 10.562 30.246 2.2188 6.5078 4.2578 13.078 6.9727 19.66 2.9062-7.5117 3.1641-16.031 11.121-21.586-0.28516 6.3242-0.57031 12.645-0.91016 20.152l15.32-9.4805c1.5352 6.9102 0.27734 14.148-3.5 20.137-8.2539 13.703-21.914 23.281-37.613 26.371-7.2695 1.0195-14.625 1.2656-21.949 0.73828zm22.062-50.219c1.1289 7.4453 2.2578 14.891 3.3906 22.336 0.61328 4.0547 2.5586 2.8945 4.6445 1.1836 4.2539 8.6484 3.0078 13.805-3.9453 16.273l-0.36719 4.5508-0.003907 0.003906c-0.82031-2.7383-2.2383-5.2617-4.1484-7.3906-7.4414-4.3438-15.312-7.9492-23.023-11.828l-0.72656 1.0273 6.8398 8.1445c0.57812-0.78125 1.3281-1.4219 2.1875-1.8711 4.7578 0.69922 8.9062 3.6055 11.188 7.8438 1.4922 2.8477 2.4258 5.3594-2.2852 6.0156h-0.003906c-1.707 0.72656-3.2852 1.7227-4.6758 2.9531 1.582 0.23438 3.1875 0.26172 4.7734 0.089844 11.375-3.9961 23.176-6.9219 32.926-14.734 6.5312-5.2305 8.3242-13.07 12.078-19.828l0.003906-0.003907c0.30859-1.8008 0.29297-3.6406-0.039063-5.4336-3.8711 3.082-6.5273 5.3945-9.3828 7.4219-3.2656 2.3164-5.3086 1.3047-5.5-2.6094-0.17188-3.4844-0.17188-6.9805-0.25-10.473l-1.5664-0.125-3.8125 20.684-0.003906 0.003906c1.8633 0.12109 3.6719 0.65234 5.3047 1.5508 1.3516 0.66406 2.7344 1.2617 4.5703 2.1055-0.95703 4.4141-4.2539 2.2344-7.1602 0.90625l0.003906-0.003906c-0.48438 1.2773-1.0508 2.5234-1.7031 3.7266-0.82422 1.168-1.7148 2.2891-2.6641 3.3594-0.84375-1.1094-1.4453-2.3828-1.7734-3.7383 0.10547-6.7227-1.043-13.406-3.3828-19.707-4.5938-12.371-8.8086-24.879-13.184-37.328l-1.1758 0.38672c0.26953 2.1562 0.54688 4.3086 0.80469 6.4648 0.71875 6.0508 1.4336 12.102 2.1406 18.152z"/>
  <path d="m273.47 341.44 1.9414-4.418 1.3086 0.54297c0.55078 6.2422 1.0977 12.48 1.6484 18.723l-0.88281 0.25391c-1.3633-5.0664-2.7305-10.137-4.0938-15.203z"/>
  <use x="70" y="644" xlink:href="#s"/>
  <use x="90.550781" y="644" xlink:href="#d"/>
  <use x="104.359375" y="644" xlink:href="#c"/>
  <use x="123.347656" y="644" xlink:href="#b"/>
  <use x="142.242188" y="644" xlink:href="#a"/>
  <use x="155.628906" y="644" xlink:href="#c"/>
  <use x="174.617188" y="644" xlink:href="#j"/>
  <use x="204.410156" y="644" xlink:href="#i"/>
  <use x="224.453125" y="644" xlink:href="#f"/>
  <use x="252.453125" y="644" xlink:href="#h"/>
  <use x="271.550781" y="644" xlink:href="#b"/>
  <use x="290.445312" y="644" xlink:href="#a"/>
  <use x="303.828125" y="644" xlink:href="#f"/>
  <use x="322.082031" y="644" xlink:href="#b"/>
  <use x="340.976562" y="644" xlink:href="#g"/>
  <use x="360.910156" y="644" xlink:href="#b"/>
  <use x="70" y="672" xlink:href="#r"/>
  <use x="82.183594" y="672" xlink:href="#d"/>
  <use x="95.992188" y="672" xlink:href="#e"/>
  <use x="115.226562" y="672" xlink:href="#q"/>
  <use x="154.152344" y="672" xlink:href="#a"/>
  <use x="167.535156" y="672" xlink:href="#p"/>
  <use x="187.46875" y="672" xlink:href="#c"/>
  <use x="216.207031" y="672" xlink:href="#o"/>
  <use x="239.640625" y="672" xlink:href="#e"/>
  <use x="258.878906" y="672" xlink:href="#n"/>
  <use x="278.8125" y="672" xlink:href="#g"/>
  <use x="308.492188" y="672" xlink:href="#m"/>
  <use x="329.015625" y="672" xlink:href="#d"/>
  <use x="342.820312" y="672" xlink:href="#e"/>
  <use x="362.058594" y="672" xlink:href="#l"/>
  <use x="371.65625" y="672" xlink:href="#c"/>
  <use x="390.648438" y="672" xlink:href="#k"/>
  <use x="407.242188" y="672" xlink:href="#a"/>
 </g>
</svg>
